<?xml version="1.0" encoding="UTF-8" standalone="no"?>
<!DOCTYPE svg PUBLIC "-//W3C//DTD SVG 1.1//EN"
 "http://www.w3.org/Graphics/SVG/1.1/DTD/svg11.dtd">
<!-- Generated by graphviz version 2.29.20121115.0545 (20121115.0545)
 -->
<!-- Title: controllers_diagram Pages: 1 -->
<svg width="1385pt" height="1192pt"
 viewBox="0.00 0.00 1384.90 1191.79" xmlns="http://www.w3.org/2000/svg" xmlns:xlink="http://www.w3.org/1999/xlink">
<g id="graph0" class="graph" transform="scale(1 1) rotate(0) translate(4 1187.79)">
<title>controllers_diagram</title>
<polygon fill="white" stroke="white" points="-4,5 -4,-1187.79 1381.9,-1187.79 1381.9,5 -4,5"/>
<!-- _diagram_info -->
<g id="node1" class="node"><title>_diagram_info</title>
<text text-anchor="start" x="1178" y="-339" font-family="Times,serif" font-size="13.00">Controllers diagram</text>
<text text-anchor="start" x="1178" y="-323.4" font-family="Times,serif" font-size="13.00">Date: Jan 22 2013 &#45; 23:26</text>
<text text-anchor="start" x="1178" y="-307.8" font-family="Times,serif" font-size="13.00">Migration version: 20130123041134</text>
<text text-anchor="start" x="1178" y="-292.2" font-family="Times,serif" font-size="13.00">Generated by RailRoady 1.1.0</text>
<text text-anchor="start" x="1178" y="-276.6" font-family="Times,serif" font-size="13.00">http://railroady.prestonlee.com</text>
</g>
<!-- ApplicationController -->
<g id="node2" class="node"><title>ApplicationController</title>
<path fill="none" stroke="black" d="M453.376,-542.174C453.376,-542.174 625.011,-542.174 625.011,-542.174 631.011,-542.174 637.011,-548.174 637.011,-554.174 637.011,-554.174 637.011,-628.574 637.011,-628.574 637.011,-634.574 631.011,-640.574 625.011,-640.574 625.011,-640.574 453.376,-640.574 453.376,-640.574 447.376,-640.574 441.376,-634.574 441.376,-628.574 441.376,-628.574 441.376,-554.174 441.376,-554.174 441.376,-548.174 447.376,-542.174 453.376,-542.174"/>
<text text-anchor="middle" x="539.193" y="-622.574" font-family="Times,serif" font-size="14.00">ApplicationController</text>
<polyline fill="none" stroke="black" points="441.376,-615.774 637.011,-615.774 "/>
<text text-anchor="start" x="449.376" y="-597.774" font-family="Times,serif" font-size="14.00">_one_time_conditions_valid_8?</text>
<polyline fill="none" stroke="black" points="441.376,-590.974 637.011,-590.974 "/>
<polyline fill="none" stroke="black" points="441.376,-566.974 637.011,-566.974 "/>
<text text-anchor="start" x="449.376" y="-548.974" font-family="Times,serif" font-size="14.00">_layout</text>
</g>
<!-- BarriersController -->
<g id="node3" class="node"><title>BarriersController</title>
<path fill="none" stroke="black" d="M960.674,-983.277C960.674,-983.277 1055.31,-983.277 1055.31,-983.277 1061.31,-983.277 1067.31,-989.277 1067.31,-995.277 1067.31,-995.277 1067.31,-1170.48 1067.31,-1170.48 1067.31,-1176.48 1061.31,-1182.48 1055.31,-1182.48 1055.31,-1182.48 960.674,-1182.48 960.674,-1182.48 954.674,-1182.48 948.674,-1176.48 948.674,-1170.48 948.674,-1170.48 948.674,-995.277 948.674,-995.277 948.674,-989.277 954.674,-983.277 960.674,-983.277"/>
<text text-anchor="middle" x="1007.99" y="-1164.48" font-family="Times,serif" font-size="14.00">BarriersController</text>
<polyline fill="none" stroke="black" points="948.674,-1157.68 1067.31,-1157.68 "/>
<text text-anchor="start" x="956.674" y="-1139.68" font-family="Times,serif" font-size="14.00">create</text>
<text text-anchor="start" x="956.674" y="-1122.88" font-family="Times,serif" font-size="14.00">destroy</text>
<text text-anchor="start" x="956.674" y="-1106.08" font-family="Times,serif" font-size="14.00">edit</text>
<text text-anchor="start" x="956.674" y="-1089.28" font-family="Times,serif" font-size="14.00">index</text>
<text text-anchor="start" x="956.674" y="-1072.48" font-family="Times,serif" font-size="14.00">new</text>
<text text-anchor="start" x="956.674" y="-1055.68" font-family="Times,serif" font-size="14.00">show</text>
<text text-anchor="start" x="956.674" y="-1038.88" font-family="Times,serif" font-size="14.00">update</text>
<polyline fill="none" stroke="black" points="948.674,-1032.08 1067.31,-1032.08 "/>
<polyline fill="none" stroke="black" points="948.674,-1008.08 1067.31,-1008.08 "/>
<text text-anchor="start" x="956.674" y="-990.077" font-family="Times,serif" font-size="14.00">_layout</text>
</g>
<!-- ApplicationController&#45;&gt;BarriersController -->
<g id="edge1" class="edge"><title>ApplicationController&#45;&gt;BarriersController</title>
<path fill="none" stroke="black" d="M586.29,-640.752C672.2,-730.823 854.169,-921.605 948.497,-1020.5"/>
</g>
<!-- ClippingsController -->
<g id="node4" class="node"><title>ClippingsController</title>
<path fill="none" stroke="black" d="M319.08,-27.4427C319.08,-27.4427 497.715,-27.4427 497.715,-27.4427 503.715,-27.4427 509.715,-33.4427 509.715,-39.4427 509.715,-39.4427 509.715,-248.243 509.715,-248.243 509.715,-254.243 503.715,-260.243 497.715,-260.243 497.715,-260.243 319.08,-260.243 319.08,-260.243 313.08,-260.243 307.08,-254.243 307.08,-248.243 307.08,-248.243 307.08,-39.4427 307.08,-39.4427 307.08,-33.4427 313.08,-27.4427 319.08,-27.4427"/>
<text text-anchor="middle" x="408.397" y="-242.243" font-family="Times,serif" font-size="14.00">ClippingsController</text>
<polyline fill="none" stroke="black" points="307.08,-235.443 509.715,-235.443 "/>
<text text-anchor="start" x="315.08" y="-217.443" font-family="Times,serif" font-size="14.00">_one_time_conditions_valid_38?</text>
<text text-anchor="start" x="315.08" y="-200.643" font-family="Times,serif" font-size="14.00">create</text>
<text text-anchor="start" x="315.08" y="-183.843" font-family="Times,serif" font-size="14.00">destroy</text>
<text text-anchor="start" x="315.08" y="-167.043" font-family="Times,serif" font-size="14.00">edit</text>
<text text-anchor="start" x="315.08" y="-150.243" font-family="Times,serif" font-size="14.00">get</text>
<text text-anchor="start" x="315.08" y="-133.443" font-family="Times,serif" font-size="14.00">index</text>
<text text-anchor="start" x="315.08" y="-116.643" font-family="Times,serif" font-size="14.00">new</text>
<text text-anchor="start" x="315.08" y="-99.8427" font-family="Times,serif" font-size="14.00">show</text>
<text text-anchor="start" x="315.08" y="-83.0427" font-family="Times,serif" font-size="14.00">update</text>
<polyline fill="none" stroke="black" points="307.08,-76.2427 509.715,-76.2427 "/>
<polyline fill="none" stroke="black" points="307.08,-52.2427 509.715,-52.2427 "/>
<text text-anchor="start" x="315.08" y="-34.2427" font-family="Times,serif" font-size="14.00">_layout</text>
</g>
<!-- ApplicationController&#45;&gt;ClippingsController -->
<g id="edge2" class="edge"><title>ApplicationController&#45;&gt;ClippingsController</title>
<path fill="none" stroke="black" d="M524.696,-541.771C505.008,-474.407 469.214,-351.934 442.517,-260.586"/>
</g>
<!-- FoldersController -->
<g id="node5" class="node"><title>FoldersController</title>
<path fill="none" stroke="black" d="M318.778,-926.764C318.778,-926.764 497.413,-926.764 497.413,-926.764 503.413,-926.764 509.413,-932.764 509.413,-938.764 509.413,-938.764 509.413,-1130.76 509.413,-1130.76 509.413,-1136.76 503.413,-1142.76 497.413,-1142.76 497.413,-1142.76 318.778,-1142.76 318.778,-1142.76 312.778,-1142.76 306.778,-1136.76 306.778,-1130.76 306.778,-1130.76 306.778,-938.764 306.778,-938.764 306.778,-932.764 312.778,-926.764 318.778,-926.764"/>
<text text-anchor="middle" x="408.096" y="-1124.76" font-family="Times,serif" font-size="14.00">FoldersController</text>
<polyline fill="none" stroke="black" points="306.778,-1117.96 509.413,-1117.96 "/>
<text text-anchor="start" x="314.778" y="-1099.96" font-family="Times,serif" font-size="14.00">_one_time_conditions_valid_90?</text>
<text text-anchor="start" x="314.778" y="-1083.16" font-family="Times,serif" font-size="14.00">create</text>
<text text-anchor="start" x="314.778" y="-1066.36" font-family="Times,serif" font-size="14.00">destroy</text>
<text text-anchor="start" x="314.778" y="-1049.56" font-family="Times,serif" font-size="14.00">edit</text>
<text text-anchor="start" x="314.778" y="-1032.76" font-family="Times,serif" font-size="14.00">index</text>
<text text-anchor="start" x="314.778" y="-1015.96" font-family="Times,serif" font-size="14.00">new</text>
<text text-anchor="start" x="314.778" y="-999.164" font-family="Times,serif" font-size="14.00">show</text>
<text text-anchor="start" x="314.778" y="-982.364" font-family="Times,serif" font-size="14.00">update</text>
<polyline fill="none" stroke="black" points="306.778,-975.564 509.413,-975.564 "/>
<polyline fill="none" stroke="black" points="306.778,-951.564 509.413,-951.564 "/>
<text text-anchor="start" x="314.778" y="-933.564" font-family="Times,serif" font-size="14.00">_layout</text>
</g>
<!-- ApplicationController&#45;&gt;FoldersController -->
<g id="edge3" class="edge"><title>ApplicationController&#45;&gt;FoldersController</title>
<path fill="none" stroke="black" d="M524.536,-640.946C504.224,-709.644 466.983,-835.599 440.077,-926.6"/>
</g>
<!-- GoalsController -->
<g id="node6" class="node"><title>GoalsController</title>
<path fill="none" stroke="black" d="M629.173,-937.807C629.173,-937.807 711.38,-937.807 711.38,-937.807 717.38,-937.807 723.38,-943.807 723.38,-949.807 723.38,-949.807 723.38,-1125.01 723.38,-1125.01 723.38,-1131.01 717.38,-1137.01 711.38,-1137.01 711.38,-1137.01 629.173,-1137.01 629.173,-1137.01 623.173,-1137.01 617.173,-1131.01 617.173,-1125.01 617.173,-1125.01 617.173,-949.807 617.173,-949.807 617.173,-943.807 623.173,-937.807 629.173,-937.807"/>
<text text-anchor="middle" x="670.277" y="-1119.01" font-family="Times,serif" font-size="14.00">GoalsController</text>
<polyline fill="none" stroke="black" points="617.173,-1112.21 723.38,-1112.21 "/>
<text text-anchor="start" x="625.173" y="-1094.21" font-family="Times,serif" font-size="14.00">create</text>
<text text-anchor="start" x="625.173" y="-1077.41" font-family="Times,serif" font-size="14.00">destroy</text>
<text text-anchor="start" x="625.173" y="-1060.61" font-family="Times,serif" font-size="14.00">edit</text>
<text text-anchor="start" x="625.173" y="-1043.81" font-family="Times,serif" font-size="14.00">index</text>
<text text-anchor="start" x="625.173" y="-1027.01" font-family="Times,serif" font-size="14.00">new</text>
<text text-anchor="start" x="625.173" y="-1010.21" font-family="Times,serif" font-size="14.00">show</text>
<text text-anchor="start" x="625.173" y="-993.407" font-family="Times,serif" font-size="14.00">update</text>
<polyline fill="none" stroke="black" points="617.173,-986.607 723.38,-986.607 "/>
<polyline fill="none" stroke="black" points="617.173,-962.607 723.38,-962.607 "/>
<text text-anchor="start" x="625.173" y="-944.607" font-family="Times,serif" font-size="14.00">_layout</text>
</g>
<!-- ApplicationController&#45;&gt;GoalsController -->
<g id="edge4" class="edge"><title>ApplicationController&#45;&gt;GoalsController</title>
<path fill="none" stroke="black" d="M553.722,-640.812C574.686,-712.146 613.873,-845.485 640.986,-937.74"/>
</g>
<!-- MedicationsController -->
<g id="node7" class="node"><title>MedicationsController</title>
<path fill="none" stroke="black" d="M12,-984.087C12,-984.087 130.752,-984.087 130.752,-984.087 136.752,-984.087 142.752,-990.087 142.752,-996.087 142.752,-996.087 142.752,-1171.29 142.752,-1171.29 142.752,-1177.29 136.752,-1183.29 130.752,-1183.29 130.752,-1183.29 12,-1183.29 12,-1183.29 6,-1183.29 0,-1177.29 0,-1171.29 0,-1171.29 0,-996.087 0,-996.087 0,-990.087 6,-984.087 12,-984.087"/>
<text text-anchor="middle" x="71.376" y="-1165.29" font-family="Times,serif" font-size="14.00">MedicationsController</text>
<polyline fill="none" stroke="black" points="0,-1158.49 142.752,-1158.49 "/>
<text text-anchor="start" x="8" y="-1140.49" font-family="Times,serif" font-size="14.00">create</text>
<text text-anchor="start" x="8" y="-1123.69" font-family="Times,serif" font-size="14.00">destroy</text>
<text text-anchor="start" x="8" y="-1106.89" font-family="Times,serif" font-size="14.00">edit</text>
<text text-anchor="start" x="8" y="-1090.09" font-family="Times,serif" font-size="14.00">index</text>
<text text-anchor="start" x="8" y="-1073.29" font-family="Times,serif" font-size="14.00">new</text>
<text text-anchor="start" x="8" y="-1056.49" font-family="Times,serif" font-size="14.00">show</text>
<text text-anchor="start" x="8" y="-1039.69" font-family="Times,serif" font-size="14.00">update</text>
<polyline fill="none" stroke="black" points="0,-1032.89 142.752,-1032.89 "/>
<polyline fill="none" stroke="black" points="0,-1008.89 142.752,-1008.89 "/>
<text text-anchor="start" x="8" y="-990.887" font-family="Times,serif" font-size="14.00">_layout</text>
</g>
<!-- ApplicationController&#45;&gt;MedicationsController -->
<g id="edge5" class="edge"><title>ApplicationController&#45;&gt;MedicationsController</title>
<path fill="none" stroke="black" d="M492.195,-640.833C410.056,-727.273 239.922,-906.315 143.023,-1008.29"/>
</g>
<!-- MicropostsController -->
<g id="node8" class="node"><title>MicropostsController</title>
<path fill="none" stroke="black" d="M22.5057,-369.481C22.5057,-369.481 208.14,-369.481 208.14,-369.481 214.14,-369.481 220.14,-375.481 220.14,-381.481 220.14,-381.481 220.14,-523.081 220.14,-523.081 220.14,-529.081 214.14,-535.081 208.14,-535.081 208.14,-535.081 22.5057,-535.081 22.5057,-535.081 16.5057,-535.081 10.5057,-529.081 10.5057,-523.081 10.5057,-523.081 10.5057,-381.481 10.5057,-381.481 10.5057,-375.481 16.5057,-369.481 22.5057,-369.481"/>
<text text-anchor="middle" x="115.323" y="-517.081" font-family="Times,serif" font-size="14.00">MicropostsController</text>
<polyline fill="none" stroke="black" points="10.5057,-510.281 220.14,-510.281 "/>
<text text-anchor="start" x="18.5057" y="-492.281" font-family="Times,serif" font-size="14.00">_one_time_conditions_valid_108?</text>
<text text-anchor="start" x="18.5057" y="-475.481" font-family="Times,serif" font-size="14.00">_one_time_conditions_valid_110?</text>
<text text-anchor="start" x="18.5057" y="-458.681" font-family="Times,serif" font-size="14.00">create</text>
<text text-anchor="start" x="18.5057" y="-441.881" font-family="Times,serif" font-size="14.00">destroy</text>
<polyline fill="none" stroke="black" points="10.5057,-435.081 220.14,-435.081 "/>
<polyline fill="none" stroke="black" points="10.5057,-411.081 220.14,-411.081 "/>
<text text-anchor="start" x="18.5057" y="-393.081" font-family="Times,serif" font-size="14.00">_layout</text>
<text text-anchor="start" x="18.5057" y="-376.281" font-family="Times,serif" font-size="14.00">correct_user</text>
</g>
<!-- ApplicationController&#45;&gt;MicropostsController -->
<g id="edge6" class="edge"><title>ApplicationController&#45;&gt;MicropostsController</title>
<path fill="none" stroke="black" d="M441.15,-559.201C375.006,-537.496 287.807,-508.881 220.262,-486.717"/>
</g>
<!-- PagesController -->
<g id="node9" class="node"><title>PagesController</title>
<path fill="none" stroke="black" d="M925.131,-344.469C925.131,-344.469 1007.34,-344.469 1007.34,-344.469 1013.34,-344.469 1019.34,-350.469 1019.34,-356.469 1019.34,-356.469 1019.34,-548.469 1019.34,-548.469 1019.34,-554.469 1013.34,-560.469 1007.34,-560.469 1007.34,-560.469 925.131,-560.469 925.131,-560.469 919.131,-560.469 913.131,-554.469 913.131,-548.469 913.131,-548.469 913.131,-356.469 913.131,-356.469 913.131,-350.469 919.131,-344.469 925.131,-344.469"/>
<text text-anchor="middle" x="966.235" y="-542.469" font-family="Times,serif" font-size="14.00">PagesController</text>
<polyline fill="none" stroke="black" points="913.131,-535.669 1019.34,-535.669 "/>
<text text-anchor="start" x="921.131" y="-517.669" font-family="Times,serif" font-size="14.00">about</text>
<text text-anchor="start" x="921.131" y="-500.869" font-family="Times,serif" font-size="14.00">browse</text>
<text text-anchor="start" x="921.131" y="-484.069" font-family="Times,serif" font-size="14.00">careplan</text>
<text text-anchor="start" x="921.131" y="-467.269" font-family="Times,serif" font-size="14.00">clippings_home</text>
<text text-anchor="start" x="921.131" y="-450.469" font-family="Times,serif" font-size="14.00">contact</text>
<text text-anchor="start" x="921.131" y="-433.669" font-family="Times,serif" font-size="14.00">help</text>
<text text-anchor="start" x="921.131" y="-416.869" font-family="Times,serif" font-size="14.00">home</text>
<text text-anchor="start" x="921.131" y="-400.069" font-family="Times,serif" font-size="14.00">share</text>
<polyline fill="none" stroke="black" points="913.131,-393.269 1019.34,-393.269 "/>
<polyline fill="none" stroke="black" points="913.131,-369.269 1019.34,-369.269 "/>
<text text-anchor="start" x="921.131" y="-351.269" font-family="Times,serif" font-size="14.00">_layout</text>
</g>
<!-- ApplicationController&#45;&gt;PagesController -->
<g id="edge7" class="edge"><title>ApplicationController&#45;&gt;PagesController</title>
<path fill="none" stroke="black" d="M637.165,-559.506C722.858,-531.633 844.084,-492.201 912.952,-469.8"/>
</g>
<!-- ProblemsController -->
<g id="node10" class="node"><title>ProblemsController</title>
<path fill="none" stroke="black" d="M18.9529,-0.5C18.9529,-0.5 121.387,-0.5 121.387,-0.5 127.387,-0.5 133.387,-6.5 133.387,-12.5 133.387,-12.5 133.387,-187.7 133.387,-187.7 133.387,-193.7 127.387,-199.7 121.387,-199.7 121.387,-199.7 18.9529,-199.7 18.9529,-199.7 12.9529,-199.7 6.95292,-193.7 6.95292,-187.7 6.95292,-187.7 6.95292,-12.5 6.95292,-12.5 6.95292,-6.5 12.9529,-0.5 18.9529,-0.5"/>
<text text-anchor="middle" x="70.1702" y="-181.7" font-family="Times,serif" font-size="14.00">ProblemsController</text>
<polyline fill="none" stroke="black" points="6.95292,-174.9 133.387,-174.9 "/>
<text text-anchor="start" x="14.9529" y="-156.9" font-family="Times,serif" font-size="14.00">create</text>
<text text-anchor="start" x="14.9529" y="-140.1" font-family="Times,serif" font-size="14.00">destroy</text>
<text text-anchor="start" x="14.9529" y="-123.3" font-family="Times,serif" font-size="14.00">edit</text>
<text text-anchor="start" x="14.9529" y="-106.5" font-family="Times,serif" font-size="14.00">index</text>
<text text-anchor="start" x="14.9529" y="-89.7" font-family="Times,serif" font-size="14.00">new</text>
<text text-anchor="start" x="14.9529" y="-72.9" font-family="Times,serif" font-size="14.00">show</text>
<text text-anchor="start" x="14.9529" y="-56.1" font-family="Times,serif" font-size="14.00">update</text>
<polyline fill="none" stroke="black" points="6.95292,-49.3 133.387,-49.3 "/>
<polyline fill="none" stroke="black" points="6.95292,-25.3 133.387,-25.3 "/>
<text text-anchor="start" x="14.9529" y="-7.3" font-family="Times,serif" font-size="14.00">_layout</text>
</g>
<!-- ApplicationController&#45;&gt;ProblemsController -->
<g id="edge8" class="edge"><title>ApplicationController&#45;&gt;ProblemsController</title>
<path fill="none" stroke="black" d="M492.074,-542.02C407.284,-453.207 228.969,-266.433 133.567,-166.504"/>
</g>
<!-- RelationshipsController -->
<g id="node11" class="node"><title>RelationshipsController</title>
<path fill="none" stroke="black" d="M913.953,-32.6521C913.953,-32.6521 1099.59,-32.6521 1099.59,-32.6521 1105.59,-32.6521 1111.59,-38.6521 1111.59,-44.6521 1111.59,-44.6521 1111.59,-152.652 1111.59,-152.652 1111.59,-158.652 1105.59,-164.652 1099.59,-164.652 1099.59,-164.652 913.953,-164.652 913.953,-164.652 907.953,-164.652 901.953,-158.652 901.953,-152.652 901.953,-152.652 901.953,-44.6521 901.953,-44.6521 901.953,-38.6521 907.953,-32.6521 913.953,-32.6521"/>
<text text-anchor="middle" x="1006.77" y="-146.652" font-family="Times,serif" font-size="14.00">RelationshipsController</text>
<polyline fill="none" stroke="black" points="901.953,-139.852 1111.59,-139.852 "/>
<text text-anchor="start" x="909.953" y="-121.852" font-family="Times,serif" font-size="14.00">_one_time_conditions_valid_126?</text>
<text text-anchor="start" x="909.953" y="-105.052" font-family="Times,serif" font-size="14.00">create</text>
<text text-anchor="start" x="909.953" y="-88.2521" font-family="Times,serif" font-size="14.00">destroy</text>
<polyline fill="none" stroke="black" points="901.953,-81.4521 1111.59,-81.4521 "/>
<polyline fill="none" stroke="black" points="901.953,-57.4521 1111.59,-57.4521 "/>
<text text-anchor="start" x="909.953" y="-39.4521" font-family="Times,serif" font-size="14.00">_layout</text>
</g>
<!-- ApplicationController&#45;&gt;RelationshipsController -->
<g id="edge9" class="edge"><title>ApplicationController&#45;&gt;RelationshipsController</title>
<path fill="none" stroke="black" d="M586.167,-541.874C670.811,-452.678 848.948,-264.962 943.96,-164.84"/>
</g>
<!-- SessionsController -->
<g id="node12" class="node"><title>SessionsController</title>
<path fill="none" stroke="black" d="M621.636,-83.3278C621.636,-83.3278 719.415,-83.3278 719.415,-83.3278 725.415,-83.3278 731.415,-89.3278 731.415,-95.3278 731.415,-95.3278 731.415,-203.328 731.415,-203.328 731.415,-209.328 725.415,-215.328 719.415,-215.328 719.415,-215.328 621.636,-215.328 621.636,-215.328 615.636,-215.328 609.636,-209.328 609.636,-203.328 609.636,-203.328 609.636,-95.3278 609.636,-95.3278 609.636,-89.3278 615.636,-83.3278 621.636,-83.3278"/>
<text text-anchor="middle" x="670.525" y="-197.328" font-family="Times,serif" font-size="14.00">SessionsController</text>
<polyline fill="none" stroke="black" points="609.636,-190.528 731.415,-190.528 "/>
<text text-anchor="start" x="617.636" y="-172.528" font-family="Times,serif" font-size="14.00">create</text>
<text text-anchor="start" x="617.636" y="-155.728" font-family="Times,serif" font-size="14.00">destroy</text>
<text text-anchor="start" x="617.636" y="-138.928" font-family="Times,serif" font-size="14.00">new</text>
<polyline fill="none" stroke="black" points="609.636,-132.128 731.415,-132.128 "/>
<polyline fill="none" stroke="black" points="609.636,-108.128 731.415,-108.128 "/>
<text text-anchor="start" x="617.636" y="-90.1278" font-family="Times,serif" font-size="14.00">_layout</text>
</g>
<!-- ApplicationController&#45;&gt;SessionsController -->
<g id="edge10" class="edge"><title>ApplicationController&#45;&gt;SessionsController</title>
<path fill="none" stroke="black" d="M553.876,-541.953C577.571,-462.199 624.264,-305.038 650.825,-215.635"/>
</g>
<!-- TribesController -->
<g id="node13" class="node"><title>TribesController</title>
<path fill="none" stroke="black" d="M70.1393,-655.749C70.1393,-655.749 154.965,-655.749 154.965,-655.749 160.965,-655.749 166.965,-661.749 166.965,-667.749 166.965,-667.749 166.965,-792.549 166.965,-792.549 166.965,-798.549 160.965,-804.549 154.965,-804.549 154.965,-804.549 70.1393,-804.549 70.1393,-804.549 64.1393,-804.549 58.1393,-798.549 58.1393,-792.549 58.1393,-792.549 58.1393,-667.749 58.1393,-667.749 58.1393,-661.749 64.1393,-655.749 70.1393,-655.749"/>
<text text-anchor="middle" x="112.552" y="-786.549" font-family="Times,serif" font-size="14.00">TribesController</text>
<polyline fill="none" stroke="black" points="58.1393,-779.749 166.965,-779.749 "/>
<text text-anchor="start" x="66.1393" y="-761.749" font-family="Times,serif" font-size="14.00">create</text>
<text text-anchor="start" x="66.1393" y="-744.949" font-family="Times,serif" font-size="14.00">index</text>
<text text-anchor="start" x="66.1393" y="-728.149" font-family="Times,serif" font-size="14.00">new</text>
<text text-anchor="start" x="66.1393" y="-711.349" font-family="Times,serif" font-size="14.00">show</text>
<polyline fill="none" stroke="black" points="58.1393,-704.549 166.965,-704.549 "/>
<polyline fill="none" stroke="black" points="58.1393,-680.549 166.965,-680.549 "/>
<text text-anchor="start" x="66.1393" y="-662.549" font-family="Times,serif" font-size="14.00">_layout</text>
</g>
<!-- ApplicationController&#45;&gt;TribesController -->
<g id="edge11" class="edge"><title>ApplicationController&#45;&gt;TribesController</title>
<path fill="none" stroke="black" d="M441.313,-623.212C356.192,-650.899 235.979,-690.002 166.976,-712.446"/>
</g>
<!-- UsersController -->
<g id="node14" class="node"><title>UsersController</title>
<path fill="none" stroke="black" d="M870.812,-572.008C870.812,-572.008 1056.45,-572.008 1056.45,-572.008 1062.45,-572.008 1068.45,-578.008 1068.45,-584.008 1068.45,-584.008 1068.45,-876.808 1068.45,-876.808 1068.45,-882.808 1062.45,-888.808 1056.45,-888.808 1056.45,-888.808 870.812,-888.808 870.812,-888.808 864.812,-888.808 858.812,-882.808 858.812,-876.808 858.812,-876.808 858.812,-584.008 858.812,-584.008 858.812,-578.008 864.812,-572.008 870.812,-572.008"/>
<text text-anchor="middle" x="963.63" y="-870.808" font-family="Times,serif" font-size="14.00">UsersController</text>
<polyline fill="none" stroke="black" points="858.812,-864.008 1068.45,-864.008 "/>
<text text-anchor="start" x="866.812" y="-846.008" font-family="Times,serif" font-size="14.00">_one_time_conditions_valid_364?</text>
<text text-anchor="start" x="866.812" y="-829.208" font-family="Times,serif" font-size="14.00">_one_time_conditions_valid_368?</text>
<text text-anchor="start" x="866.812" y="-812.408" font-family="Times,serif" font-size="14.00">_one_time_conditions_valid_372?</text>
<text text-anchor="start" x="866.812" y="-795.608" font-family="Times,serif" font-size="14.00">create</text>
<text text-anchor="start" x="866.812" y="-778.808" font-family="Times,serif" font-size="14.00">destroy</text>
<text text-anchor="start" x="866.812" y="-762.008" font-family="Times,serif" font-size="14.00">edit</text>
<text text-anchor="start" x="866.812" y="-745.208" font-family="Times,serif" font-size="14.00">followers</text>
<text text-anchor="start" x="866.812" y="-728.408" font-family="Times,serif" font-size="14.00">following</text>
<text text-anchor="start" x="866.812" y="-711.608" font-family="Times,serif" font-size="14.00">index</text>
<text text-anchor="start" x="866.812" y="-694.808" font-family="Times,serif" font-size="14.00">new</text>
<text text-anchor="start" x="866.812" y="-678.008" font-family="Times,serif" font-size="14.00">show</text>
<text text-anchor="start" x="866.812" y="-661.208" font-family="Times,serif" font-size="14.00">update</text>
<polyline fill="none" stroke="black" points="858.812,-654.408 1068.45,-654.408 "/>
<polyline fill="none" stroke="black" points="858.812,-630.408 1068.45,-630.408 "/>
<text text-anchor="start" x="866.812" y="-612.408" font-family="Times,serif" font-size="14.00">_layout</text>
<text text-anchor="start" x="866.812" y="-595.608" font-family="Times,serif" font-size="14.00">admin_user</text>
<text text-anchor="start" x="866.812" y="-578.808" font-family="Times,serif" font-size="14.00">correct_user</text>
</g>
<!-- ApplicationController&#45;&gt;UsersController -->
<g id="edge12" class="edge"><title>ApplicationController&#45;&gt;UsersController</title>
<path fill="none" stroke="black" d="M637.1,-623.446C703.446,-645.179 791.037,-673.871 858.797,-696.067"/>
</g>
</g>
</svg>
