<?xml version="1.0" encoding="UTF-8" standalone="no"?>
<!DOCTYPE svg PUBLIC "-//W3C//DTD SVG 1.1//EN"
 "http://www.w3.org/Graphics/SVG/1.1/DTD/svg11.dtd">
<!-- Generated by graphviz version 2.29.20121115.0545 (20121115.0545)
 -->
<!-- Title: controllers_diagram Pages: 1 -->
<svg width="844pt" height="898pt"
 viewBox="0.00 0.00 844.42 897.57" xmlns="http://www.w3.org/2000/svg" xmlns:xlink="http://www.w3.org/1999/xlink">
<g id="graph0" class="graph" transform="scale(1 1) rotate(0) translate(4 893.571)">
<title>controllers_diagram</title>
<polygon fill="white" stroke="white" points="-4,5 -4,-893.571 841.423,-893.571 841.423,5 -4,5"/>
<!-- _diagram_info -->
<g id="node1" class="node"><title>_diagram_info</title>
<text text-anchor="start" x="638" y="-132" font-family="Times,serif" font-size="13.00">Controllers diagram</text>
<text text-anchor="start" x="638" y="-116.4" font-family="Times,serif" font-size="13.00">Date: Nov 15 2012 &#45; 17:20</text>
<text text-anchor="start" x="638" y="-100.8" font-family="Times,serif" font-size="13.00">Migration version: 20121115055226</text>
<text text-anchor="start" x="638" y="-85.2" font-family="Times,serif" font-size="13.00">Generated by RailRoady 1.1.0</text>
<text text-anchor="start" x="638" y="-69.6" font-family="Times,serif" font-size="13.00">http://railroady.prestonlee.com</text>
</g>
<!-- ApplicationController -->
<g id="node2" class="node"><title>ApplicationController</title>
<path fill="none" stroke="black" d="M266.528,-383.971C266.528,-383.971 445.163,-383.971 445.163,-383.971 451.163,-383.971 457.163,-389.971 457.163,-395.971 457.163,-395.971 457.163,-487.171 457.163,-487.171 457.163,-493.171 451.163,-499.171 445.163,-499.171 445.163,-499.171 266.528,-499.171 266.528,-499.171 260.528,-499.171 254.528,-493.171 254.528,-487.171 254.528,-487.171 254.528,-395.971 254.528,-395.971 254.528,-389.971 260.528,-383.971 266.528,-383.971"/>
<text text-anchor="middle" x="355.845" y="-481.171" font-family="Times,serif" font-size="14.00">ApplicationController</text>
<polyline fill="none" stroke="black" points="254.528,-474.371 457.163,-474.371 "/>
<text text-anchor="start" x="262.528" y="-456.371" font-family="Times,serif" font-size="14.00">_one_time_conditions_valid_12?</text>
<polyline fill="none" stroke="black" points="254.528,-449.571 457.163,-449.571 "/>
<polyline fill="none" stroke="black" points="254.528,-425.571 457.163,-425.571 "/>
<text text-anchor="start" x="262.528" y="-407.571" font-family="Times,serif" font-size="14.00">_layout</text>
<text text-anchor="start" x="262.528" y="-390.771" font-family="Times,serif" font-size="14.00">_run_process_action_callbacks</text>
</g>
<!-- ClippingsController -->
<g id="node3" class="node"><title>ClippingsController</title>
<path fill="none" stroke="black" d="M508.801,-432.581C508.801,-432.581 687.436,-432.581 687.436,-432.581 693.436,-432.581 699.436,-438.581 699.436,-444.581 699.436,-444.581 699.436,-670.181 699.436,-670.181 699.436,-676.181 693.436,-682.181 687.436,-682.181 687.436,-682.181 508.801,-682.181 508.801,-682.181 502.801,-682.181 496.801,-676.181 496.801,-670.181 496.801,-670.181 496.801,-444.581 496.801,-444.581 496.801,-438.581 502.801,-432.581 508.801,-432.581"/>
<text text-anchor="middle" x="598.119" y="-664.181" font-family="Times,serif" font-size="14.00">ClippingsController</text>
<polyline fill="none" stroke="black" points="496.801,-657.381 699.436,-657.381 "/>
<text text-anchor="start" x="504.801" y="-639.381" font-family="Times,serif" font-size="14.00">_one_time_conditions_valid_46?</text>
<text text-anchor="start" x="504.801" y="-622.581" font-family="Times,serif" font-size="14.00">create</text>
<text text-anchor="start" x="504.801" y="-605.781" font-family="Times,serif" font-size="14.00">destroy</text>
<text text-anchor="start" x="504.801" y="-588.981" font-family="Times,serif" font-size="14.00">edit</text>
<text text-anchor="start" x="504.801" y="-572.181" font-family="Times,serif" font-size="14.00">get</text>
<text text-anchor="start" x="504.801" y="-555.381" font-family="Times,serif" font-size="14.00">index</text>
<text text-anchor="start" x="504.801" y="-538.581" font-family="Times,serif" font-size="14.00">new</text>
<text text-anchor="start" x="504.801" y="-521.781" font-family="Times,serif" font-size="14.00">show</text>
<text text-anchor="start" x="504.801" y="-504.981" font-family="Times,serif" font-size="14.00">update</text>
<polyline fill="none" stroke="black" points="496.801,-498.181 699.436,-498.181 "/>
<polyline fill="none" stroke="black" points="496.801,-474.181 699.436,-474.181 "/>
<text text-anchor="start" x="504.801" y="-456.181" font-family="Times,serif" font-size="14.00">_layout</text>
<text text-anchor="start" x="504.801" y="-439.381" font-family="Times,serif" font-size="14.00">_run_process_action_callbacks</text>
</g>
<!-- ApplicationController&#45;&gt;ClippingsController -->
<g id="edge1" class="edge"><title>ApplicationController&#45;&gt;ClippingsController</title>
<path fill="none" stroke="black" d="M457.187,-490.014C470.284,-496.274 483.697,-502.686 496.793,-508.946"/>
</g>
<!-- FoldersController -->
<g id="node4" class="node"><title>FoldersController</title>
<path fill="none" stroke="black" d="M44.4551,-84.4667C44.4551,-84.4667 223.09,-84.4667 223.09,-84.4667 229.09,-84.4667 235.09,-90.4667 235.09,-96.4667 235.09,-96.4667 235.09,-305.267 235.09,-305.267 235.09,-311.267 229.09,-317.267 223.09,-317.267 223.09,-317.267 44.4551,-317.267 44.4551,-317.267 38.4551,-317.267 32.4551,-311.267 32.4551,-305.267 32.4551,-305.267 32.4551,-96.4667 32.4551,-96.4667 32.4551,-90.4667 38.4551,-84.4667 44.4551,-84.4667"/>
<text text-anchor="middle" x="133.772" y="-299.267" font-family="Times,serif" font-size="14.00">FoldersController</text>
<polyline fill="none" stroke="black" points="32.4551,-292.467 235.09,-292.467 "/>
<text text-anchor="start" x="40.4551" y="-274.467" font-family="Times,serif" font-size="14.00">_one_time_conditions_valid_84?</text>
<text text-anchor="start" x="40.4551" y="-257.667" font-family="Times,serif" font-size="14.00">create</text>
<text text-anchor="start" x="40.4551" y="-240.867" font-family="Times,serif" font-size="14.00">destroy</text>
<text text-anchor="start" x="40.4551" y="-224.067" font-family="Times,serif" font-size="14.00">edit</text>
<text text-anchor="start" x="40.4551" y="-207.267" font-family="Times,serif" font-size="14.00">index</text>
<text text-anchor="start" x="40.4551" y="-190.467" font-family="Times,serif" font-size="14.00">new</text>
<text text-anchor="start" x="40.4551" y="-173.667" font-family="Times,serif" font-size="14.00">show</text>
<text text-anchor="start" x="40.4551" y="-156.867" font-family="Times,serif" font-size="14.00">update</text>
<polyline fill="none" stroke="black" points="32.4551,-150.067 235.09,-150.067 "/>
<polyline fill="none" stroke="black" points="32.4551,-126.067 235.09,-126.067 "/>
<text text-anchor="start" x="40.4551" y="-108.067" font-family="Times,serif" font-size="14.00">_layout</text>
<text text-anchor="start" x="40.4551" y="-91.2667" font-family="Times,serif" font-size="14.00">_run_process_action_callbacks</text>
</g>
<!-- ApplicationController&#45;&gt;FoldersController -->
<g id="edge2" class="edge"><title>ApplicationController&#45;&gt;FoldersController</title>
<path fill="none" stroke="black" d="M302.653,-383.916C282.379,-361.941 258.536,-336.097 235.256,-310.864"/>
</g>
<!-- MicropostsController -->
<g id="node5" class="node"><title>MicropostsController</title>
<path fill="none" stroke="black" d="M12,-682.945C12,-682.945 190.635,-682.945 190.635,-682.945 196.635,-682.945 202.635,-688.945 202.635,-694.945 202.635,-694.945 202.635,-870.145 202.635,-870.145 202.635,-876.145 196.635,-882.145 190.635,-882.145 190.635,-882.145 12,-882.145 12,-882.145 6,-882.145 0,-876.145 0,-870.145 0,-870.145 0,-694.945 0,-694.945 0,-688.945 6,-682.945 12,-682.945"/>
<text text-anchor="middle" x="101.317" y="-864.145" font-family="Times,serif" font-size="14.00">MicropostsController</text>
<polyline fill="none" stroke="black" points="0,-857.345 202.635,-857.345 "/>
<text text-anchor="start" x="8" y="-839.345" font-family="Times,serif" font-size="14.00">_one_time_conditions_valid_94?</text>
<text text-anchor="start" x="8" y="-822.545" font-family="Times,serif" font-size="14.00">_one_time_conditions_valid_98?</text>
<text text-anchor="start" x="8" y="-805.745" font-family="Times,serif" font-size="14.00">create</text>
<text text-anchor="start" x="8" y="-788.945" font-family="Times,serif" font-size="14.00">destroy</text>
<text text-anchor="start" x="8" y="-772.145" font-family="Times,serif" font-size="14.00">index</text>
<polyline fill="none" stroke="black" points="0,-765.345 202.635,-765.345 "/>
<polyline fill="none" stroke="black" points="0,-741.345 202.635,-741.345 "/>
<text text-anchor="start" x="8" y="-723.345" font-family="Times,serif" font-size="14.00">_layout</text>
<text text-anchor="start" x="8" y="-706.545" font-family="Times,serif" font-size="14.00">_run_process_action_callbacks</text>
<text text-anchor="start" x="8" y="-689.745" font-family="Times,serif" font-size="14.00">authorized_user</text>
</g>
<!-- ApplicationController&#45;&gt;MicropostsController -->
<g id="edge3" class="edge"><title>ApplicationController&#45;&gt;MicropostsController</title>
<path fill="none" stroke="black" d="M312.668,-499.412C275.224,-549.573 220.203,-623.282 175.686,-682.919"/>
</g>
<!-- PagesController -->
<g id="node6" class="node"><title>PagesController</title>
<path fill="none" stroke="black" d="M562.877,-723.471C562.877,-723.471 645.084,-723.471 645.084,-723.471 651.084,-723.471 657.084,-729.471 657.084,-735.471 657.084,-735.471 657.084,-877.071 657.084,-877.071 657.084,-883.071 651.084,-889.071 645.084,-889.071 645.084,-889.071 562.877,-889.071 562.877,-889.071 556.877,-889.071 550.877,-883.071 550.877,-877.071 550.877,-877.071 550.877,-735.471 550.877,-735.471 550.877,-729.471 556.877,-723.471 562.877,-723.471"/>
<text text-anchor="middle" x="603.981" y="-871.071" font-family="Times,serif" font-size="14.00">PagesController</text>
<polyline fill="none" stroke="black" points="550.877,-864.271 657.084,-864.271 "/>
<text text-anchor="start" x="558.877" y="-846.271" font-family="Times,serif" font-size="14.00">about</text>
<text text-anchor="start" x="558.877" y="-829.471" font-family="Times,serif" font-size="14.00">browse</text>
<text text-anchor="start" x="558.877" y="-812.671" font-family="Times,serif" font-size="14.00">contact</text>
<text text-anchor="start" x="558.877" y="-795.871" font-family="Times,serif" font-size="14.00">help</text>
<text text-anchor="start" x="558.877" y="-779.071" font-family="Times,serif" font-size="14.00">home</text>
<polyline fill="none" stroke="black" points="550.877,-772.271 657.084,-772.271 "/>
<polyline fill="none" stroke="black" points="550.877,-748.271 657.084,-748.271 "/>
<text text-anchor="start" x="558.877" y="-730.271" font-family="Times,serif" font-size="14.00">_layout</text>
</g>
<!-- ApplicationController&#45;&gt;PagesController -->
<g id="edge4" class="edge"><title>ApplicationController&#45;&gt;PagesController</title>
<path fill="none" stroke="black" d="M383.854,-499.465C409.536,-550.319 450.093,-625.348 493.601,-685.381 510.613,-708.853 531.591,-732.813 550.675,-753.145"/>
</g>
<!-- RelationshipsController -->
<g id="node7" class="node"><title>RelationshipsController</title>
<path fill="none" stroke="black" d="M254.113,-683.748C254.113,-683.748 439.235,-683.748 439.235,-683.748 445.235,-683.748 451.235,-689.748 451.235,-695.748 451.235,-695.748 451.235,-820.548 451.235,-820.548 451.235,-826.548 445.235,-832.548 439.235,-832.548 439.235,-832.548 254.113,-832.548 254.113,-832.548 248.113,-832.548 242.113,-826.548 242.113,-820.548 242.113,-820.548 242.113,-695.748 242.113,-695.748 242.113,-689.748 248.113,-683.748 254.113,-683.748"/>
<text text-anchor="middle" x="346.674" y="-814.548" font-family="Times,serif" font-size="14.00">RelationshipsController</text>
<polyline fill="none" stroke="black" points="242.113,-807.748 451.235,-807.748 "/>
<text text-anchor="start" x="250.113" y="-789.748" font-family="Times,serif" font-size="14.00">_one_time_conditions_valid_110?</text>
<text text-anchor="start" x="250.113" y="-772.948" font-family="Times,serif" font-size="14.00">create</text>
<text text-anchor="start" x="250.113" y="-756.148" font-family="Times,serif" font-size="14.00">destroy</text>
<polyline fill="none" stroke="black" points="242.113,-749.348 451.235,-749.348 "/>
<polyline fill="none" stroke="black" points="242.113,-725.348 451.235,-725.348 "/>
<text text-anchor="start" x="250.113" y="-707.348" font-family="Times,serif" font-size="14.00">_layout</text>
<text text-anchor="start" x="250.113" y="-690.548" font-family="Times,serif" font-size="14.00">_run_process_action_callbacks</text>
</g>
<!-- ApplicationController&#45;&gt;RelationshipsController -->
<g id="edge5" class="edge"><title>ApplicationController&#45;&gt;RelationshipsController</title>
<path fill="none" stroke="black" d="M354.174,-499.268C352.675,-550.987 350.468,-627.171 348.836,-683.513"/>
</g>
<!-- SessionsController -->
<g id="node8" class="node"><title>SessionsController</title>
<path fill="none" stroke="black" d="M52.2297,-425.237C52.2297,-425.237 150.009,-425.237 150.009,-425.237 156.009,-425.237 162.009,-431.237 162.009,-437.237 162.009,-437.237 162.009,-545.237 162.009,-545.237 162.009,-551.237 156.009,-557.237 150.009,-557.237 150.009,-557.237 52.2297,-557.237 52.2297,-557.237 46.2297,-557.237 40.2297,-551.237 40.2297,-545.237 40.2297,-545.237 40.2297,-437.237 40.2297,-437.237 40.2297,-431.237 46.2297,-425.237 52.2297,-425.237"/>
<text text-anchor="middle" x="101.119" y="-539.237" font-family="Times,serif" font-size="14.00">SessionsController</text>
<polyline fill="none" stroke="black" points="40.2297,-532.437 162.009,-532.437 "/>
<text text-anchor="start" x="48.2297" y="-514.437" font-family="Times,serif" font-size="14.00">create</text>
<text text-anchor="start" x="48.2297" y="-497.637" font-family="Times,serif" font-size="14.00">destroy</text>
<text text-anchor="start" x="48.2297" y="-480.837" font-family="Times,serif" font-size="14.00">new</text>
<polyline fill="none" stroke="black" points="40.2297,-474.037 162.009,-474.037 "/>
<polyline fill="none" stroke="black" points="40.2297,-450.037 162.009,-450.037 "/>
<text text-anchor="start" x="48.2297" y="-432.037" font-family="Times,serif" font-size="14.00">_layout</text>
</g>
<!-- ApplicationController&#45;&gt;SessionsController -->
<g id="edge6" class="edge"><title>ApplicationController&#45;&gt;SessionsController</title>
<path fill="none" stroke="black" d="M254.439,-461.343C223.222,-467.429 189.833,-473.94 162.21,-479.326"/>
</g>
<!-- TribesController -->
<g id="node9" class="node"><title>TribesController</title>
<path fill="none" stroke="black" d="M601.968,-207.534C601.968,-207.534 686.793,-207.534 686.793,-207.534 692.793,-207.534 698.793,-213.534 698.793,-219.534 698.793,-219.534 698.793,-344.334 698.793,-344.334 698.793,-350.334 692.793,-356.334 686.793,-356.334 686.793,-356.334 601.968,-356.334 601.968,-356.334 595.968,-356.334 589.968,-350.334 589.968,-344.334 589.968,-344.334 589.968,-219.534 589.968,-219.534 589.968,-213.534 595.968,-207.534 601.968,-207.534"/>
<text text-anchor="middle" x="644.38" y="-338.334" font-family="Times,serif" font-size="14.00">TribesController</text>
<polyline fill="none" stroke="black" points="589.968,-331.534 698.793,-331.534 "/>
<text text-anchor="start" x="597.968" y="-313.534" font-family="Times,serif" font-size="14.00">create</text>
<text text-anchor="start" x="597.968" y="-296.734" font-family="Times,serif" font-size="14.00">index</text>
<text text-anchor="start" x="597.968" y="-279.934" font-family="Times,serif" font-size="14.00">new</text>
<text text-anchor="start" x="597.968" y="-263.134" font-family="Times,serif" font-size="14.00">show</text>
<polyline fill="none" stroke="black" points="589.968,-256.334 698.793,-256.334 "/>
<polyline fill="none" stroke="black" points="589.968,-232.334 698.793,-232.334 "/>
<text text-anchor="start" x="597.968" y="-214.334" font-family="Times,serif" font-size="14.00">_layout</text>
</g>
<!-- ApplicationController&#45;&gt;TribesController -->
<g id="edge7" class="edge"><title>ApplicationController&#45;&gt;TribesController</title>
<path fill="none" stroke="black" d="M457.205,-393.539C491.098,-376.645 528.761,-356.954 562.267,-337.3 571.314,-331.993 580.711,-326.072 589.779,-320.13"/>
</g>
<!-- UsersController -->
<g id="node10" class="node"><title>UsersController</title>
<path fill="none" stroke="black" d="M361.432,-0.5C361.432,-0.5 547.067,-0.5 547.067,-0.5 553.067,-0.5 559.067,-6.5 559.067,-12.5 559.067,-12.5 559.067,-322.1 559.067,-322.1 559.067,-328.1 553.067,-334.1 547.067,-334.1 547.067,-334.1 361.432,-334.1 361.432,-334.1 355.432,-334.1 349.432,-328.1 349.432,-322.1 349.432,-322.1 349.432,-12.5 349.432,-12.5 349.432,-6.5 355.432,-0.5 361.432,-0.5"/>
<text text-anchor="middle" x="454.25" y="-316.1" font-family="Times,serif" font-size="14.00">UsersController</text>
<polyline fill="none" stroke="black" points="349.432,-309.3 559.067,-309.3 "/>
<text text-anchor="start" x="357.432" y="-291.3" font-family="Times,serif" font-size="14.00">_one_time_conditions_valid_252?</text>
<text text-anchor="start" x="357.432" y="-274.5" font-family="Times,serif" font-size="14.00">_one_time_conditions_valid_256?</text>
<text text-anchor="start" x="357.432" y="-257.7" font-family="Times,serif" font-size="14.00">_one_time_conditions_valid_260?</text>
<text text-anchor="start" x="357.432" y="-240.9" font-family="Times,serif" font-size="14.00">create</text>
<text text-anchor="start" x="357.432" y="-224.1" font-family="Times,serif" font-size="14.00">destroy</text>
<text text-anchor="start" x="357.432" y="-207.3" font-family="Times,serif" font-size="14.00">edit</text>
<text text-anchor="start" x="357.432" y="-190.5" font-family="Times,serif" font-size="14.00">followers</text>
<text text-anchor="start" x="357.432" y="-173.7" font-family="Times,serif" font-size="14.00">following</text>
<text text-anchor="start" x="357.432" y="-156.9" font-family="Times,serif" font-size="14.00">index</text>
<text text-anchor="start" x="357.432" y="-140.1" font-family="Times,serif" font-size="14.00">new</text>
<text text-anchor="start" x="357.432" y="-123.3" font-family="Times,serif" font-size="14.00">show</text>
<text text-anchor="start" x="357.432" y="-106.5" font-family="Times,serif" font-size="14.00">update</text>
<polyline fill="none" stroke="black" points="349.432,-99.7 559.067,-99.7 "/>
<polyline fill="none" stroke="black" points="349.432,-75.7 559.067,-75.7 "/>
<text text-anchor="start" x="357.432" y="-57.7" font-family="Times,serif" font-size="14.00">_layout</text>
<text text-anchor="start" x="357.432" y="-40.9" font-family="Times,serif" font-size="14.00">_run_process_action_callbacks</text>
<text text-anchor="start" x="357.432" y="-24.1" font-family="Times,serif" font-size="14.00">admin_user</text>
<text text-anchor="start" x="357.432" y="-7.3" font-family="Times,serif" font-size="14.00">correct_user</text>
</g>
<!-- ApplicationController&#45;&gt;UsersController -->
<g id="edge8" class="edge"><title>ApplicationController&#45;&gt;UsersController</title>
<path fill="none" stroke="black" d="M376.594,-383.74C381.979,-368.731 388.057,-351.791 394.382,-334.162"/>
</g>
</g>
</svg>
