<?xml version="1.0" encoding="UTF-8" standalone="no"?>
<!DOCTYPE svg PUBLIC "-//W3C//DTD SVG 1.1//EN"
 "http://www.w3.org/Graphics/SVG/1.1/DTD/svg11.dtd">
<!-- Generated by graphviz version 2.29.20121115.0545 (20121115.0545)
 -->
<!-- Title: controllers_diagram Pages: 1 -->
<svg width="923pt" height="836pt"
 viewBox="0.00 0.00 923.38 836.18" xmlns="http://www.w3.org/2000/svg" xmlns:xlink="http://www.w3.org/1999/xlink">
<g id="graph0" class="graph" transform="scale(1 1) rotate(0) translate(4 832.176)">
<title>controllers_diagram</title>
<polygon fill="white" stroke="white" points="-4,5 -4,-832.176 920.375,-832.176 920.375,5 -4,5"/>
<!-- _diagram_info -->
<g id="node1" class="node"><title>_diagram_info</title>
<text text-anchor="start" x="716" y="-128" font-family="Times,serif" font-size="13.00">Controllers diagram</text>
<text text-anchor="start" x="716" y="-112.4" font-family="Times,serif" font-size="13.00">Date: Dec 18 2012 &#45; 00:53</text>
<text text-anchor="start" x="716" y="-96.8" font-family="Times,serif" font-size="13.00">Migration version: 20121215055645</text>
<text text-anchor="start" x="716" y="-81.2" font-family="Times,serif" font-size="13.00">Generated by RailRoady 1.1.0</text>
<text text-anchor="start" x="716" y="-65.6" font-family="Times,serif" font-size="13.00">http://railroady.prestonlee.com</text>
</g>
<!-- ApplicationController -->
<g id="node2" class="node"><title>ApplicationController</title>
<path fill="none" stroke="black" d="M249.022,-362.776C249.022,-362.776 420.657,-362.776 420.657,-362.776 426.657,-362.776 432.657,-368.776 432.657,-374.776 432.657,-374.776 432.657,-449.176 432.657,-449.176 432.657,-455.176 426.657,-461.176 420.657,-461.176 420.657,-461.176 249.022,-461.176 249.022,-461.176 243.022,-461.176 237.022,-455.176 237.022,-449.176 237.022,-449.176 237.022,-374.776 237.022,-374.776 237.022,-368.776 243.022,-362.776 249.022,-362.776"/>
<text text-anchor="middle" x="334.84" y="-443.176" font-family="Times,serif" font-size="14.00">ApplicationController</text>
<polyline fill="none" stroke="black" points="237.022,-436.376 432.657,-436.376 "/>
<text text-anchor="start" x="245.022" y="-418.376" font-family="Times,serif" font-size="14.00">_one_time_conditions_valid_8?</text>
<polyline fill="none" stroke="black" points="237.022,-411.576 432.657,-411.576 "/>
<polyline fill="none" stroke="black" points="237.022,-387.576 432.657,-387.576 "/>
<text text-anchor="start" x="245.022" y="-369.576" font-family="Times,serif" font-size="14.00">_layout</text>
</g>
<!-- ClippingsController -->
<g id="node3" class="node"><title>ClippingsController</title>
<path fill="none" stroke="black" d="M472.291,-363.067C472.291,-363.067 650.926,-363.067 650.926,-363.067 656.926,-363.067 662.926,-369.067 662.926,-375.067 662.926,-375.067 662.926,-583.867 662.926,-583.867 662.926,-589.867 656.926,-595.867 650.926,-595.867 650.926,-595.867 472.291,-595.867 472.291,-595.867 466.291,-595.867 460.291,-589.867 460.291,-583.867 460.291,-583.867 460.291,-375.067 460.291,-375.067 460.291,-369.067 466.291,-363.067 472.291,-363.067"/>
<text text-anchor="middle" x="561.608" y="-577.867" font-family="Times,serif" font-size="14.00">ClippingsController</text>
<polyline fill="none" stroke="black" points="460.291,-571.067 662.926,-571.067 "/>
<text text-anchor="start" x="468.291" y="-553.067" font-family="Times,serif" font-size="14.00">_one_time_conditions_valid_34?</text>
<text text-anchor="start" x="468.291" y="-536.267" font-family="Times,serif" font-size="14.00">create</text>
<text text-anchor="start" x="468.291" y="-519.467" font-family="Times,serif" font-size="14.00">destroy</text>
<text text-anchor="start" x="468.291" y="-502.667" font-family="Times,serif" font-size="14.00">edit</text>
<text text-anchor="start" x="468.291" y="-485.867" font-family="Times,serif" font-size="14.00">get</text>
<text text-anchor="start" x="468.291" y="-469.067" font-family="Times,serif" font-size="14.00">index</text>
<text text-anchor="start" x="468.291" y="-452.267" font-family="Times,serif" font-size="14.00">new</text>
<text text-anchor="start" x="468.291" y="-435.467" font-family="Times,serif" font-size="14.00">show</text>
<text text-anchor="start" x="468.291" y="-418.667" font-family="Times,serif" font-size="14.00">update</text>
<polyline fill="none" stroke="black" points="460.291,-411.867 662.926,-411.867 "/>
<polyline fill="none" stroke="black" points="460.291,-387.867 662.926,-387.867 "/>
<text text-anchor="start" x="468.291" y="-369.867" font-family="Times,serif" font-size="14.00">_layout</text>
</g>
<!-- ApplicationController&#45;&gt;ClippingsController -->
<g id="edge1" class="edge"><title>ApplicationController&#45;&gt;ClippingsController</title>
<path fill="none" stroke="black" d="M432.985,-441.186C441.962,-443.857 451.07,-446.568 460.076,-449.249"/>
</g>
<!-- FoldersController -->
<g id="node4" class="node"><title>FoldersController</title>
<path fill="none" stroke="black" d="M24.5155,-70.7913C24.5155,-70.7913 203.15,-70.7913 203.15,-70.7913 209.15,-70.7913 215.15,-76.7913 215.15,-82.7913 215.15,-82.7913 215.15,-274.791 215.15,-274.791 215.15,-280.791 209.15,-286.791 203.15,-286.791 203.15,-286.791 24.5155,-286.791 24.5155,-286.791 18.5155,-286.791 12.5155,-280.791 12.5155,-274.791 12.5155,-274.791 12.5155,-82.7913 12.5155,-82.7913 12.5155,-76.7913 18.5155,-70.7913 24.5155,-70.7913"/>
<text text-anchor="middle" x="113.833" y="-268.791" font-family="Times,serif" font-size="14.00">FoldersController</text>
<polyline fill="none" stroke="black" points="12.5155,-261.991 215.15,-261.991 "/>
<text text-anchor="start" x="20.5155" y="-243.991" font-family="Times,serif" font-size="14.00">_one_time_conditions_valid_86?</text>
<text text-anchor="start" x="20.5155" y="-227.191" font-family="Times,serif" font-size="14.00">create</text>
<text text-anchor="start" x="20.5155" y="-210.391" font-family="Times,serif" font-size="14.00">destroy</text>
<text text-anchor="start" x="20.5155" y="-193.591" font-family="Times,serif" font-size="14.00">edit</text>
<text text-anchor="start" x="20.5155" y="-176.791" font-family="Times,serif" font-size="14.00">index</text>
<text text-anchor="start" x="20.5155" y="-159.991" font-family="Times,serif" font-size="14.00">new</text>
<text text-anchor="start" x="20.5155" y="-143.191" font-family="Times,serif" font-size="14.00">show</text>
<text text-anchor="start" x="20.5155" y="-126.391" font-family="Times,serif" font-size="14.00">update</text>
<polyline fill="none" stroke="black" points="12.5155,-119.591 215.15,-119.591 "/>
<polyline fill="none" stroke="black" points="12.5155,-95.5913 215.15,-95.5913 "/>
<text text-anchor="start" x="20.5155" y="-77.5913" font-family="Times,serif" font-size="14.00">_layout</text>
</g>
<!-- ApplicationController&#45;&gt;FoldersController -->
<g id="edge2" class="edge"><title>ApplicationController&#45;&gt;FoldersController</title>
<path fill="none" stroke="black" d="M287.97,-362.523C266.683,-340.063 240.617,-312.561 215.2,-285.744"/>
</g>
<!-- MicropostsController -->
<g id="node5" class="node"><title>MicropostsController</title>
<path fill="none" stroke="black" d="M12,-630.633C12,-630.633 190.635,-630.633 190.635,-630.633 196.635,-630.633 202.635,-636.633 202.635,-642.633 202.635,-642.633 202.635,-784.233 202.635,-784.233 202.635,-790.233 196.635,-796.233 190.635,-796.233 190.635,-796.233 12,-796.233 12,-796.233 6,-796.233 5.68434e-14,-790.233 5.68434e-14,-784.233 5.68434e-14,-784.233 5.68434e-14,-642.633 5.68434e-14,-642.633 5.68434e-14,-636.633 6,-630.633 12,-630.633"/>
<text text-anchor="middle" x="101.317" y="-778.233" font-family="Times,serif" font-size="14.00">MicropostsController</text>
<polyline fill="none" stroke="black" points="5.68434e-14,-771.433 202.635,-771.433 "/>
<text text-anchor="start" x="8" y="-753.433" font-family="Times,serif" font-size="14.00">_one_time_conditions_valid_96?</text>
<text text-anchor="start" x="8" y="-736.633" font-family="Times,serif" font-size="14.00">_one_time_conditions_valid_98?</text>
<text text-anchor="start" x="8" y="-719.833" font-family="Times,serif" font-size="14.00">create</text>
<text text-anchor="start" x="8" y="-703.033" font-family="Times,serif" font-size="14.00">destroy</text>
<polyline fill="none" stroke="black" points="5.68434e-14,-696.233 202.635,-696.233 "/>
<polyline fill="none" stroke="black" points="5.68434e-14,-672.233 202.635,-672.233 "/>
<text text-anchor="start" x="8" y="-654.233" font-family="Times,serif" font-size="14.00">_layout</text>
<text text-anchor="start" x="8" y="-637.433" font-family="Times,serif" font-size="14.00">correct_user</text>
</g>
<!-- ApplicationController&#45;&gt;MicropostsController -->
<g id="edge3" class="edge"><title>ApplicationController&#45;&gt;MicropostsController</title>
<path fill="none" stroke="black" d="M296.54,-461.418C261.086,-507.186 207.668,-576.143 165.668,-630.362"/>
</g>
<!-- PagesController -->
<g id="node6" class="node"><title>PagesController</title>
<path fill="none" stroke="black" d="M519.357,-628.476C519.357,-628.476 601.564,-628.476 601.564,-628.476 607.564,-628.476 613.564,-634.476 613.564,-640.476 613.564,-640.476 613.564,-815.676 613.564,-815.676 613.564,-821.676 607.564,-827.676 601.564,-827.676 601.564,-827.676 519.357,-827.676 519.357,-827.676 513.357,-827.676 507.357,-821.676 507.357,-815.676 507.357,-815.676 507.357,-640.476 507.357,-640.476 507.357,-634.476 513.357,-628.476 519.357,-628.476"/>
<text text-anchor="middle" x="560.46" y="-809.676" font-family="Times,serif" font-size="14.00">PagesController</text>
<polyline fill="none" stroke="black" points="507.357,-802.876 613.564,-802.876 "/>
<text text-anchor="start" x="515.357" y="-784.876" font-family="Times,serif" font-size="14.00">about</text>
<text text-anchor="start" x="515.357" y="-768.076" font-family="Times,serif" font-size="14.00">browse</text>
<text text-anchor="start" x="515.357" y="-751.276" font-family="Times,serif" font-size="14.00">clippings_home</text>
<text text-anchor="start" x="515.357" y="-734.476" font-family="Times,serif" font-size="14.00">contact</text>
<text text-anchor="start" x="515.357" y="-717.676" font-family="Times,serif" font-size="14.00">help</text>
<text text-anchor="start" x="515.357" y="-700.876" font-family="Times,serif" font-size="14.00">home</text>
<text text-anchor="start" x="515.357" y="-684.076" font-family="Times,serif" font-size="14.00">share</text>
<polyline fill="none" stroke="black" points="507.357,-677.276 613.564,-677.276 "/>
<polyline fill="none" stroke="black" points="507.357,-653.276 613.564,-653.276 "/>
<text text-anchor="start" x="515.357" y="-635.276" font-family="Times,serif" font-size="14.00">_layout</text>
</g>
<!-- ApplicationController&#45;&gt;PagesController -->
<g id="edge4" class="edge"><title>ApplicationController&#45;&gt;PagesController</title>
<path fill="none" stroke="black" d="M365.238,-461.301C389.24,-499.54 424.075,-553.512 457.091,-599.067 472.754,-620.679 490.679,-643.614 507.155,-664.059"/>
</g>
<!-- RelationshipsController -->
<g id="node7" class="node"><title>RelationshipsController</title>
<path fill="none" stroke="black" d="M234.671,-628.681C234.671,-628.681 419.793,-628.681 419.793,-628.681 425.793,-628.681 431.793,-634.681 431.793,-640.681 431.793,-640.681 431.793,-748.681 431.793,-748.681 431.793,-754.681 425.793,-760.681 419.793,-760.681 419.793,-760.681 234.671,-760.681 234.671,-760.681 228.671,-760.681 222.671,-754.681 222.671,-748.681 222.671,-748.681 222.671,-640.681 222.671,-640.681 222.671,-634.681 228.671,-628.681 234.671,-628.681"/>
<text text-anchor="middle" x="327.232" y="-742.681" font-family="Times,serif" font-size="14.00">RelationshipsController</text>
<polyline fill="none" stroke="black" points="222.671,-735.881 431.793,-735.881 "/>
<text text-anchor="start" x="230.671" y="-717.881" font-family="Times,serif" font-size="14.00">_one_time_conditions_valid_110?</text>
<text text-anchor="start" x="230.671" y="-701.081" font-family="Times,serif" font-size="14.00">create</text>
<text text-anchor="start" x="230.671" y="-684.281" font-family="Times,serif" font-size="14.00">destroy</text>
<polyline fill="none" stroke="black" points="222.671,-677.481 431.793,-677.481 "/>
<polyline fill="none" stroke="black" points="222.671,-653.481 431.793,-653.481 "/>
<text text-anchor="start" x="230.671" y="-635.481" font-family="Times,serif" font-size="14.00">_layout</text>
</g>
<!-- ApplicationController&#45;&gt;RelationshipsController -->
<g id="edge5" class="edge"><title>ApplicationController&#45;&gt;RelationshipsController</title>
<path fill="none" stroke="black" d="M333.514,-461.219C332.267,-507.571 330.39,-577.328 329.012,-628.522"/>
</g>
<!-- SessionsController -->
<g id="node8" class="node"><title>SessionsController</title>
<path fill="none" stroke="black" d="M54.0499,-380.674C54.0499,-380.674 151.829,-380.674 151.829,-380.674 157.829,-380.674 163.829,-386.674 163.829,-392.674 163.829,-392.674 163.829,-500.674 163.829,-500.674 163.829,-506.674 157.829,-512.674 151.829,-512.674 151.829,-512.674 54.0499,-512.674 54.0499,-512.674 48.0499,-512.674 42.0499,-506.674 42.0499,-500.674 42.0499,-500.674 42.0499,-392.674 42.0499,-392.674 42.0499,-386.674 48.0499,-380.674 54.0499,-380.674"/>
<text text-anchor="middle" x="102.94" y="-494.674" font-family="Times,serif" font-size="14.00">SessionsController</text>
<polyline fill="none" stroke="black" points="42.0499,-487.874 163.829,-487.874 "/>
<text text-anchor="start" x="50.0499" y="-469.874" font-family="Times,serif" font-size="14.00">create</text>
<text text-anchor="start" x="50.0499" y="-453.074" font-family="Times,serif" font-size="14.00">destroy</text>
<text text-anchor="start" x="50.0499" y="-436.274" font-family="Times,serif" font-size="14.00">new</text>
<polyline fill="none" stroke="black" points="42.0499,-429.474 163.829,-429.474 "/>
<polyline fill="none" stroke="black" points="42.0499,-405.474 163.829,-405.474 "/>
<text text-anchor="start" x="50.0499" y="-387.474" font-family="Times,serif" font-size="14.00">_layout</text>
</g>
<!-- ApplicationController&#45;&gt;SessionsController -->
<g id="edge6" class="edge"><title>ApplicationController&#45;&gt;SessionsController</title>
<path fill="none" stroke="black" d="M236.829,-426.64C212.106,-430.34 186.268,-434.206 163.959,-437.544"/>
</g>
<!-- TribesController -->
<g id="node9" class="node"><title>TribesController</title>
<path fill="none" stroke="black" d="M537.949,-127.745C537.949,-127.745 622.774,-127.745 622.774,-127.745 628.774,-127.745 634.774,-133.745 634.774,-139.745 634.774,-139.745 634.774,-264.545 634.774,-264.545 634.774,-270.545 628.774,-276.545 622.774,-276.545 622.774,-276.545 537.949,-276.545 537.949,-276.545 531.949,-276.545 525.949,-270.545 525.949,-264.545 525.949,-264.545 525.949,-139.745 525.949,-139.745 525.949,-133.745 531.949,-127.745 537.949,-127.745"/>
<text text-anchor="middle" x="580.361" y="-258.545" font-family="Times,serif" font-size="14.00">TribesController</text>
<polyline fill="none" stroke="black" points="525.949,-251.745 634.774,-251.745 "/>
<text text-anchor="start" x="533.949" y="-233.745" font-family="Times,serif" font-size="14.00">create</text>
<text text-anchor="start" x="533.949" y="-216.945" font-family="Times,serif" font-size="14.00">index</text>
<text text-anchor="start" x="533.949" y="-200.145" font-family="Times,serif" font-size="14.00">new</text>
<text text-anchor="start" x="533.949" y="-183.345" font-family="Times,serif" font-size="14.00">show</text>
<polyline fill="none" stroke="black" points="525.949,-176.545 634.774,-176.545 "/>
<polyline fill="none" stroke="black" points="525.949,-152.545 634.774,-152.545 "/>
<text text-anchor="start" x="533.949" y="-134.545" font-family="Times,serif" font-size="14.00">_layout</text>
</g>
<!-- ApplicationController&#45;&gt;TribesController -->
<g id="edge7" class="edge"><title>ApplicationController&#45;&gt;TribesController</title>
<path fill="none" stroke="black" d="M414.641,-362.686C433.616,-349.767 453.355,-335.288 470.63,-320.5 489.787,-304.1 509.037,-284.603 525.946,-266.214"/>
</g>
<!-- UsersController -->
<g id="node10" class="node"><title>UsersController</title>
<path fill="none" stroke="black" d="M269.795,-0.5C269.795,-0.5 455.43,-0.5 455.43,-0.5 461.43,-0.5 467.43,-6.5 467.43,-12.5 467.43,-12.5 467.43,-305.3 467.43,-305.3 467.43,-311.3 461.43,-317.3 455.43,-317.3 455.43,-317.3 269.795,-317.3 269.795,-317.3 263.795,-317.3 257.795,-311.3 257.795,-305.3 257.795,-305.3 257.795,-12.5 257.795,-12.5 257.795,-6.5 263.795,-0.5 269.795,-0.5"/>
<text text-anchor="middle" x="362.612" y="-299.3" font-family="Times,serif" font-size="14.00">UsersController</text>
<polyline fill="none" stroke="black" points="257.795,-292.5 467.43,-292.5 "/>
<text text-anchor="start" x="265.795" y="-274.5" font-family="Times,serif" font-size="14.00">_one_time_conditions_valid_300?</text>
<text text-anchor="start" x="265.795" y="-257.7" font-family="Times,serif" font-size="14.00">_one_time_conditions_valid_304?</text>
<text text-anchor="start" x="265.795" y="-240.9" font-family="Times,serif" font-size="14.00">_one_time_conditions_valid_308?</text>
<text text-anchor="start" x="265.795" y="-224.1" font-family="Times,serif" font-size="14.00">create</text>
<text text-anchor="start" x="265.795" y="-207.3" font-family="Times,serif" font-size="14.00">destroy</text>
<text text-anchor="start" x="265.795" y="-190.5" font-family="Times,serif" font-size="14.00">edit</text>
<text text-anchor="start" x="265.795" y="-173.7" font-family="Times,serif" font-size="14.00">followers</text>
<text text-anchor="start" x="265.795" y="-156.9" font-family="Times,serif" font-size="14.00">following</text>
<text text-anchor="start" x="265.795" y="-140.1" font-family="Times,serif" font-size="14.00">index</text>
<text text-anchor="start" x="265.795" y="-123.3" font-family="Times,serif" font-size="14.00">new</text>
<text text-anchor="start" x="265.795" y="-106.5" font-family="Times,serif" font-size="14.00">show</text>
<text text-anchor="start" x="265.795" y="-89.7" font-family="Times,serif" font-size="14.00">update</text>
<polyline fill="none" stroke="black" points="257.795,-82.9 467.43,-82.9 "/>
<polyline fill="none" stroke="black" points="257.795,-58.9 467.43,-58.9 "/>
<text text-anchor="start" x="265.795" y="-40.9" font-family="Times,serif" font-size="14.00">_layout</text>
<text text-anchor="start" x="265.795" y="-24.1" font-family="Times,serif" font-size="14.00">admin_user</text>
<text text-anchor="start" x="265.795" y="-7.3" font-family="Times,serif" font-size="14.00">correct_user</text>
</g>
<!-- ApplicationController&#45;&gt;UsersController -->
<g id="edge8" class="edge"><title>ApplicationController&#45;&gt;UsersController</title>
<path fill="none" stroke="black" d="M340.26,-362.579C341.744,-349.058 343.437,-333.636 345.211,-317.467"/>
</g>
</g>
</svg>
