<?xml version="1.0" encoding="UTF-8" standalone="no"?>
<!DOCTYPE svg PUBLIC "-//W3C//DTD SVG 1.1//EN"
 "http://www.w3.org/Graphics/SVG/1.1/DTD/svg11.dtd">
<!-- Generated by graphviz version 2.29.20121115.0545 (20121115.0545)
 -->
<!-- Title: models_diagram Pages: 1 -->
<svg width="1034pt" height="332pt"
 viewBox="0.00 0.00 1033.52 332.00" xmlns="http://www.w3.org/2000/svg" xmlns:xlink="http://www.w3.org/1999/xlink">
<g id="graph0" class="graph" transform="scale(1 1) rotate(0) translate(4 328)">
<title>models_diagram</title>
<polygon fill="white" stroke="white" points="-4,5 -4,-328 1030.52,-328 1030.52,5 -4,5"/>
<!-- _diagram_info -->
<g id="node1" class="node"><title>_diagram_info</title>
<text text-anchor="start" x="241.55" y="-307" font-family="Times,serif" font-size="13.00">Models diagram</text>
<text text-anchor="start" x="241.55" y="-291.4" font-family="Times,serif" font-size="13.00">Date: Jan 22 2013 &#45; 23:26</text>
<text text-anchor="start" x="241.55" y="-275.8" font-family="Times,serif" font-size="13.00">Migration version: 20130123041134</text>
<text text-anchor="start" x="241.55" y="-260.2" font-family="Times,serif" font-size="13.00">Generated by RailRoady 1.1.0</text>
<text text-anchor="start" x="241.55" y="-244.6" font-family="Times,serif" font-size="13.00">http://railroady.prestonlee.com</text>
</g>
<!-- Barrier -->
<g id="node2" class="node"><title>Barrier</title>
<ellipse fill="none" stroke="black" cx="607" cy="-92" rx="38.0718" ry="18"/>
<text text-anchor="middle" x="607" y="-86.4" font-family="Times,serif" font-size="14.00">Barrier</text>
</g>
<!-- Clipping -->
<g id="node3" class="node"><title>Clipping</title>
<ellipse fill="none" stroke="black" cx="696" cy="-18" rx="44.2628" ry="18"/>
<text text-anchor="middle" x="696" y="-12.4" font-family="Times,serif" font-size="14.00">Clipping</text>
</g>
<!-- Folder -->
<g id="node4" class="node"><title>Folder</title>
<ellipse fill="none" stroke="black" cx="737" cy="-92" rx="36.3747" ry="18"/>
<text text-anchor="middle" x="737" y="-86.4" font-family="Times,serif" font-size="14.00">Folder</text>
</g>
<!-- Folder&#45;&gt;Folder -->
<g id="edge1" class="edge"><title>Folder&#45;&gt;Folder</title>
<path fill="none" stroke="#984585" d="M779.112,-98.2737C786.146,-97.3959 791,-95.3047 791,-92 791,-88.9766 786.937,-86.9688 780.859,-85.9767"/>
<ellipse fill="none" stroke="#984585" cx="774.744" cy="-98.5225" rx="4" ry="4"/>
<polygon fill="#984585" stroke="#984585" points="780.724,-85.9671 771.073,-80.7616 775.737,-85.6086 770.75,-85.25 770.75,-85.25 770.75,-85.25 775.737,-85.6086 770.427,-89.7384 780.724,-85.9671 780.724,-85.9671"/>
<text text-anchor="middle" x="813.935" y="-86.4" font-family="Times,serif" font-size="14.00">children</text>
</g>
<!-- Folder&#45;&gt;Clipping -->
<g id="edge2" class="edge"><title>Folder&#45;&gt;Clipping</title>
<path fill="none" stroke="#a13371" d="M723.393,-67.1055C719.26,-59.846 714.702,-51.8431 710.511,-44.4831"/>
<ellipse fill="none" stroke="#a13371" cx="725.511" cy="-70.8248" rx="4.00002" ry="4.00002"/>
<polygon fill="#a13371" stroke="#a13371" points="710.406,-44.2985 709.368,-33.3819 707.932,-39.9536 705.458,-35.6087 705.458,-35.6087 705.458,-35.6087 707.932,-39.9536 701.547,-37.8355 710.406,-44.2985 710.406,-44.2985"/>
</g>
<!-- SharedFolder -->
<g id="node11" class="node"><title>SharedFolder</title>
<ellipse fill="none" stroke="black" cx="877" cy="-18" rx="63.0978" ry="18"/>
<text text-anchor="middle" x="877" y="-12.4" font-family="Times,serif" font-size="14.00">SharedFolder</text>
</g>
<!-- Folder&#45;&gt;SharedFolder -->
<g id="edge3" class="edge"><title>Folder&#45;&gt;SharedFolder</title>
<path fill="none" stroke="#c4f7be" d="M768.774,-74.659C789.546,-63.9765 816.794,-49.9629 838.753,-38.6698"/>
<ellipse fill="none" stroke="#c4f7be" cx="764.943" cy="-76.6291" rx="4.00002" ry="4.00002"/>
<polygon fill="#c4f7be" stroke="#c4f7be" points="838.913,-38.5877 849.864,-38.0159 843.359,-36.3009 847.806,-34.0141 847.806,-34.0141 847.806,-34.0141 843.359,-36.3009 845.748,-30.0123 838.913,-38.5877 838.913,-38.5877"/>
</g>
<!-- Goal -->
<g id="node5" class="node"><title>Goal</title>
<ellipse fill="none" stroke="black" cx="521" cy="-92" rx="29.216" ry="18"/>
<text text-anchor="middle" x="521" y="-86.4" font-family="Times,serif" font-size="14.00">Goal</text>
</g>
<!-- Medication -->
<g id="node6" class="node"><title>Medication</title>
<ellipse fill="none" stroke="black" cx="312" cy="-92" rx="55.0242" ry="18"/>
<text text-anchor="middle" x="312" y="-86.4" font-family="Times,serif" font-size="14.00">Medication</text>
</g>
<!-- Membership -->
<g id="node7" class="node"><title>Membership</title>
<ellipse fill="none" stroke="black" cx="457" cy="-182" rx="59.2755" ry="18"/>
<text text-anchor="middle" x="457" y="-176.4" font-family="Times,serif" font-size="14.00">Membership</text>
</g>
<!-- Micropost -->
<g id="node8" class="node"><title>Micropost</title>
<ellipse fill="none" stroke="black" cx="50" cy="-92" rx="50.6014" ry="18"/>
<text text-anchor="middle" x="50" y="-86.4" font-family="Times,serif" font-size="14.00">Micropost</text>
</g>
<!-- Problem -->
<g id="node9" class="node"><title>Problem</title>
<ellipse fill="none" stroke="black" cx="429" cy="-92" rx="43.1445" ry="18"/>
<text text-anchor="middle" x="429" y="-86.4" font-family="Times,serif" font-size="14.00">Problem</text>
</g>
<!-- Relationship -->
<g id="node10" class="node"><title>Relationship</title>
<ellipse fill="none" stroke="black" cx="179" cy="-92" rx="59.2825" ry="18"/>
<text text-anchor="middle" x="179" y="-86.4" font-family="Times,serif" font-size="14.00">Relationship</text>
</g>
<!-- Tribe -->
<g id="node12" class="node"><title>Tribe</title>
<ellipse fill="none" stroke="black" cx="490" cy="-281" rx="31.4204" ry="18"/>
<text text-anchor="middle" x="490" y="-275.4" font-family="Times,serif" font-size="14.00">Tribe</text>
</g>
<!-- Tribe&#45;&gt;Membership -->
<g id="edge4" class="edge"><title>Tribe&#45;&gt;Membership</title>
<path fill="none" stroke="#4001e5" d="M481.53,-255.104C476.802,-241.205 470.91,-223.886 466.085,-209.705"/>
<ellipse fill="none" stroke="#4001e5" cx="482.963" cy="-259.317" rx="4.00001" ry="4.00001"/>
<polygon fill="#4001e5" stroke="#4001e5" points="466.014,-209.495 467.053,-198.579 464.403,-204.762 462.793,-200.028 462.793,-200.028 462.793,-200.028 464.403,-204.762 458.533,-201.477 466.014,-209.495 466.014,-209.495"/>
</g>
<!-- User -->
<g id="node13" class="node"><title>User</title>
<ellipse fill="none" stroke="black" cx="564" cy="-182" rx="28.9087" ry="18"/>
<text text-anchor="middle" x="564" y="-176.4" font-family="Times,serif" font-size="14.00">User</text>
</g>
<!-- Tribe&#45;&gt;User -->
<g id="edge5" class="edge"><title>Tribe&#45;&gt;User</title>
<path fill="none" stroke="#44d542" d="M508.495,-255.756C519.879,-240.834 534.41,-221.786 545.749,-206.924"/>
<polygon fill="#44d542" stroke="#44d542" points="508.285,-256.032 498.642,-261.253 505.252,-260.007 502.22,-263.982 502.22,-263.982 502.22,-263.982 505.252,-260.007 505.797,-266.712 508.285,-256.032 508.285,-256.032"/>
<polygon fill="#44d542" stroke="#44d542" points="545.942,-206.67 555.586,-201.449 548.975,-202.695 552.008,-198.72 552.008,-198.72 552.008,-198.72 548.975,-202.695 548.43,-195.99 545.942,-206.67 545.942,-206.67"/>
</g>
<!-- User&#45;&gt;Micropost -->
<g id="edge6" class="edge"><title>User&#45;&gt;Micropost</title>
<path fill="none" stroke="#3ede6e" d="M534.514,-166.849C531.354,-165.726 528.145,-164.741 525,-164 375.123,-128.667 329.244,-179.74 179,-146 146.531,-138.709 111.743,-123.97 86.4846,-111.882"/>
<ellipse fill="none" stroke="#3ede6e" cx="538.477" cy="-168.404" rx="4.00001" ry="4.00001"/>
<polygon fill="#3ede6e" stroke="#3ede6e" points="86.2834,-111.784 79.2683,-103.355 81.7895,-109.592 77.2955,-107.4 77.2955,-107.4 77.2955,-107.4 81.7895,-109.592 75.3228,-111.444 86.2834,-111.784 86.2834,-111.784"/>
</g>
<!-- User&#45;&gt;Relationship -->
<g id="edge7" class="edge"><title>User&#45;&gt;Relationship</title>
<path fill="none" stroke="#627968" d="M534.512,-166.856C531.353,-165.732 528.144,-164.745 525,-164 489.052,-155.484 221.648,-169.326 193,-146 185.304,-139.734 181.555,-129.778 179.814,-120.179"/>
<ellipse fill="none" stroke="#627968" cx="538.475" cy="-168.412" rx="4.00001" ry="4.00001"/>
<polygon fill="#627968" stroke="#627968" points="179.796,-120.024 183.091,-109.565 179.209,-115.059 178.622,-110.093 178.622,-110.093 178.622,-110.093 179.209,-115.059 174.153,-110.622 179.796,-120.024 179.796,-120.024"/>
</g>
<!-- User&#45;&gt;User -->
<g id="edge8" class="edge"><title>User&#45;&gt;User</title>
<path fill="none" stroke="#5cefbc" d="M601.317,-188.173C607.079,-187.241 611,-185.184 611,-182 611,-178.816 607.079,-176.759 601.317,-175.827"/>
<polygon fill="#5cefbc" stroke="#5cefbc" points="601.033,-188.187 590.812,-184.215 596.04,-188.448 591.047,-188.709 591.047,-188.709 591.047,-188.709 596.04,-188.448 591.282,-193.203 601.033,-188.187 601.033,-188.187"/>
<polygon fill="#5cefbc" stroke="#5cefbc" points="601.033,-175.813 591.282,-170.797 596.04,-175.552 591.047,-175.291 591.047,-175.291 591.047,-175.291 596.04,-175.552 590.812,-179.785 601.033,-175.813 601.033,-175.813"/>
<text text-anchor="middle" x="653.769" y="-176.4" font-family="Times,serif" font-size="14.00">followed_users</text>
</g>
<!-- User&#45;&gt;Relationship -->
<g id="edge9" class="edge"><title>User&#45;&gt;Relationship</title>
<path fill="none" stroke="#f892e3" d="M534.491,-166.943C531.336,-165.801 528.134,-164.787 525,-164 429.007,-139.898 399.121,-169.753 303.041,-146 272.736,-138.508 240.358,-124.447 216.283,-112.691"/>
<ellipse fill="none" stroke="#f892e3" cx="538.453" cy="-168.511" rx="4.00001" ry="4.00001"/>
<polygon fill="#f892e3" stroke="#f892e3" points="216.112,-112.606 209.164,-104.122 211.636,-110.378 207.159,-108.151 207.159,-108.151 207.159,-108.151 211.636,-110.378 205.155,-112.18 216.112,-112.606 216.112,-112.606"/>
<text text-anchor="middle" x="363.479" y="-131.4" font-family="Times,serif" font-size="14.00">reverse_relationships</text>
</g>
<!-- User&#45;&gt;User -->
<g id="edge10" class="edge"><title>User&#45;&gt;User</title>
<path fill="none" stroke="#1b61f8" d="M601.317,-188.173C607.079,-187.241 611,-185.184 611,-182 611,-178.816 607.079,-176.759 601.317,-175.827"/>
<polygon fill="#1b61f8" stroke="#1b61f8" points="601.033,-188.187 590.812,-184.215 596.04,-188.448 591.047,-188.709 591.047,-188.709 591.047,-188.709 596.04,-188.448 591.282,-193.203 601.033,-188.187 601.033,-188.187"/>
<polygon fill="#1b61f8" stroke="#1b61f8" points="601.033,-175.813 591.282,-170.797 596.04,-175.552 591.047,-175.291 591.047,-175.291 591.047,-175.291 596.04,-175.552 590.812,-179.785 601.033,-175.813 601.033,-175.813"/>
<text text-anchor="middle" x="637.438" y="-176.4" font-family="Times,serif" font-size="14.00">followers</text>
</g>
<!-- User&#45;&gt;Medication -->
<g id="edge11" class="edge"><title>User&#45;&gt;Medication</title>
<path fill="none" stroke="#e24fb1" d="M533.53,-167.409C530.66,-166.223 527.784,-165.068 525,-164 469.292,-142.623 404.048,-121.425 360.59,-107.835"/>
<ellipse fill="none" stroke="#e24fb1" cx="537.36" cy="-169.029" rx="4.00002" ry="4.00002"/>
<polygon fill="#e24fb1" stroke="#e24fb1" points="360.394,-107.774 352.184,-100.505 355.62,-106.288 350.846,-104.801 350.846,-104.801 350.846,-104.801 355.62,-106.288 349.508,-109.098 360.394,-107.774 360.394,-107.774"/>
</g>
<!-- User&#45;&gt;Problem -->
<g id="edge12" class="edge"><title>User&#45;&gt;Problem</title>
<path fill="none" stroke="#44ddb2" d="M537.93,-164.007C515.673,-149.498 483.616,-128.602 460.039,-113.233"/>
<ellipse fill="none" stroke="#44ddb2" cx="541.307" cy="-166.207" rx="4.00002" ry="4.00002"/>
<polygon fill="#44ddb2" stroke="#44ddb2" points="459.833,-113.099 453.913,-103.868 455.645,-110.368 451.456,-107.638 451.456,-107.638 451.456,-107.638 455.645,-110.368 448.999,-111.408 459.833,-113.099 459.833,-113.099"/>
</g>
<!-- User&#45;&gt;Goal -->
<g id="edge13" class="edge"><title>User&#45;&gt;Goal</title>
<path fill="none" stroke="#cff793" d="M552.262,-156.978C546.449,-145.082 539.428,-130.714 533.514,-118.609"/>
<ellipse fill="none" stroke="#cff793" cx="554.156" cy="-160.854" rx="4.00002" ry="4.00002"/>
<polygon fill="#cff793" stroke="#cff793" points="533.442,-118.463 533.095,-107.502 531.247,-113.97 529.052,-109.478 529.052,-109.478 529.052,-109.478 531.247,-113.97 525.009,-111.454 533.442,-118.463 533.442,-118.463"/>
</g>
<!-- User&#45;&gt;Barrier -->
<g id="edge14" class="edge"><title>User&#45;&gt;Barrier</title>
<path fill="none" stroke="#2bf54b" d="M575.714,-157.027C581.486,-145.214 588.455,-130.952 594.349,-118.89"/>
<ellipse fill="none" stroke="#2bf54b" cx="573.844" cy="-160.854" rx="4.00002" ry="4.00002"/>
<polygon fill="#2bf54b" stroke="#2bf54b" points="594.412,-118.762 602.845,-111.753 596.607,-114.269 598.802,-109.777 598.802,-109.777 598.802,-109.777 596.607,-114.269 594.759,-107.801 594.412,-118.762 594.412,-118.762"/>
</g>
<!-- User&#45;&gt;Clipping -->
<g id="edge15" class="edge"><title>User&#45;&gt;Clipping</title>
<path fill="none" stroke="#e77170" d="M591.398,-164.397C610.867,-151.504 636.551,-132.132 654,-110 669.25,-90.6573 680.477,-64.8813 687.467,-45.7011"/>
<ellipse fill="none" stroke="#e77170" cx="587.89" cy="-166.671" rx="4.00002" ry="4.00002"/>
<polygon fill="#e77170" stroke="#e77170" points="687.531,-45.5169 695.073,-37.5563 689.178,-40.7957 690.824,-36.0745 690.824,-36.0745 690.824,-36.0745 689.178,-40.7957 686.575,-34.5927 687.531,-45.5169 687.531,-45.5169"/>
</g>
<!-- User&#45;&gt;Folder -->
<g id="edge16" class="edge"><title>User&#45;&gt;Folder</title>
<path fill="none" stroke="#b5e645" d="M599.036,-172.758C620.318,-166.954 647.609,-158.061 670,-146 685.638,-137.576 701.309,-125.434 713.558,-114.897"/>
<ellipse fill="none" stroke="#b5e645" cx="595.063" cy="-173.808" rx="4.00001" ry="4.00001"/>
<polygon fill="#b5e645" stroke="#b5e645" points="713.582,-114.876 724.057,-111.633 717.33,-111.568 721.079,-108.259 721.079,-108.259 721.079,-108.259 717.33,-111.568 718.102,-104.885 713.582,-114.876 713.582,-114.876"/>
</g>
<!-- User&#45;&gt;SharedFolder -->
<g id="edge17" class="edge"><title>User&#45;&gt;SharedFolder</title>
<path fill="none" stroke="#ae0fa6" d="M601.264,-179.144C676.905,-175.017 842.855,-164 861,-146 886.881,-120.326 886.163,-75.4072 882.308,-46.4497"/>
<ellipse fill="none" stroke="#ae0fa6" cx="596.929" cy="-179.376" rx="4" ry="4"/>
<polygon fill="#ae0fa6" stroke="#ae0fa6" points="882.252,-46.0891 885.173,-35.5194 881.489,-41.1477 880.726,-36.2063 880.726,-36.2063 880.726,-36.2063 881.489,-41.1477 876.278,-36.8933 882.252,-46.0891 882.252,-46.0891"/>
</g>
<!-- User&#45;&gt;SharedFolder -->
<g id="edge18" class="edge"><title>User&#45;&gt;SharedFolder</title>
<path fill="none" stroke="#a10bec" d="M601.526,-181.497C675.709,-181.749 837.692,-178.446 881,-146 914.215,-121.116 907.652,-94.1123 897,-54 896.2,-50.9858 895.072,-47.9604 893.755,-45.0191"/>
<ellipse fill="none" stroke="#a10bec" cx="597.352" cy="-181.475" rx="4" ry="4"/>
<polygon fill="#a10bec" stroke="#a10bec" points="893.691,-44.8963 893.064,-33.9484 891.382,-40.4614 889.073,-36.0265 889.073,-36.0265 889.073,-36.0265 891.382,-40.4614 885.081,-38.1046 893.691,-44.8963 893.691,-44.8963"/>
<text text-anchor="middle" x="965.259" y="-86.4" font-family="Times,serif" font-size="14.00">being_shared_folders</text>
</g>
<!-- User&#45;&gt;Folder -->
<g id="edge19" class="edge"><title>User&#45;&gt;Folder</title>
<path fill="none" stroke="#a98032" d="M602.764,-177.183C630.336,-172.981 667.254,-164.213 695,-146 705.855,-138.874 715.17,-128.013 722.25,-117.974"/>
<polygon fill="#a98032" stroke="#a98032" points="602.598,-177.206 592.075,-174.123 597.646,-177.893 592.693,-178.58 592.693,-178.58 592.693,-178.58 597.646,-177.893 593.311,-183.037 602.598,-177.206 602.598,-177.206"/>
<polygon fill="#a98032" stroke="#a98032" points="722.355,-117.815 731.63,-111.963 725.117,-113.646 727.878,-109.478 727.878,-109.478 727.878,-109.478 725.117,-113.646 724.127,-106.993 722.355,-117.815 722.355,-117.815"/>
<text text-anchor="middle" x="785.314" y="-131.4" font-family="Times,serif" font-size="14.00">shared_folders_by_others</text>
</g>
</g>
</svg>
