<?xml version="1.0" encoding="UTF-8" standalone="no"?>
<!DOCTYPE svg PUBLIC "-//W3C//DTD SVG 1.1//EN"
 "http://www.w3.org/Graphics/SVG/1.1/DTD/svg11.dtd">
<!-- Generated by graphviz version 2.29.20121115.0545 (20121115.0545)
 -->
<!-- Title: models_diagram Pages: 1 -->
<svg width="779pt" height="746pt"
 viewBox="0.00 0.00 778.87 746.00" xmlns="http://www.w3.org/2000/svg" xmlns:xlink="http://www.w3.org/1999/xlink">
<g id="graph0" class="graph" transform="scale(1 1) rotate(0) translate(4 742)">
<title>models_diagram</title>
<polygon fill="white" stroke="white" points="-4,5 -4,-742 775.869,-742 775.869,5 -4,5"/>
<!-- _diagram_info -->
<g id="node1" class="node"><title>_diagram_info</title>
<text text-anchor="start" x="7.78833" y="-705" font-family="Times,serif" font-size="13.00">Models diagram</text>
<text text-anchor="start" x="7.78833" y="-689.4" font-family="Times,serif" font-size="13.00">Date: Nov 15 2012 &#45; 17:20</text>
<text text-anchor="start" x="7.78833" y="-673.8" font-family="Times,serif" font-size="13.00">Migration version: 20121115055226</text>
<text text-anchor="start" x="7.78833" y="-658.2" font-family="Times,serif" font-size="13.00">Generated by RailRoady 1.1.0</text>
<text text-anchor="start" x="7.78833" y="-642.6" font-family="Times,serif" font-size="13.00">http://railroady.prestonlee.com</text>
</g>
<!-- Clipping -->
<g id="node2" class="node"><title>Clipping</title>
<path fill="none" stroke="black" d="M479.891,-1C479.891,-1 672.109,-1 672.109,-1 678.109,-1 684.109,-7 684.109,-13 684.109,-13 684.109,-173 684.109,-173 684.109,-179 678.109,-185 672.109,-185 672.109,-185 479.891,-185 479.891,-185 473.891,-185 467.891,-179 467.891,-173 467.891,-173 467.891,-13 467.891,-13 467.891,-7 473.891,-1 479.891,-1"/>
<text text-anchor="middle" x="576" y="-167" font-family="Times,serif" font-size="14.00">Clipping</text>
<polyline fill="none" stroke="black" points="467.891,-160.2 684.109,-160.2 "/>
<text text-anchor="start" x="475.891" y="-142.2" font-family="Times,serif" font-size="14.00">id :integer</text>
<text text-anchor="start" x="475.891" y="-125.4" font-family="Times,serif" font-size="14.00">user_id :integer</text>
<text text-anchor="start" x="475.891" y="-108.6" font-family="Times,serif" font-size="14.00">created_at :datetime</text>
<text text-anchor="start" x="475.891" y="-91.8" font-family="Times,serif" font-size="14.00">updated_at :datetime</text>
<text text-anchor="start" x="475.891" y="-75" font-family="Times,serif" font-size="14.00">uploaded_file_file_name :string</text>
<text text-anchor="start" x="475.891" y="-58.2" font-family="Times,serif" font-size="14.00">uploaded_file_content_type :string</text>
<text text-anchor="start" x="475.891" y="-41.4" font-family="Times,serif" font-size="14.00">uploaded_file_file_size :integer</text>
<text text-anchor="start" x="475.891" y="-24.6" font-family="Times,serif" font-size="14.00">uploaded_file_updated_at :datetime</text>
<text text-anchor="start" x="475.891" y="-7.8" font-family="Times,serif" font-size="14.00">folder_id :integer</text>
</g>
<!-- Folder -->
<g id="node3" class="node"><title>Folder</title>
<path fill="none" stroke="black" d="M586.495,-225.2C586.495,-225.2 695.505,-225.2 695.505,-225.2 701.505,-225.2 707.505,-231.2 707.505,-237.2 707.505,-237.2 707.505,-346.8 707.505,-346.8 707.505,-352.8 701.505,-358.8 695.505,-358.8 695.505,-358.8 586.495,-358.8 586.495,-358.8 580.495,-358.8 574.495,-352.8 574.495,-346.8 574.495,-346.8 574.495,-237.2 574.495,-237.2 574.495,-231.2 580.495,-225.2 586.495,-225.2"/>
<text text-anchor="middle" x="641" y="-340.8" font-family="Times,serif" font-size="14.00">Folder</text>
<polyline fill="none" stroke="black" points="574.495,-334 707.505,-334 "/>
<text text-anchor="start" x="582.495" y="-316" font-family="Times,serif" font-size="14.00">id :integer</text>
<text text-anchor="start" x="582.495" y="-299.2" font-family="Times,serif" font-size="14.00">name :string</text>
<text text-anchor="start" x="582.495" y="-282.4" font-family="Times,serif" font-size="14.00">parent_id :integer</text>
<text text-anchor="start" x="582.495" y="-265.6" font-family="Times,serif" font-size="14.00">user_id :integer</text>
<text text-anchor="start" x="582.495" y="-248.8" font-family="Times,serif" font-size="14.00">created_at :datetime</text>
<text text-anchor="start" x="582.495" y="-232" font-family="Times,serif" font-size="14.00">updated_at :datetime</text>
</g>
<!-- Folder&#45;&gt;Folder -->
<g id="edge1" class="edge"><title>Folder&#45;&gt;Folder</title>
<path fill="none" stroke="#658dca" d="M715.434,-304.269C721.345,-301.583 725,-297.493 725,-292 725,-287.104 722.096,-283.323 717.28,-280.657"/>
<ellipse fill="none" stroke="#658dca" cx="711.357" cy="-305.566" rx="4.00001" ry="4.00001"/>
<polygon fill="#658dca" stroke="#658dca" points="716.975,-280.549 709.042,-272.979 712.26,-278.886 707.545,-277.222 707.545,-277.222 707.545,-277.222 712.26,-278.886 706.048,-281.466 716.975,-280.549 716.975,-280.549"/>
<text text-anchor="middle" x="747.935" y="-286.4" font-family="Times,serif" font-size="14.00">children</text>
</g>
<!-- Folder&#45;&gt;Clipping -->
<g id="edge2" class="edge"><title>Folder&#45;&gt;Clipping</title>
<path fill="none" stroke="#0d49e9" d="M616.75,-217.503C614.295,-210.062 611.772,-202.417 609.244,-194.754"/>
<ellipse fill="none" stroke="#0d49e9" cx="618.012" cy="-221.329" rx="4.00001" ry="4.00001"/>
<polygon fill="#0d49e9" stroke="#0d49e9" points="609.176,-194.549 610.316,-183.642 607.609,-189.801 606.043,-185.052 606.043,-185.052 606.043,-185.052 607.609,-189.801 601.769,-186.462 609.176,-194.549 609.176,-194.549"/>
</g>
<!-- Membership -->
<g id="node4" class="node"><title>Membership</title>
<path fill="none" stroke="black" d="M187.495,-439.6C187.495,-439.6 296.505,-439.6 296.505,-439.6 302.505,-439.6 308.505,-445.6 308.505,-451.6 308.505,-451.6 308.505,-544.4 308.505,-544.4 308.505,-550.4 302.505,-556.4 296.505,-556.4 296.505,-556.4 187.495,-556.4 187.495,-556.4 181.495,-556.4 175.495,-550.4 175.495,-544.4 175.495,-544.4 175.495,-451.6 175.495,-451.6 175.495,-445.6 181.495,-439.6 187.495,-439.6"/>
<text text-anchor="middle" x="242" y="-538.4" font-family="Times,serif" font-size="14.00">Membership</text>
<polyline fill="none" stroke="black" points="175.495,-531.6 308.505,-531.6 "/>
<text text-anchor="start" x="183.495" y="-513.6" font-family="Times,serif" font-size="14.00">id :integer</text>
<text text-anchor="start" x="183.495" y="-496.8" font-family="Times,serif" font-size="14.00">user_id :integer</text>
<text text-anchor="start" x="183.495" y="-480" font-family="Times,serif" font-size="14.00">tribe_id :integer</text>
<text text-anchor="start" x="183.495" y="-463.2" font-family="Times,serif" font-size="14.00">created_at :datetime</text>
<text text-anchor="start" x="183.495" y="-446.4" font-family="Times,serif" font-size="14.00">updated_at :datetime</text>
</g>
<!-- Micropost -->
<g id="node5" class="node"><title>Micropost</title>
<path fill="none" stroke="black" d="M206.495,-233.6C206.495,-233.6 315.505,-233.6 315.505,-233.6 321.505,-233.6 327.505,-239.6 327.505,-245.6 327.505,-245.6 327.505,-338.4 327.505,-338.4 327.505,-344.4 321.505,-350.4 315.505,-350.4 315.505,-350.4 206.495,-350.4 206.495,-350.4 200.495,-350.4 194.495,-344.4 194.495,-338.4 194.495,-338.4 194.495,-245.6 194.495,-245.6 194.495,-239.6 200.495,-233.6 206.495,-233.6"/>
<text text-anchor="middle" x="261" y="-332.4" font-family="Times,serif" font-size="14.00">Micropost</text>
<polyline fill="none" stroke="black" points="194.495,-325.6 327.505,-325.6 "/>
<text text-anchor="start" x="202.495" y="-307.6" font-family="Times,serif" font-size="14.00">id :integer</text>
<text text-anchor="start" x="202.495" y="-290.8" font-family="Times,serif" font-size="14.00">content :text</text>
<text text-anchor="start" x="202.495" y="-274" font-family="Times,serif" font-size="14.00">user_id :integer</text>
<text text-anchor="start" x="202.495" y="-257.2" font-family="Times,serif" font-size="14.00">created_at :datetime</text>
<text text-anchor="start" x="202.495" y="-240.4" font-family="Times,serif" font-size="14.00">updated_at :datetime</text>
</g>
<!-- Relationship -->
<g id="node6" class="node"><title>Relationship</title>
<path fill="none" stroke="black" d="M357.495,-233.6C357.495,-233.6 466.505,-233.6 466.505,-233.6 472.505,-233.6 478.505,-239.6 478.505,-245.6 478.505,-245.6 478.505,-338.4 478.505,-338.4 478.505,-344.4 472.505,-350.4 466.505,-350.4 466.505,-350.4 357.495,-350.4 357.495,-350.4 351.495,-350.4 345.495,-344.4 345.495,-338.4 345.495,-338.4 345.495,-245.6 345.495,-245.6 345.495,-239.6 351.495,-233.6 357.495,-233.6"/>
<text text-anchor="middle" x="412" y="-332.4" font-family="Times,serif" font-size="14.00">Relationship</text>
<polyline fill="none" stroke="black" points="345.495,-325.6 478.505,-325.6 "/>
<text text-anchor="start" x="353.495" y="-307.6" font-family="Times,serif" font-size="14.00">id :integer</text>
<text text-anchor="start" x="353.495" y="-290.8" font-family="Times,serif" font-size="14.00">follower_id :integer</text>
<text text-anchor="start" x="353.495" y="-274" font-family="Times,serif" font-size="14.00">followed_id :integer</text>
<text text-anchor="start" x="353.495" y="-257.2" font-family="Times,serif" font-size="14.00">created_at :datetime</text>
<text text-anchor="start" x="353.495" y="-240.4" font-family="Times,serif" font-size="14.00">updated_at :datetime</text>
</g>
<!-- Tribe -->
<g id="node7" class="node"><title>Tribe</title>
<path fill="none" stroke="black" d="M236.495,-620.6C236.495,-620.6 345.505,-620.6 345.505,-620.6 351.505,-620.6 357.505,-626.6 357.505,-632.6 357.505,-632.6 357.505,-725.4 357.505,-725.4 357.505,-731.4 351.505,-737.4 345.505,-737.4 345.505,-737.4 236.495,-737.4 236.495,-737.4 230.495,-737.4 224.495,-731.4 224.495,-725.4 224.495,-725.4 224.495,-632.6 224.495,-632.6 224.495,-626.6 230.495,-620.6 236.495,-620.6"/>
<text text-anchor="middle" x="291" y="-719.4" font-family="Times,serif" font-size="14.00">Tribe</text>
<polyline fill="none" stroke="black" points="224.495,-712.6 357.505,-712.6 "/>
<text text-anchor="start" x="232.495" y="-694.6" font-family="Times,serif" font-size="14.00">id :integer</text>
<text text-anchor="start" x="232.495" y="-677.8" font-family="Times,serif" font-size="14.00">name :string</text>
<text text-anchor="start" x="232.495" y="-661" font-family="Times,serif" font-size="14.00">created_at :datetime</text>
<text text-anchor="start" x="232.495" y="-644.2" font-family="Times,serif" font-size="14.00">updated_at :datetime</text>
<text text-anchor="start" x="232.495" y="-627.4" font-family="Times,serif" font-size="14.00">description :text</text>
</g>
<!-- Tribe&#45;&gt;Membership -->
<g id="edge3" class="edge"><title>Tribe&#45;&gt;Membership</title>
<path fill="none" stroke="#f8f8b0" d="M273.098,-612.603C268.972,-597.531 264.577,-581.474 260.429,-566.321"/>
<ellipse fill="none" stroke="#f8f8b0" cx="274.17" cy="-616.52" rx="4.00001" ry="4.00001"/>
<polygon fill="#f8f8b0" stroke="#f8f8b0" points="260.384,-566.159 262.084,-555.326 259.064,-561.337 257.744,-556.514 257.744,-556.514 257.744,-556.514 259.064,-561.337 253.404,-557.702 260.384,-566.159 260.384,-566.159"/>
</g>
<!-- User -->
<g id="node8" class="node"><title>User</title>
<path fill="none" stroke="black" d="M338.822,-414.4C338.822,-414.4 485.178,-414.4 485.178,-414.4 491.178,-414.4 497.178,-420.4 497.178,-426.4 497.178,-426.4 497.178,-569.6 497.178,-569.6 497.178,-575.6 491.178,-581.6 485.178,-581.6 485.178,-581.6 338.822,-581.6 338.822,-581.6 332.822,-581.6 326.822,-575.6 326.822,-569.6 326.822,-569.6 326.822,-426.4 326.822,-426.4 326.822,-420.4 332.822,-414.4 338.822,-414.4"/>
<text text-anchor="middle" x="412" y="-563.6" font-family="Times,serif" font-size="14.00">User</text>
<polyline fill="none" stroke="black" points="326.822,-556.8 497.178,-556.8 "/>
<text text-anchor="start" x="334.822" y="-538.8" font-family="Times,serif" font-size="14.00">id :integer</text>
<text text-anchor="start" x="334.822" y="-522" font-family="Times,serif" font-size="14.00">name :string</text>
<text text-anchor="start" x="334.822" y="-505.2" font-family="Times,serif" font-size="14.00">email :string</text>
<text text-anchor="start" x="334.822" y="-488.4" font-family="Times,serif" font-size="14.00">created_at :datetime</text>
<text text-anchor="start" x="334.822" y="-471.6" font-family="Times,serif" font-size="14.00">updated_at :datetime</text>
<text text-anchor="start" x="334.822" y="-454.8" font-family="Times,serif" font-size="14.00">encrypted_password :string</text>
<text text-anchor="start" x="334.822" y="-438" font-family="Times,serif" font-size="14.00">salt :string</text>
<text text-anchor="start" x="334.822" y="-421.2" font-family="Times,serif" font-size="14.00">admin :boolean</text>
</g>
<!-- Tribe&#45;&gt;User -->
<g id="edge4" class="edge"><title>Tribe&#45;&gt;User</title>
<path fill="none" stroke="#9f8e9e" d="M335.721,-611.842C340.506,-604.764 345.431,-597.477 350.367,-590.176"/>
<polygon fill="#9f8e9e" stroke="#9f8e9e" points="335.552,-612.093 326.223,-617.858 332.751,-616.236 329.951,-620.378 329.951,-620.378 329.951,-620.378 332.751,-616.236 333.679,-622.898 335.552,-612.093 335.552,-612.093"/>
<polygon fill="#9f8e9e" stroke="#9f8e9e" points="350.558,-589.894 359.886,-584.129 353.358,-585.751 356.158,-581.609 356.158,-581.609 356.158,-581.609 353.358,-585.751 352.43,-579.089 350.558,-589.894 350.558,-589.894"/>
</g>
<!-- User&#45;&gt;Micropost -->
<g id="edge5" class="edge"><title>User&#45;&gt;Micropost</title>
<path fill="none" stroke="#e053cd" d="M345.944,-407.759C333.697,-391.214 321.114,-374.214 309.51,-358.537"/>
<ellipse fill="none" stroke="#e053cd" cx="348.42" cy="-411.104" rx="4.00002" ry="4.00002"/>
<polygon fill="#e053cd" stroke="#e053cd" points="309.488,-358.507 307.155,-347.792 306.513,-354.488 303.538,-350.469 303.538,-350.469 303.538,-350.469 306.513,-354.488 299.921,-353.146 309.488,-358.507 309.488,-358.507"/>
</g>
<!-- User&#45;&gt;Relationship -->
<g id="edge6" class="edge"><title>User&#45;&gt;Relationship</title>
<path fill="none" stroke="#1dcf50" d="M392.418,-406.253C391.888,-396.731 391.987,-387.179 393,-378 393.612,-372.458 394.442,-366.749 395.414,-361.035"/>
<ellipse fill="none" stroke="#1dcf50" cx="392.711" cy="-410.248" rx="4" ry="4"/>
<polygon fill="#1dcf50" stroke="#1dcf50" points="395.491,-360.618 401.727,-351.598 396.396,-355.7 397.302,-350.783 397.302,-350.783 397.302,-350.783 396.396,-355.7 392.876,-349.968 395.491,-360.618 395.491,-360.618"/>
</g>
<!-- User&#45;&gt;User -->
<g id="edge7" class="edge"><title>User&#45;&gt;User</title>
<path fill="none" stroke="#f753cf" d="M506.854,-510.7C511.966,-507.594 515,-503.36 515,-498 515,-492.64 511.966,-488.406 506.854,-485.3"/>
<polygon fill="#f753cf" stroke="#f753cf" points="506.496,-510.848 495.536,-510.494 501.873,-512.751 497.249,-514.655 497.249,-514.655 497.249,-514.655 501.873,-512.751 498.963,-518.816 506.496,-510.848 506.496,-510.848"/>
<polygon fill="#f753cf" stroke="#f753cf" points="506.496,-485.152 498.963,-477.184 501.873,-483.249 497.249,-481.345 497.249,-481.345 497.249,-481.345 501.873,-483.249 495.536,-485.506 506.496,-485.152 506.496,-485.152"/>
<text text-anchor="middle" x="542.221" y="-492.4" font-family="Times,serif" font-size="14.00">following</text>
</g>
<!-- User&#45;&gt;Relationship -->
<g id="edge8" class="edge"><title>User&#45;&gt;Relationship</title>
<path fill="none" stroke="#798921" d="M412,-406.237C412,-390.986 412,-375.397 412,-360.854"/>
<ellipse fill="none" stroke="#798921" cx="412" cy="-410.319" rx="4" ry="4"/>
<polygon fill="#798921" stroke="#798921" points="412,-360.469 416.5,-350.469 412,-355.469 412,-350.469 412,-350.469 412,-350.469 412,-355.469 407.5,-350.469 412,-360.469 412,-360.469"/>
<text text-anchor="middle" x="471.479" y="-381.4" font-family="Times,serif" font-size="14.00">reverse_relationships</text>
</g>
<!-- User&#45;&gt;User -->
<g id="edge9" class="edge"><title>User&#45;&gt;User</title>
<path fill="none" stroke="#7eee2d" d="M506.854,-510.7C511.966,-507.594 515,-503.36 515,-498 515,-492.64 511.966,-488.406 506.854,-485.3"/>
<polygon fill="#7eee2d" stroke="#7eee2d" points="506.496,-510.848 495.536,-510.494 501.873,-512.751 497.249,-514.655 497.249,-514.655 497.249,-514.655 501.873,-512.751 498.963,-518.816 506.496,-510.848 506.496,-510.848"/>
<polygon fill="#7eee2d" stroke="#7eee2d" points="506.496,-485.152 498.963,-477.184 501.873,-483.249 497.249,-481.345 497.249,-481.345 497.249,-481.345 501.873,-483.249 495.536,-485.506 506.496,-485.152 506.496,-485.152"/>
<text text-anchor="middle" x="541.438" y="-492.4" font-family="Times,serif" font-size="14.00">followers</text>
</g>
<!-- User&#45;&gt;Clipping -->
<g id="edge10" class="edge"><title>User&#45;&gt;Clipping</title>
<path fill="none" stroke="#64924a" d="M503.336,-433.156C514.447,-421.928 524.5,-409.474 532,-396 541.746,-378.491 555.338,-276.215 564.828,-195.47"/>
<ellipse fill="none" stroke="#64924a" cx="500.299" cy="-436.12" rx="4.00002" ry="4.00002"/>
<polygon fill="#64924a" stroke="#64924a" points="564.863,-195.169 570.492,-185.758 565.443,-190.203 566.023,-185.237 566.023,-185.237 566.023,-185.237 565.443,-190.203 561.553,-184.715 564.863,-195.169 564.863,-195.169"/>
</g>
<!-- User&#45;&gt;Folder -->
<g id="edge11" class="edge"><title>User&#45;&gt;Folder</title>
<path fill="none" stroke="#762c70" d="M504.011,-440.651C523.356,-427.071 543.025,-411.865 560,-396 569.536,-387.088 578.866,-376.996 587.603,-366.703"/>
<ellipse fill="none" stroke="#762c70" cx="500.473" cy="-443.105" rx="4.00002" ry="4.00002"/>
<polygon fill="#762c70" stroke="#762c70" points="587.773,-366.499 597.625,-361.683 590.968,-362.653 594.163,-358.807 594.163,-358.807 594.163,-358.807 590.968,-362.653 590.702,-355.932 587.773,-366.499 587.773,-366.499"/>
</g>
</g>
</svg>
