<?xml version="1.0" encoding="UTF-8" standalone="no"?>
<!DOCTYPE svg PUBLIC "-//W3C//DTD SVG 1.1//EN"
 "http://www.w3.org/Graphics/SVG/1.1/DTD/svg11.dtd">
<!-- Generated by graphviz version 2.29.20121115.0545 (20121115.0545)
 -->
<!-- Title: models_diagram Pages: 1 -->
<svg width="687pt" height="332pt"
 viewBox="0.00 0.00 686.52 332.00" xmlns="http://www.w3.org/2000/svg" xmlns:xlink="http://www.w3.org/1999/xlink">
<g id="graph0" class="graph" transform="scale(1 1) rotate(0) translate(4 328)">
<title>models_diagram</title>
<polygon fill="white" stroke="white" points="-4,5 -4,-328 683.518,-328 683.518,5 -4,5"/>
<!-- _diagram_info -->
<g id="node1" class="node"><title>_diagram_info</title>
<text text-anchor="start" x="7.31226" y="-307" font-family="Times,serif" font-size="13.00">Models diagram</text>
<text text-anchor="start" x="7.31226" y="-291.4" font-family="Times,serif" font-size="13.00">Date: Dec 18 2012 &#45; 00:53</text>
<text text-anchor="start" x="7.31226" y="-275.8" font-family="Times,serif" font-size="13.00">Migration version: 20121215055645</text>
<text text-anchor="start" x="7.31226" y="-260.2" font-family="Times,serif" font-size="13.00">Generated by RailRoady 1.1.0</text>
<text text-anchor="start" x="7.31226" y="-244.6" font-family="Times,serif" font-size="13.00">http://railroady.prestonlee.com</text>
</g>
<!-- Clipping -->
<g id="node2" class="node"><title>Clipping</title>
<ellipse fill="none" stroke="black" cx="341" cy="-18" rx="44.2628" ry="18"/>
<text text-anchor="middle" x="341" y="-12.4" font-family="Times,serif" font-size="14.00">Clipping</text>
</g>
<!-- Folder -->
<g id="node3" class="node"><title>Folder</title>
<ellipse fill="none" stroke="black" cx="382" cy="-92" rx="36.3747" ry="18"/>
<text text-anchor="middle" x="382" y="-86.4" font-family="Times,serif" font-size="14.00">Folder</text>
</g>
<!-- Folder&#45;&gt;Folder -->
<g id="edge1" class="edge"><title>Folder&#45;&gt;Folder</title>
<path fill="none" stroke="#93f494" d="M424.112,-98.2737C431.146,-97.3959 436,-95.3047 436,-92 436,-88.9766 431.937,-86.9688 425.859,-85.9767"/>
<ellipse fill="none" stroke="#93f494" cx="419.744" cy="-98.5225" rx="4" ry="4"/>
<polygon fill="#93f494" stroke="#93f494" points="425.724,-85.9671 416.073,-80.7616 420.737,-85.6086 415.75,-85.25 415.75,-85.25 415.75,-85.25 420.737,-85.6086 415.427,-89.7384 425.724,-85.9671 425.724,-85.9671"/>
<text text-anchor="middle" x="458.935" y="-86.4" font-family="Times,serif" font-size="14.00">children</text>
</g>
<!-- Folder&#45;&gt;Clipping -->
<g id="edge2" class="edge"><title>Folder&#45;&gt;Clipping</title>
<path fill="none" stroke="#cb38d8" d="M368.393,-67.1055C364.26,-59.846 359.702,-51.8431 355.511,-44.4831"/>
<ellipse fill="none" stroke="#cb38d8" cx="370.511" cy="-70.8248" rx="4.00002" ry="4.00002"/>
<polygon fill="#cb38d8" stroke="#cb38d8" points="355.406,-44.2985 354.368,-33.3819 352.932,-39.9536 350.458,-35.6087 350.458,-35.6087 350.458,-35.6087 352.932,-39.9536 346.547,-37.8355 355.406,-44.2985 355.406,-44.2985"/>
</g>
<!-- SharedFolder -->
<g id="node7" class="node"><title>SharedFolder</title>
<ellipse fill="none" stroke="black" cx="536" cy="-18" rx="63.0978" ry="18"/>
<text text-anchor="middle" x="536" y="-12.4" font-family="Times,serif" font-size="14.00">SharedFolder</text>
</g>
<!-- Folder&#45;&gt;SharedFolder -->
<g id="edge3" class="edge"><title>Folder&#45;&gt;SharedFolder</title>
<path fill="none" stroke="#4687be" d="M414.963,-75.5888C438.501,-64.5838 470.311,-49.712 495.412,-37.976"/>
<ellipse fill="none" stroke="#4687be" cx="411.054" cy="-77.4165" rx="4.00002" ry="4.00002"/>
<polygon fill="#4687be" stroke="#4687be" points="495.615,-37.8816 506.579,-37.7227 500.144,-35.7639 504.673,-33.6462 504.673,-33.6462 504.673,-33.6462 500.144,-35.7639 502.767,-29.5697 495.615,-37.8816 495.615,-37.8816"/>
</g>
<!-- Membership -->
<g id="node4" class="node"><title>Membership</title>
<ellipse fill="none" stroke="black" cx="223" cy="-182" rx="59.2755" ry="18"/>
<text text-anchor="middle" x="223" y="-176.4" font-family="Times,serif" font-size="14.00">Membership</text>
</g>
<!-- Micropost -->
<g id="node5" class="node"><title>Micropost</title>
<ellipse fill="none" stroke="black" cx="55" cy="-92" rx="50.6014" ry="18"/>
<text text-anchor="middle" x="55" y="-86.4" font-family="Times,serif" font-size="14.00">Micropost</text>
</g>
<!-- Relationship -->
<g id="node6" class="node"><title>Relationship</title>
<ellipse fill="none" stroke="black" cx="184" cy="-92" rx="59.2825" ry="18"/>
<text text-anchor="middle" x="184" y="-86.4" font-family="Times,serif" font-size="14.00">Relationship</text>
</g>
<!-- Tribe -->
<g id="node8" class="node"><title>Tribe</title>
<ellipse fill="none" stroke="black" cx="256" cy="-281" rx="31.4204" ry="18"/>
<text text-anchor="middle" x="256" y="-275.4" font-family="Times,serif" font-size="14.00">Tribe</text>
</g>
<!-- Tribe&#45;&gt;Membership -->
<g id="edge4" class="edge"><title>Tribe&#45;&gt;Membership</title>
<path fill="none" stroke="#f19390" d="M247.53,-255.104C242.802,-241.205 236.91,-223.886 232.085,-209.705"/>
<ellipse fill="none" stroke="#f19390" cx="248.963" cy="-259.317" rx="4.00001" ry="4.00001"/>
<polygon fill="#f19390" stroke="#f19390" points="232.014,-209.495 233.053,-198.579 230.403,-204.762 228.793,-200.028 228.793,-200.028 228.793,-200.028 230.403,-204.762 224.533,-201.477 232.014,-209.495 232.014,-209.495"/>
</g>
<!-- User -->
<g id="node9" class="node"><title>User</title>
<ellipse fill="none" stroke="black" cx="330" cy="-182" rx="28.9087" ry="18"/>
<text text-anchor="middle" x="330" y="-176.4" font-family="Times,serif" font-size="14.00">User</text>
</g>
<!-- Tribe&#45;&gt;User -->
<g id="edge5" class="edge"><title>Tribe&#45;&gt;User</title>
<path fill="none" stroke="#7c3e57" d="M274.495,-255.756C285.879,-240.834 300.41,-221.786 311.749,-206.924"/>
<polygon fill="#7c3e57" stroke="#7c3e57" points="274.285,-256.032 264.642,-261.253 271.252,-260.007 268.22,-263.982 268.22,-263.982 268.22,-263.982 271.252,-260.007 271.797,-266.712 274.285,-256.032 274.285,-256.032"/>
<polygon fill="#7c3e57" stroke="#7c3e57" points="311.942,-206.67 321.586,-201.449 314.975,-202.695 318.008,-198.72 318.008,-198.72 318.008,-198.72 314.975,-202.695 314.43,-195.99 311.942,-206.67 311.942,-206.67"/>
</g>
<!-- User&#45;&gt;Micropost -->
<g id="edge6" class="edge"><title>User&#45;&gt;Micropost</title>
<path fill="none" stroke="#d0ebdc" d="M300.211,-167.021C297.141,-165.882 294.035,-164.846 291,-164 232.691,-147.749 213.684,-164.345 156,-146 131.563,-138.229 106.006,-124.759 86.7144,-113.343"/>
<ellipse fill="none" stroke="#d0ebdc" cx="303.99" cy="-168.532" rx="4.00001" ry="4.00001"/>
<polygon fill="#d0ebdc" stroke="#d0ebdc" points="86.6072,-113.279 80.3774,-104.254 82.3283,-110.692 78.0494,-108.105 78.0494,-108.105 78.0494,-108.105 82.3283,-110.692 75.7213,-111.956 86.6072,-113.279 86.6072,-113.279"/>
</g>
<!-- User&#45;&gt;Relationship -->
<g id="edge7" class="edge"><title>User&#45;&gt;Relationship</title>
<path fill="none" stroke="#2d7871" d="M300.203,-167.051C297.135,-165.905 294.031,-164.86 291,-164 263.79,-156.279 183.532,-167.367 165,-146 158.302,-138.278 160.247,-128.02 164.892,-118.587"/>
<ellipse fill="none" stroke="#2d7871" cx="303.981" cy="-168.565" rx="4.00001" ry="4.00001"/>
<polygon fill="#2d7871" stroke="#2d7871" points="164.923,-118.534 173.86,-112.18 167.45,-114.22 169.978,-109.906 169.978,-109.906 169.978,-109.906 167.45,-114.22 166.095,-107.631 164.923,-118.534 164.923,-118.534"/>
</g>
<!-- User&#45;&gt;User -->
<g id="edge8" class="edge"><title>User&#45;&gt;User</title>
<path fill="none" stroke="#d8973f" d="M367.317,-188.173C373.079,-187.241 377,-185.184 377,-182 377,-178.816 373.079,-176.759 367.317,-175.827"/>
<polygon fill="#d8973f" stroke="#d8973f" points="367.033,-188.187 356.812,-184.215 362.04,-188.448 357.047,-188.709 357.047,-188.709 357.047,-188.709 362.04,-188.448 357.282,-193.203 367.033,-188.187 367.033,-188.187"/>
<polygon fill="#d8973f" stroke="#d8973f" points="367.033,-175.813 357.282,-170.797 362.04,-175.552 357.047,-175.291 357.047,-175.291 357.047,-175.291 362.04,-175.552 356.812,-179.785 367.033,-175.813 367.033,-175.813"/>
<text text-anchor="middle" x="419.769" y="-176.4" font-family="Times,serif" font-size="14.00">followed_users</text>
</g>
<!-- User&#45;&gt;Relationship -->
<g id="edge9" class="edge"><title>User&#45;&gt;Relationship</title>
<path fill="none" stroke="#73cc1e" d="M300.179,-167.134C297.115,-165.972 294.019,-164.9 291,-164 268.111,-157.178 200.629,-164.096 185.041,-146 179.019,-139.009 177.554,-129.364 178.001,-120.216"/>
<ellipse fill="none" stroke="#73cc1e" cx="303.955" cy="-168.66" rx="4.00001" ry="4.00001"/>
<polygon fill="#73cc1e" stroke="#73cc1e" points="178.003,-120.198 183.645,-110.796 178.59,-115.233 179.176,-110.268 179.176,-110.268 179.176,-110.268 178.59,-115.233 174.707,-109.739 178.003,-120.198 178.003,-120.198"/>
<text text-anchor="middle" x="244.479" y="-131.4" font-family="Times,serif" font-size="14.00">reverse_relationships</text>
</g>
<!-- User&#45;&gt;User -->
<g id="edge10" class="edge"><title>User&#45;&gt;User</title>
<path fill="none" stroke="#c44b3a" d="M367.317,-188.173C373.079,-187.241 377,-185.184 377,-182 377,-178.816 373.079,-176.759 367.317,-175.827"/>
<polygon fill="#c44b3a" stroke="#c44b3a" points="367.033,-188.187 356.812,-184.215 362.04,-188.448 357.047,-188.709 357.047,-188.709 357.047,-188.709 362.04,-188.448 357.282,-193.203 367.033,-188.187 367.033,-188.187"/>
<polygon fill="#c44b3a" stroke="#c44b3a" points="367.033,-175.813 357.282,-170.797 362.04,-175.552 357.047,-175.291 357.047,-175.291 357.047,-175.291 362.04,-175.552 356.812,-179.785 367.033,-175.813 367.033,-175.813"/>
<text text-anchor="middle" x="403.438" y="-176.4" font-family="Times,serif" font-size="14.00">followers</text>
</g>
<!-- User&#45;&gt;Clipping -->
<g id="edge11" class="edge"><title>User&#45;&gt;Clipping</title>
<path fill="none" stroke="#f289cc" d="M331.59,-155.901C332.977,-134.215 335.063,-102.036 337,-74 337.619,-65.0369 338.322,-55.2543 338.964,-46.4575"/>
<ellipse fill="none" stroke="#f289cc" cx="331.332" cy="-159.956" rx="4" ry="4"/>
<polygon fill="#f289cc" stroke="#f289cc" points="338.974,-46.3107 344.195,-36.6671 339.341,-41.3241 339.707,-36.3375 339.707,-36.3375 339.707,-36.3375 339.341,-41.3241 335.219,-36.008 338.974,-46.3107 338.974,-46.3107"/>
</g>
<!-- User&#45;&gt;Folder -->
<g id="edge12" class="edge"><title>User&#45;&gt;Folder</title>
<path fill="none" stroke="#08b82b" d="M341.267,-157.025C345.852,-147.787 351.389,-137.241 357,-128 359.12,-124.509 361.474,-120.913 363.867,-117.415"/>
<ellipse fill="none" stroke="#08b82b" cx="339.412" cy="-160.826" rx="4.00002" ry="4.00002"/>
<polygon fill="#08b82b" stroke="#08b82b" points="364.013,-117.209 373.457,-111.636 366.897,-113.124 369.781,-109.04 369.781,-109.04 369.781,-109.04 366.897,-113.124 366.106,-106.444 364.013,-117.209 364.013,-117.209"/>
</g>
<!-- User&#45;&gt;SharedFolder -->
<g id="edge13" class="edge"><title>User&#45;&gt;SharedFolder</title>
<path fill="none" stroke="#3a2397" d="M366.943,-178.643C413.872,-174.865 491.165,-165.769 511,-146 537.11,-119.977 540.023,-75.1568 538.747,-46.3148"/>
<ellipse fill="none" stroke="#3a2397" cx="362.825" cy="-178.959" rx="4" ry="4"/>
<polygon fill="#3a2397" stroke="#3a2397" points="538.733,-46.0951 542.583,-35.8274 538.413,-41.1054 538.093,-36.1156 538.093,-36.1156 538.093,-36.1156 538.413,-41.1054 533.602,-36.4039 538.733,-46.0951 538.733,-46.0951"/>
</g>
<!-- User&#45;&gt;SharedFolder -->
<g id="edge14" class="edge"><title>User&#45;&gt;SharedFolder</title>
<path fill="none" stroke="#7fe080" d="M367.087,-178.512C417.864,-174.45 505.63,-164.88 531,-146 564.646,-120.961 560.923,-94.9804 552,-54 551.374,-51.1235 550.489,-48.2003 549.453,-45.3317"/>
<ellipse fill="none" stroke="#7fe080" cx="362.955" cy="-178.832" rx="4" ry="4"/>
<polygon fill="#7fe080" stroke="#7fe080" points="549.38,-45.1563 549.656,-34.1939 547.444,-40.5464 545.507,-35.9365 545.507,-35.9365 545.507,-35.9365 547.444,-40.5464 541.358,-37.6791 549.38,-45.1563 549.38,-45.1563"/>
<text text-anchor="middle" x="618.259" y="-86.4" font-family="Times,serif" font-size="14.00">being_shared_folders</text>
</g>
<!-- User&#45;&gt;Folder -->
<g id="edge15" class="edge"><title>User&#45;&gt;Folder</title>
<path fill="none" stroke="#2a3da5" d="M347.178,-156.716C349.536,-153.164 351.874,-149.517 354,-146 359.217,-137.366 364.498,-127.671 369.046,-118.957"/>
<polygon fill="#2a3da5" stroke="#2a3da5" points="347.013,-156.957 337.666,-162.692 344.2,-161.091 341.386,-165.224 341.386,-165.224 341.386,-165.224 344.2,-161.091 345.107,-167.756 347.013,-156.957 347.013,-156.957"/>
<polygon fill="#2a3da5" stroke="#2a3da5" points="369.087,-118.878 377.659,-112.039 371.372,-114.431 373.656,-109.983 373.656,-109.983 373.656,-109.983 371.372,-114.431 369.654,-107.927 369.087,-118.878 369.087,-118.878"/>
<text text-anchor="middle" x="435.314" y="-131.4" font-family="Times,serif" font-size="14.00">shared_folders_by_others</text>
</g>
</g>
</svg>
