<?xml version="1.0" encoding="UTF-8" standalone="no"?>
<!DOCTYPE svg PUBLIC "-//W3C//DTD SVG 1.1//EN"
 "http://www.w3.org/Graphics/SVG/1.1/DTD/svg11.dtd">
<!-- Generated by graphviz version 2.29.20121115.0545 (20121115.0545)
 -->
<!-- Title: models_diagram Pages: 1 -->
<svg width="636pt" height="332pt"
 viewBox="0.00 0.00 635.87 332.00" xmlns="http://www.w3.org/2000/svg" xmlns:xlink="http://www.w3.org/1999/xlink">
<g id="graph0" class="graph" transform="scale(1 1) rotate(0) translate(4 328)">
<title>models_diagram</title>
<polygon fill="white" stroke="white" points="-4,5 -4,-328 632.869,-328 632.869,5 -4,5"/>
<!-- _diagram_info -->
<g id="node1" class="node"><title>_diagram_info</title>
<text text-anchor="start" x="7.78833" y="-307" font-family="Times,serif" font-size="13.00">Models diagram</text>
<text text-anchor="start" x="7.78833" y="-291.4" font-family="Times,serif" font-size="13.00">Date: Nov 15 2012 &#45; 17:20</text>
<text text-anchor="start" x="7.78833" y="-275.8" font-family="Times,serif" font-size="13.00">Migration version: 20121115055226</text>
<text text-anchor="start" x="7.78833" y="-260.2" font-family="Times,serif" font-size="13.00">Generated by RailRoady 1.1.0</text>
<text text-anchor="start" x="7.78833" y="-244.6" font-family="Times,serif" font-size="13.00">http://railroady.prestonlee.com</text>
</g>
<!-- Clipping -->
<g id="node2" class="node"><title>Clipping</title>
<ellipse fill="none" stroke="black" cx="486" cy="-18" rx="44.2628" ry="18"/>
<text text-anchor="middle" x="486" y="-12.4" font-family="Times,serif" font-size="14.00">Clipping</text>
</g>
<!-- Folder -->
<g id="node3" class="node"><title>Folder</title>
<ellipse fill="none" stroke="black" cx="528" cy="-92" rx="36.3747" ry="18"/>
<text text-anchor="middle" x="528" y="-86.4" font-family="Times,serif" font-size="14.00">Folder</text>
</g>
<!-- Folder&#45;&gt;Folder -->
<g id="edge1" class="edge"><title>Folder&#45;&gt;Folder</title>
<path fill="none" stroke="#418c8d" d="M570.112,-98.2737C577.146,-97.3959 582,-95.3047 582,-92 582,-88.9766 577.937,-86.9688 571.859,-85.9767"/>
<ellipse fill="none" stroke="#418c8d" cx="565.744" cy="-98.5225" rx="4" ry="4"/>
<polygon fill="#418c8d" stroke="#418c8d" points="571.724,-85.9671 562.073,-80.7616 566.737,-85.6086 561.75,-85.25 561.75,-85.25 561.75,-85.25 566.737,-85.6086 561.427,-89.7384 571.724,-85.9671 571.724,-85.9671"/>
<text text-anchor="middle" x="604.935" y="-86.4" font-family="Times,serif" font-size="14.00">children</text>
</g>
<!-- Folder&#45;&gt;Clipping -->
<g id="edge2" class="edge"><title>Folder&#45;&gt;Clipping</title>
<path fill="none" stroke="#3cc884" d="M514.062,-67.1055C509.827,-59.846 505.158,-51.8431 500.865,-44.4831"/>
<ellipse fill="none" stroke="#3cc884" cx="516.243" cy="-70.8457" rx="4.00002" ry="4.00002"/>
<polygon fill="#3cc884" stroke="#3cc884" points="500.727,-44.2465 499.575,-33.3412 498.208,-39.9276 495.688,-35.6087 495.688,-35.6087 495.688,-35.6087 498.208,-39.9276 491.801,-37.8761 500.727,-44.2465 500.727,-44.2465"/>
</g>
<!-- Membership -->
<g id="node4" class="node"><title>Membership</title>
<ellipse fill="none" stroke="black" cx="223" cy="-182" rx="59.2755" ry="18"/>
<text text-anchor="middle" x="223" y="-176.4" font-family="Times,serif" font-size="14.00">Membership</text>
</g>
<!-- Micropost -->
<g id="node5" class="node"><title>Micropost</title>
<ellipse fill="none" stroke="black" cx="201" cy="-92" rx="50.6014" ry="18"/>
<text text-anchor="middle" x="201" y="-86.4" font-family="Times,serif" font-size="14.00">Micropost</text>
</g>
<!-- Relationship -->
<g id="node6" class="node"><title>Relationship</title>
<ellipse fill="none" stroke="black" cx="330" cy="-92" rx="59.2825" ry="18"/>
<text text-anchor="middle" x="330" y="-86.4" font-family="Times,serif" font-size="14.00">Relationship</text>
</g>
<!-- Tribe -->
<g id="node7" class="node"><title>Tribe</title>
<ellipse fill="none" stroke="black" cx="256" cy="-281" rx="31.4204" ry="18"/>
<text text-anchor="middle" x="256" y="-275.4" font-family="Times,serif" font-size="14.00">Tribe</text>
</g>
<!-- Tribe&#45;&gt;Membership -->
<g id="edge3" class="edge"><title>Tribe&#45;&gt;Membership</title>
<path fill="none" stroke="#f00847" d="M247.53,-255.104C242.802,-241.205 236.91,-223.886 232.085,-209.705"/>
<ellipse fill="none" stroke="#f00847" cx="248.963" cy="-259.317" rx="4.00001" ry="4.00001"/>
<polygon fill="#f00847" stroke="#f00847" points="232.014,-209.495 233.053,-198.579 230.403,-204.762 228.793,-200.028 228.793,-200.028 228.793,-200.028 230.403,-204.762 224.533,-201.477 232.014,-209.495 232.014,-209.495"/>
</g>
<!-- User -->
<g id="node8" class="node"><title>User</title>
<ellipse fill="none" stroke="black" cx="330" cy="-182" rx="28.9087" ry="18"/>
<text text-anchor="middle" x="330" y="-176.4" font-family="Times,serif" font-size="14.00">User</text>
</g>
<!-- Tribe&#45;&gt;User -->
<g id="edge4" class="edge"><title>Tribe&#45;&gt;User</title>
<path fill="none" stroke="#596333" d="M274.495,-255.756C285.879,-240.834 300.41,-221.786 311.749,-206.924"/>
<polygon fill="#596333" stroke="#596333" points="274.285,-256.032 264.642,-261.253 271.252,-260.007 268.22,-263.982 268.22,-263.982 268.22,-263.982 271.252,-260.007 271.797,-266.712 274.285,-256.032 274.285,-256.032"/>
<polygon fill="#596333" stroke="#596333" points="311.942,-206.67 321.586,-201.449 314.975,-202.695 318.008,-198.72 318.008,-198.72 318.008,-198.72 314.975,-202.695 314.43,-195.99 311.942,-206.67 311.942,-206.67"/>
</g>
<!-- User&#45;&gt;Micropost -->
<g id="edge5" class="edge"><title>User&#45;&gt;Micropost</title>
<path fill="none" stroke="#5fd635" d="M304.576,-163.656C283.649,-149.381 253.916,-129.098 231.671,-113.923"/>
<ellipse fill="none" stroke="#5fd635" cx="307.938" cy="-165.95" rx="4.00002" ry="4.00002"/>
<polygon fill="#5fd635" stroke="#5fd635" points="231.507,-113.811 225.782,-104.458 227.376,-110.993 223.246,-108.175 223.246,-108.175 223.246,-108.175 227.376,-110.993 220.71,-111.893 231.507,-113.811 231.507,-113.811"/>
</g>
<!-- User&#45;&gt;Relationship -->
<g id="edge6" class="edge"><title>User&#45;&gt;Relationship</title>
<path fill="none" stroke="#053338" d="M315.272,-157.587C313.512,-153.834 311.99,-149.899 311,-146 309.031,-138.246 309.031,-135.754 311,-128 311.775,-124.949 312.875,-121.876 314.16,-118.885"/>
<ellipse fill="none" stroke="#053338" cx="317.275" cy="-161.42" rx="4.00002" ry="4.00002"/>
<polygon fill="#053338" stroke="#053338" points="314.259,-118.688 322.752,-111.751 316.492,-114.215 318.725,-109.741 318.725,-109.741 318.725,-109.741 316.492,-114.215 314.699,-107.731 314.259,-118.688 314.259,-118.688"/>
</g>
<!-- User&#45;&gt;User -->
<g id="edge7" class="edge"><title>User&#45;&gt;User</title>
<path fill="none" stroke="#e6474b" d="M367.317,-188.173C373.079,-187.241 377,-185.184 377,-182 377,-178.816 373.079,-176.759 367.317,-175.827"/>
<polygon fill="#e6474b" stroke="#e6474b" points="367.033,-188.187 356.812,-184.215 362.04,-188.448 357.047,-188.709 357.047,-188.709 357.047,-188.709 362.04,-188.448 357.282,-193.203 367.033,-188.187 367.033,-188.187"/>
<polygon fill="#e6474b" stroke="#e6474b" points="367.033,-175.813 357.282,-170.797 362.04,-175.552 357.047,-175.291 357.047,-175.291 357.047,-175.291 362.04,-175.552 356.812,-179.785 367.033,-175.813 367.033,-175.813"/>
<text text-anchor="middle" x="404.221" y="-176.4" font-family="Times,serif" font-size="14.00">following</text>
</g>
<!-- User&#45;&gt;Relationship -->
<g id="edge8" class="edge"><title>User&#45;&gt;Relationship</title>
<path fill="none" stroke="#d53146" d="M330,-155.462C330,-144.397 330,-131.428 330,-120.184"/>
<ellipse fill="none" stroke="#d53146" cx="330" cy="-159.614" rx="4" ry="4"/>
<polygon fill="#d53146" stroke="#d53146" points="330,-120.05 334.5,-110.05 330,-115.05 330,-110.05 330,-110.05 330,-110.05 330,-115.05 325.5,-110.05 330,-120.05 330,-120.05"/>
<text text-anchor="middle" x="389.479" y="-131.4" font-family="Times,serif" font-size="14.00">reverse_relationships</text>
</g>
<!-- User&#45;&gt;User -->
<g id="edge9" class="edge"><title>User&#45;&gt;User</title>
<path fill="none" stroke="#93f2f7" d="M367.317,-188.173C373.079,-187.241 377,-185.184 377,-182 377,-178.816 373.079,-176.759 367.317,-175.827"/>
<polygon fill="#93f2f7" stroke="#93f2f7" points="367.033,-188.187 356.812,-184.215 362.04,-188.448 357.047,-188.709 357.047,-188.709 357.047,-188.709 362.04,-188.448 357.282,-193.203 367.033,-188.187 367.033,-188.187"/>
<polygon fill="#93f2f7" stroke="#93f2f7" points="367.033,-175.813 357.282,-170.797 362.04,-175.552 357.047,-175.291 357.047,-175.291 357.047,-175.291 362.04,-175.552 356.812,-179.785 367.033,-175.813 367.033,-175.813"/>
<text text-anchor="middle" x="403.438" y="-176.4" font-family="Times,serif" font-size="14.00">followers</text>
</g>
<!-- User&#45;&gt;Clipping -->
<g id="edge10" class="edge"><title>User&#45;&gt;Clipping</title>
<path fill="none" stroke="#52ba2b" d="M367.467,-179.35C393.907,-176.21 428.343,-167.821 450,-146 476.339,-119.461 483.728,-75.1639 485.622,-46.5244"/>
<ellipse fill="none" stroke="#52ba2b" cx="363.17" cy="-179.789" rx="4" ry="4"/>
<polygon fill="#52ba2b" stroke="#52ba2b" points="485.63,-46.3729 490.603,-36.5995 485.869,-41.3787 486.108,-36.3844 486.108,-36.3844 486.108,-36.3844 485.869,-41.3787 481.613,-36.1692 485.63,-46.3729 485.63,-46.3729"/>
</g>
<!-- User&#45;&gt;Folder -->
<g id="edge11" class="edge"><title>User&#45;&gt;Folder</title>
<path fill="none" stroke="#581cf0" d="M366.838,-178.223C398.178,-174.524 443.467,-165.927 478,-146 490.449,-138.816 501.697,-127.568 510.358,-117.279"/>
<ellipse fill="none" stroke="#581cf0" cx="362.764" cy="-178.668" rx="4.00001" ry="4.00001"/>
<polygon fill="#581cf0" stroke="#581cf0" points="510.473,-117.136 520.236,-112.142 513.598,-113.233 516.723,-109.329 516.723,-109.329 516.723,-109.329 513.598,-113.233 513.21,-106.517 510.473,-117.136 510.473,-117.136"/>
</g>
</g>
</svg>
