<?xml version="1.0" encoding="UTF-8" standalone="no"?>
<!DOCTYPE svg PUBLIC "-//W3C//DTD SVG 1.1//EN"
 "http://www.w3.org/Graphics/SVG/1.1/DTD/svg11.dtd">
<!-- Generated by graphviz version 2.29.20121115.0545 (20121115.0545)
 -->
<!-- Title: models_diagram Pages: 1 -->
<svg width="1366pt" height="812pt"
 viewBox="0.00 0.00 1365.52 812.00" xmlns="http://www.w3.org/2000/svg" xmlns:xlink="http://www.w3.org/1999/xlink">
<g id="graph0" class="graph" transform="scale(1 1) rotate(0) translate(4 808)">
<title>models_diagram</title>
<polygon fill="white" stroke="white" points="-4,5 -4,-808 1362.52,-808 1362.52,5 -4,5"/>
<!-- _diagram_info -->
<g id="node1" class="node"><title>_diagram_info</title>
<text text-anchor="start" x="370.55" y="-771" font-family="Times,serif" font-size="13.00">Models diagram</text>
<text text-anchor="start" x="370.55" y="-755.4" font-family="Times,serif" font-size="13.00">Date: Jan 22 2013 &#45; 23:26</text>
<text text-anchor="start" x="370.55" y="-739.8" font-family="Times,serif" font-size="13.00">Migration version: 20130123041134</text>
<text text-anchor="start" x="370.55" y="-724.2" font-family="Times,serif" font-size="13.00">Generated by RailRoady 1.1.0</text>
<text text-anchor="start" x="370.55" y="-708.6" font-family="Times,serif" font-size="13.00">http://railroady.prestonlee.com</text>
</g>
<!-- Barrier -->
<g id="node2" class="node"><title>Barrier</title>
<path fill="none" stroke="black" d="M796.495,-258.2C796.495,-258.2 905.505,-258.2 905.505,-258.2 911.505,-258.2 917.505,-264.2 917.505,-270.2 917.505,-270.2 917.505,-379.8 917.505,-379.8 917.505,-385.8 911.505,-391.8 905.505,-391.8 905.505,-391.8 796.495,-391.8 796.495,-391.8 790.495,-391.8 784.495,-385.8 784.495,-379.8 784.495,-379.8 784.495,-270.2 784.495,-270.2 784.495,-264.2 790.495,-258.2 796.495,-258.2"/>
<text text-anchor="middle" x="851" y="-373.8" font-family="Times,serif" font-size="14.00">Barrier</text>
<polyline fill="none" stroke="black" points="784.495,-367 917.505,-367 "/>
<text text-anchor="start" x="792.495" y="-349" font-family="Times,serif" font-size="14.00">id :integer</text>
<text text-anchor="start" x="792.495" y="-332.2" font-family="Times,serif" font-size="14.00">barrier :text</text>
<text text-anchor="start" x="792.495" y="-315.4" font-family="Times,serif" font-size="14.00">intervention :text</text>
<text text-anchor="start" x="792.495" y="-298.6" font-family="Times,serif" font-size="14.00">user_id :integer</text>
<text text-anchor="start" x="792.495" y="-281.8" font-family="Times,serif" font-size="14.00">created_at :datetime</text>
<text text-anchor="start" x="792.495" y="-265" font-family="Times,serif" font-size="14.00">updated_at :datetime</text>
</g>
<!-- Clipping -->
<g id="node3" class="node"><title>Clipping</title>
<path fill="none" stroke="black" d="M876.891,-1C876.891,-1 1069.11,-1 1069.11,-1 1075.11,-1 1081.11,-7 1081.11,-13 1081.11,-13 1081.11,-173 1081.11,-173 1081.11,-179 1075.11,-185 1069.11,-185 1069.11,-185 876.891,-185 876.891,-185 870.891,-185 864.891,-179 864.891,-173 864.891,-173 864.891,-13 864.891,-13 864.891,-7 870.891,-1 876.891,-1"/>
<text text-anchor="middle" x="973" y="-167" font-family="Times,serif" font-size="14.00">Clipping</text>
<polyline fill="none" stroke="black" points="864.891,-160.2 1081.11,-160.2 "/>
<text text-anchor="start" x="872.891" y="-142.2" font-family="Times,serif" font-size="14.00">id :integer</text>
<text text-anchor="start" x="872.891" y="-125.4" font-family="Times,serif" font-size="14.00">user_id :integer</text>
<text text-anchor="start" x="872.891" y="-108.6" font-family="Times,serif" font-size="14.00">created_at :datetime</text>
<text text-anchor="start" x="872.891" y="-91.8" font-family="Times,serif" font-size="14.00">updated_at :datetime</text>
<text text-anchor="start" x="872.891" y="-75" font-family="Times,serif" font-size="14.00">uploaded_file_file_name :string</text>
<text text-anchor="start" x="872.891" y="-58.2" font-family="Times,serif" font-size="14.00">uploaded_file_content_type :string</text>
<text text-anchor="start" x="872.891" y="-41.4" font-family="Times,serif" font-size="14.00">uploaded_file_file_size :integer</text>
<text text-anchor="start" x="872.891" y="-24.6" font-family="Times,serif" font-size="14.00">uploaded_file_updated_at :datetime</text>
<text text-anchor="start" x="872.891" y="-7.8" font-family="Times,serif" font-size="14.00">folder_id :integer</text>
</g>
<!-- Folder -->
<g id="node4" class="node"><title>Folder</title>
<path fill="none" stroke="black" d="M986.495,-258.2C986.495,-258.2 1095.51,-258.2 1095.51,-258.2 1101.51,-258.2 1107.51,-264.2 1107.51,-270.2 1107.51,-270.2 1107.51,-379.8 1107.51,-379.8 1107.51,-385.8 1101.51,-391.8 1095.51,-391.8 1095.51,-391.8 986.495,-391.8 986.495,-391.8 980.495,-391.8 974.495,-385.8 974.495,-379.8 974.495,-379.8 974.495,-270.2 974.495,-270.2 974.495,-264.2 980.495,-258.2 986.495,-258.2"/>
<text text-anchor="middle" x="1041" y="-373.8" font-family="Times,serif" font-size="14.00">Folder</text>
<polyline fill="none" stroke="black" points="974.495,-367 1107.51,-367 "/>
<text text-anchor="start" x="982.495" y="-349" font-family="Times,serif" font-size="14.00">id :integer</text>
<text text-anchor="start" x="982.495" y="-332.2" font-family="Times,serif" font-size="14.00">name :string</text>
<text text-anchor="start" x="982.495" y="-315.4" font-family="Times,serif" font-size="14.00">parent_id :integer</text>
<text text-anchor="start" x="982.495" y="-298.6" font-family="Times,serif" font-size="14.00">user_id :integer</text>
<text text-anchor="start" x="982.495" y="-281.8" font-family="Times,serif" font-size="14.00">created_at :datetime</text>
<text text-anchor="start" x="982.495" y="-265" font-family="Times,serif" font-size="14.00">updated_at :datetime</text>
</g>
<!-- Folder&#45;&gt;Folder -->
<g id="edge1" class="edge"><title>Folder&#45;&gt;Folder</title>
<path fill="none" stroke="#c7dbfd" d="M1115.05,-342.361C1121.18,-338.618 1125,-332.831 1125,-325 1125,-318.002 1121.95,-312.636 1116.92,-308.903"/>
<ellipse fill="none" stroke="#c7dbfd" cx="1111.21" cy="-344.026" rx="4.00002" ry="4.00002"/>
<polygon fill="#c7dbfd" stroke="#c7dbfd" points="1116.55,-308.723 1109.5,-300.327 1112.05,-306.552 1107.54,-304.38 1107.54,-304.38 1107.54,-304.38 1112.05,-306.552 1105.59,-308.433 1116.55,-308.723 1116.55,-308.723"/>
<text text-anchor="middle" x="1147.93" y="-319.4" font-family="Times,serif" font-size="14.00">children</text>
</g>
<!-- Folder&#45;&gt;Clipping -->
<g id="edge2" class="edge"><title>Folder&#45;&gt;Clipping</title>
<path fill="none" stroke="#68056f" d="M1019.2,-250.263C1013.99,-232.63 1008.33,-213.506 1002.83,-194.883"/>
<ellipse fill="none" stroke="#68056f" cx="1020.38" cy="-254.255" rx="4.00001" ry="4.00001"/>
<polygon fill="#68056f" stroke="#68056f" points="1002.8,-194.79 1004.28,-183.924 1001.38,-189.995 999.964,-185.2 999.964,-185.2 999.964,-185.2 1001.38,-189.995 995.648,-186.476 1002.8,-194.79 1002.8,-194.79"/>
</g>
<!-- SharedFolder -->
<g id="node11" class="node"><title>SharedFolder</title>
<path fill="none" stroke="black" d="M1137.49,-9.4C1137.49,-9.4 1260.51,-9.4 1260.51,-9.4 1266.51,-9.4 1272.51,-15.4 1272.51,-21.4 1272.51,-21.4 1272.51,-164.6 1272.51,-164.6 1272.51,-170.6 1266.51,-176.6 1260.51,-176.6 1260.51,-176.6 1137.49,-176.6 1137.49,-176.6 1131.49,-176.6 1125.49,-170.6 1125.49,-164.6 1125.49,-164.6 1125.49,-21.4 1125.49,-21.4 1125.49,-15.4 1131.49,-9.4 1137.49,-9.4"/>
<text text-anchor="middle" x="1199" y="-158.6" font-family="Times,serif" font-size="14.00">SharedFolder</text>
<polyline fill="none" stroke="black" points="1125.49,-151.8 1272.51,-151.8 "/>
<text text-anchor="start" x="1133.49" y="-133.8" font-family="Times,serif" font-size="14.00">id :integer</text>
<text text-anchor="start" x="1133.49" y="-117" font-family="Times,serif" font-size="14.00">user_id :integer</text>
<text text-anchor="start" x="1133.49" y="-100.2" font-family="Times,serif" font-size="14.00">shared_email :string</text>
<text text-anchor="start" x="1133.49" y="-83.4" font-family="Times,serif" font-size="14.00">shared_user_id :integer</text>
<text text-anchor="start" x="1133.49" y="-66.6" font-family="Times,serif" font-size="14.00">folder_id :integer</text>
<text text-anchor="start" x="1133.49" y="-49.8" font-family="Times,serif" font-size="14.00">message :string</text>
<text text-anchor="start" x="1133.49" y="-33" font-family="Times,serif" font-size="14.00">created_at :datetime</text>
<text text-anchor="start" x="1133.49" y="-16.2" font-family="Times,serif" font-size="14.00">updated_at :datetime</text>
</g>
<!-- Folder&#45;&gt;SharedFolder -->
<g id="edge3" class="edge"><title>Folder&#45;&gt;SharedFolder</title>
<path fill="none" stroke="#1e2bc1" d="M1090.82,-251.472C1105.29,-230.415 1121.27,-207.147 1136.41,-185.105"/>
<ellipse fill="none" stroke="#1e2bc1" cx="1088.54" cy="-254.794" rx="4.00002" ry="4.00002"/>
<polygon fill="#1e2bc1" stroke="#1e2bc1" points="1136.51,-184.967 1145.88,-179.272 1139.34,-180.846 1142.17,-176.724 1142.17,-176.724 1142.17,-176.724 1139.34,-180.846 1138.46,-174.176 1136.51,-184.967 1136.51,-184.967"/>
</g>
<!-- Goal -->
<g id="node5" class="node"><title>Goal</title>
<path fill="none" stroke="black" d="M615.315,-224.6C615.315,-224.6 754.685,-224.6 754.685,-224.6 760.685,-224.6 766.685,-230.6 766.685,-236.6 766.685,-236.6 766.685,-413.4 766.685,-413.4 766.685,-419.4 760.685,-425.4 754.685,-425.4 754.685,-425.4 615.315,-425.4 615.315,-425.4 609.315,-425.4 603.315,-419.4 603.315,-413.4 603.315,-413.4 603.315,-236.6 603.315,-236.6 603.315,-230.6 609.315,-224.6 615.315,-224.6"/>
<text text-anchor="middle" x="685" y="-407.4" font-family="Times,serif" font-size="14.00">Goal</text>
<polyline fill="none" stroke="black" points="603.315,-400.6 766.685,-400.6 "/>
<text text-anchor="start" x="611.315" y="-382.6" font-family="Times,serif" font-size="14.00">id :integer</text>
<text text-anchor="start" x="611.315" y="-365.8" font-family="Times,serif" font-size="14.00">goal :string</text>
<text text-anchor="start" x="611.315" y="-349" font-family="Times,serif" font-size="14.00">action :text</text>
<text text-anchor="start" x="611.315" y="-332.2" font-family="Times,serif" font-size="14.00">person_responsible :string</text>
<text text-anchor="start" x="611.315" y="-315.4" font-family="Times,serif" font-size="14.00">expected_outcome :text</text>
<text text-anchor="start" x="611.315" y="-298.6" font-family="Times,serif" font-size="14.00">target_date :date</text>
<text text-anchor="start" x="611.315" y="-281.8" font-family="Times,serif" font-size="14.00">results :text</text>
<text text-anchor="start" x="611.315" y="-265" font-family="Times,serif" font-size="14.00">user_id :integer</text>
<text text-anchor="start" x="611.315" y="-248.2" font-family="Times,serif" font-size="14.00">created_at :datetime</text>
<text text-anchor="start" x="611.315" y="-231.4" font-family="Times,serif" font-size="14.00">updated_at :datetime</text>
</g>
<!-- Medication -->
<g id="node6" class="node"><title>Medication</title>
<path fill="none" stroke="black" d="M313.495,-241.4C313.495,-241.4 422.505,-241.4 422.505,-241.4 428.505,-241.4 434.505,-247.4 434.505,-253.4 434.505,-253.4 434.505,-396.6 434.505,-396.6 434.505,-402.6 428.505,-408.6 422.505,-408.6 422.505,-408.6 313.495,-408.6 313.495,-408.6 307.495,-408.6 301.495,-402.6 301.495,-396.6 301.495,-396.6 301.495,-253.4 301.495,-253.4 301.495,-247.4 307.495,-241.4 313.495,-241.4"/>
<text text-anchor="middle" x="368" y="-390.6" font-family="Times,serif" font-size="14.00">Medication</text>
<polyline fill="none" stroke="black" points="301.495,-383.8 434.505,-383.8 "/>
<text text-anchor="start" x="309.495" y="-365.8" font-family="Times,serif" font-size="14.00">id :integer</text>
<text text-anchor="start" x="309.495" y="-349" font-family="Times,serif" font-size="14.00">name :string</text>
<text text-anchor="start" x="309.495" y="-332.2" font-family="Times,serif" font-size="14.00">problem :string</text>
<text text-anchor="start" x="309.495" y="-315.4" font-family="Times,serif" font-size="14.00">dosage :string</text>
<text text-anchor="start" x="309.495" y="-298.6" font-family="Times,serif" font-size="14.00">instructions :string</text>
<text text-anchor="start" x="309.495" y="-281.8" font-family="Times,serif" font-size="14.00">user_id :integer</text>
<text text-anchor="start" x="309.495" y="-265" font-family="Times,serif" font-size="14.00">created_at :datetime</text>
<text text-anchor="start" x="309.495" y="-248.2" font-family="Times,serif" font-size="14.00">updated_at :datetime</text>
</g>
<!-- Membership -->
<g id="node7" class="node"><title>Membership</title>
<path fill="none" stroke="black" d="M553.495,-505.6C553.495,-505.6 662.505,-505.6 662.505,-505.6 668.505,-505.6 674.505,-511.6 674.505,-517.6 674.505,-517.6 674.505,-610.4 674.505,-610.4 674.505,-616.4 668.505,-622.4 662.505,-622.4 662.505,-622.4 553.495,-622.4 553.495,-622.4 547.495,-622.4 541.495,-616.4 541.495,-610.4 541.495,-610.4 541.495,-517.6 541.495,-517.6 541.495,-511.6 547.495,-505.6 553.495,-505.6"/>
<text text-anchor="middle" x="608" y="-604.4" font-family="Times,serif" font-size="14.00">Membership</text>
<polyline fill="none" stroke="black" points="541.495,-597.6 674.505,-597.6 "/>
<text text-anchor="start" x="549.495" y="-579.6" font-family="Times,serif" font-size="14.00">id :integer</text>
<text text-anchor="start" x="549.495" y="-562.8" font-family="Times,serif" font-size="14.00">user_id :integer</text>
<text text-anchor="start" x="549.495" y="-546" font-family="Times,serif" font-size="14.00">tribe_id :integer</text>
<text text-anchor="start" x="549.495" y="-529.2" font-family="Times,serif" font-size="14.00">created_at :datetime</text>
<text text-anchor="start" x="549.495" y="-512.4" font-family="Times,serif" font-size="14.00">updated_at :datetime</text>
</g>
<!-- Micropost -->
<g id="node8" class="node"><title>Micropost</title>
<path fill="none" stroke="black" d="M11.4946,-266.6C11.4946,-266.6 120.505,-266.6 120.505,-266.6 126.505,-266.6 132.505,-272.6 132.505,-278.6 132.505,-278.6 132.505,-371.4 132.505,-371.4 132.505,-377.4 126.505,-383.4 120.505,-383.4 120.505,-383.4 11.4946,-383.4 11.4946,-383.4 5.49463,-383.4 -0.505371,-377.4 -0.505371,-371.4 -0.505371,-371.4 -0.505371,-278.6 -0.505371,-278.6 -0.505371,-272.6 5.49463,-266.6 11.4946,-266.6"/>
<text text-anchor="middle" x="66" y="-365.4" font-family="Times,serif" font-size="14.00">Micropost</text>
<polyline fill="none" stroke="black" points="-0.505371,-358.6 132.505,-358.6 "/>
<text text-anchor="start" x="7.49463" y="-340.6" font-family="Times,serif" font-size="14.00">id :integer</text>
<text text-anchor="start" x="7.49463" y="-323.8" font-family="Times,serif" font-size="14.00">content :text</text>
<text text-anchor="start" x="7.49463" y="-307" font-family="Times,serif" font-size="14.00">user_id :integer</text>
<text text-anchor="start" x="7.49463" y="-290.2" font-family="Times,serif" font-size="14.00">created_at :datetime</text>
<text text-anchor="start" x="7.49463" y="-273.4" font-family="Times,serif" font-size="14.00">updated_at :datetime</text>
</g>
<!-- Problem -->
<g id="node9" class="node"><title>Problem</title>
<path fill="none" stroke="black" d="M464.495,-249.8C464.495,-249.8 573.505,-249.8 573.505,-249.8 579.505,-249.8 585.505,-255.8 585.505,-261.8 585.505,-261.8 585.505,-388.2 585.505,-388.2 585.505,-394.2 579.505,-400.2 573.505,-400.2 573.505,-400.2 464.495,-400.2 464.495,-400.2 458.495,-400.2 452.495,-394.2 452.495,-388.2 452.495,-388.2 452.495,-261.8 452.495,-261.8 452.495,-255.8 458.495,-249.8 464.495,-249.8"/>
<text text-anchor="middle" x="519" y="-382.2" font-family="Times,serif" font-size="14.00">Problem</text>
<polyline fill="none" stroke="black" points="452.495,-375.4 585.505,-375.4 "/>
<text text-anchor="start" x="460.495" y="-357.4" font-family="Times,serif" font-size="14.00">id :integer</text>
<text text-anchor="start" x="460.495" y="-340.6" font-family="Times,serif" font-size="14.00">problem :string</text>
<text text-anchor="start" x="460.495" y="-323.8" font-family="Times,serif" font-size="14.00">code :string</text>
<text text-anchor="start" x="460.495" y="-307" font-family="Times,serif" font-size="14.00">notes :text</text>
<text text-anchor="start" x="460.495" y="-290.2" font-family="Times,serif" font-size="14.00">user_id :integer</text>
<text text-anchor="start" x="460.495" y="-273.4" font-family="Times,serif" font-size="14.00">created_at :datetime</text>
<text text-anchor="start" x="460.495" y="-256.6" font-family="Times,serif" font-size="14.00">updated_at :datetime</text>
</g>
<!-- Relationship -->
<g id="node10" class="node"><title>Relationship</title>
<path fill="none" stroke="black" d="M162.495,-266.6C162.495,-266.6 271.505,-266.6 271.505,-266.6 277.505,-266.6 283.505,-272.6 283.505,-278.6 283.505,-278.6 283.505,-371.4 283.505,-371.4 283.505,-377.4 277.505,-383.4 271.505,-383.4 271.505,-383.4 162.495,-383.4 162.495,-383.4 156.495,-383.4 150.495,-377.4 150.495,-371.4 150.495,-371.4 150.495,-278.6 150.495,-278.6 150.495,-272.6 156.495,-266.6 162.495,-266.6"/>
<text text-anchor="middle" x="217" y="-365.4" font-family="Times,serif" font-size="14.00">Relationship</text>
<polyline fill="none" stroke="black" points="150.495,-358.6 283.505,-358.6 "/>
<text text-anchor="start" x="158.495" y="-340.6" font-family="Times,serif" font-size="14.00">id :integer</text>
<text text-anchor="start" x="158.495" y="-323.8" font-family="Times,serif" font-size="14.00">follower_id :integer</text>
<text text-anchor="start" x="158.495" y="-307" font-family="Times,serif" font-size="14.00">followed_id :integer</text>
<text text-anchor="start" x="158.495" y="-290.2" font-family="Times,serif" font-size="14.00">created_at :datetime</text>
<text text-anchor="start" x="158.495" y="-273.4" font-family="Times,serif" font-size="14.00">updated_at :datetime</text>
</g>
<!-- Tribe -->
<g id="node12" class="node"><title>Tribe</title>
<path fill="none" stroke="black" d="M599.495,-686.6C599.495,-686.6 708.505,-686.6 708.505,-686.6 714.505,-686.6 720.505,-692.6 720.505,-698.6 720.505,-698.6 720.505,-791.4 720.505,-791.4 720.505,-797.4 714.505,-803.4 708.505,-803.4 708.505,-803.4 599.495,-803.4 599.495,-803.4 593.495,-803.4 587.495,-797.4 587.495,-791.4 587.495,-791.4 587.495,-698.6 587.495,-698.6 587.495,-692.6 593.495,-686.6 599.495,-686.6"/>
<text text-anchor="middle" x="654" y="-785.4" font-family="Times,serif" font-size="14.00">Tribe</text>
<polyline fill="none" stroke="black" points="587.495,-778.6 720.505,-778.6 "/>
<text text-anchor="start" x="595.495" y="-760.6" font-family="Times,serif" font-size="14.00">id :integer</text>
<text text-anchor="start" x="595.495" y="-743.8" font-family="Times,serif" font-size="14.00">name :string</text>
<text text-anchor="start" x="595.495" y="-727" font-family="Times,serif" font-size="14.00">created_at :datetime</text>
<text text-anchor="start" x="595.495" y="-710.2" font-family="Times,serif" font-size="14.00">updated_at :datetime</text>
<text text-anchor="start" x="595.495" y="-693.4" font-family="Times,serif" font-size="14.00">description :text</text>
</g>
<!-- Tribe&#45;&gt;Membership -->
<g id="edge4" class="edge"><title>Tribe&#45;&gt;Membership</title>
<path fill="none" stroke="#099742" d="M637.194,-678.603C633.321,-663.531 629.194,-647.474 625.3,-632.321"/>
<ellipse fill="none" stroke="#099742" cx="638.196" cy="-682.504" rx="4.00001" ry="4.00001"/>
<polygon fill="#099742" stroke="#099742" points="625.269,-632.199 627.139,-621.394 624.025,-627.357 622.78,-622.514 622.78,-622.514 622.78,-622.514 624.025,-627.357 618.422,-623.634 625.269,-632.199 625.269,-632.199"/>
</g>
<!-- User -->
<g id="node13" class="node"><title>User</title>
<path fill="none" stroke="black" d="M704.936,-480.4C704.936,-480.4 831.064,-480.4 831.064,-480.4 837.064,-480.4 843.064,-486.4 843.064,-492.4 843.064,-492.4 843.064,-635.6 843.064,-635.6 843.064,-641.6 837.064,-647.6 831.064,-647.6 831.064,-647.6 704.936,-647.6 704.936,-647.6 698.936,-647.6 692.936,-641.6 692.936,-635.6 692.936,-635.6 692.936,-492.4 692.936,-492.4 692.936,-486.4 698.936,-480.4 704.936,-480.4"/>
<text text-anchor="middle" x="768" y="-629.6" font-family="Times,serif" font-size="14.00">User</text>
<polyline fill="none" stroke="black" points="692.936,-622.8 843.064,-622.8 "/>
<text text-anchor="start" x="700.936" y="-604.8" font-family="Times,serif" font-size="14.00">id :integer</text>
<text text-anchor="start" x="700.936" y="-588" font-family="Times,serif" font-size="14.00">name :string</text>
<text text-anchor="start" x="700.936" y="-571.2" font-family="Times,serif" font-size="14.00">email :string</text>
<text text-anchor="start" x="700.936" y="-554.4" font-family="Times,serif" font-size="14.00">created_at :datetime</text>
<text text-anchor="start" x="700.936" y="-537.6" font-family="Times,serif" font-size="14.00">updated_at :datetime</text>
<text text-anchor="start" x="700.936" y="-520.8" font-family="Times,serif" font-size="14.00">admin :boolean</text>
<text text-anchor="start" x="700.936" y="-504" font-family="Times,serif" font-size="14.00">password_digest :string</text>
<text text-anchor="start" x="700.936" y="-487.2" font-family="Times,serif" font-size="14.00">remember_token :string</text>
</g>
<!-- Tribe&#45;&gt;User -->
<g id="edge5" class="edge"><title>Tribe&#45;&gt;User</title>
<path fill="none" stroke="#a16434" d="M696.134,-677.842C700.642,-670.764 705.282,-663.477 709.933,-656.176"/>
<polygon fill="#a16434" stroke="#a16434" points="696.07,-677.943 686.902,-683.961 693.384,-682.161 690.698,-686.378 690.698,-686.378 690.698,-686.378 693.384,-682.161 694.493,-688.795 696.07,-677.943 696.07,-677.943"/>
<polygon fill="#a16434" stroke="#a16434" points="710.017,-656.043 719.184,-650.026 712.703,-651.826 715.389,-647.609 715.389,-647.609 715.389,-647.609 712.703,-651.826 711.593,-645.191 710.017,-656.043 710.017,-656.043"/>
</g>
<!-- User&#45;&gt;Micropost -->
<g id="edge6" class="edge"><title>User&#45;&gt;Micropost</title>
<path fill="none" stroke="#b54bb4" d="M685.476,-481.105C684.655,-480.725 683.829,-480.356 683,-480 587.382,-438.899 315.953,-487.306 215,-462 179.523,-453.107 169.207,-449.282 141,-426 129.056,-416.141 117.942,-404.007 108.124,-391.633"/>
<ellipse fill="none" stroke="#b54bb4" cx="689.208" cy="-483.006" rx="4.00002" ry="4.00002"/>
<polygon fill="#b54bb4" stroke="#b54bb4" points="107.958,-391.417 105.432,-380.746 104.911,-387.453 101.864,-383.489 101.864,-383.489 101.864,-383.489 104.911,-387.453 98.2964,-386.231 107.958,-391.417 107.958,-391.417"/>
</g>
<!-- User&#45;&gt;Relationship -->
<g id="edge7" class="edge"><title>User&#45;&gt;Relationship</title>
<path fill="none" stroke="#b8e9ad" d="M685.476,-481.106C684.654,-480.726 683.829,-480.357 683,-480 636.837,-460.12 267.639,-496.408 231,-462 212.675,-444.791 207.117,-418.545 206.897,-393.683"/>
<ellipse fill="none" stroke="#b8e9ad" cx="689.206" cy="-483.01" rx="4.00002" ry="4.00002"/>
<polygon fill="#b8e9ad" stroke="#b8e9ad" points="206.901,-393.512 211.591,-383.599 206.996,-388.513 207.091,-383.514 207.091,-383.514 207.091,-383.514 206.996,-388.513 202.592,-383.428 206.901,-393.512 206.901,-393.512"/>
</g>
<!-- User&#45;&gt;User -->
<g id="edge8" class="edge"><title>User&#45;&gt;User</title>
<path fill="none" stroke="#9458ee" d="M852.78,-577.256C857.916,-574.106 861,-569.687 861,-564 861,-558.313 857.916,-553.894 852.78,-550.744"/>
<polygon fill="#9458ee" stroke="#9458ee" points="852.432,-577.397 841.474,-576.994 847.8,-579.28 843.168,-581.163 843.168,-581.163 843.168,-581.163 847.8,-579.28 844.863,-585.332 852.432,-577.397 852.432,-577.397"/>
<polygon fill="#9458ee" stroke="#9458ee" points="852.432,-550.603 844.863,-542.668 847.8,-548.72 843.168,-546.837 843.168,-546.837 843.168,-546.837 847.8,-548.72 841.474,-551.006 852.432,-550.603 852.432,-550.603"/>
<text text-anchor="middle" x="903.769" y="-558.4" font-family="Times,serif" font-size="14.00">followed_users</text>
</g>
<!-- User&#45;&gt;Relationship -->
<g id="edge9" class="edge"><title>User&#45;&gt;Relationship</title>
<path fill="none" stroke="#a3e059" d="M685.465,-481.132C684.646,-480.743 683.825,-480.366 683,-480 623.17,-453.473 453.074,-475.528 389.041,-462 344.033,-452.492 328.863,-453.519 292,-426 279.375,-416.575 267.879,-404.454 257.887,-391.924"/>
<ellipse fill="none" stroke="#a3e059" cx="689.182" cy="-483.071" rx="4.00002" ry="4.00002"/>
<polygon fill="#a3e059" stroke="#a3e059" points="257.629,-391.588 255.111,-380.915 254.585,-387.621 251.541,-383.654 251.541,-383.654 251.541,-383.654 254.585,-387.621 247.971,-386.394 257.629,-391.588 257.629,-391.588"/>
<text text-anchor="middle" x="449.479" y="-447.4" font-family="Times,serif" font-size="14.00">reverse_relationships</text>
</g>
<!-- User&#45;&gt;User -->
<g id="edge10" class="edge"><title>User&#45;&gt;User</title>
<path fill="none" stroke="#51e321" d="M852.78,-577.256C857.916,-574.106 861,-569.687 861,-564 861,-558.313 857.916,-553.894 852.78,-550.744"/>
<polygon fill="#51e321" stroke="#51e321" points="852.432,-577.397 841.474,-576.994 847.8,-579.28 843.168,-581.163 843.168,-581.163 843.168,-581.163 847.8,-579.28 844.863,-585.332 852.432,-577.397 852.432,-577.397"/>
<polygon fill="#51e321" stroke="#51e321" points="852.432,-550.603 844.863,-542.668 847.8,-548.72 843.168,-546.837 843.168,-546.837 843.168,-546.837 847.8,-548.72 841.474,-551.006 852.432,-550.603 852.432,-550.603"/>
<text text-anchor="middle" x="887.438" y="-558.4" font-family="Times,serif" font-size="14.00">followers</text>
</g>
<!-- User&#45;&gt;Medication -->
<g id="edge11" class="edge"><title>User&#45;&gt;Medication</title>
<path fill="none" stroke="#cfcf8a" d="M685.819,-481.576C684.883,-481.038 683.943,-480.512 683,-480 658.979,-466.958 465.948,-440.849 443,-426 438.331,-422.979 433.846,-419.561 429.553,-415.855"/>
<ellipse fill="none" stroke="#cfcf8a" cx="689.517" cy="-483.846" rx="4.00002" ry="4.00002"/>
<polygon fill="#cfcf8a" stroke="#cfcf8a" points="429.377,-415.692 425.095,-405.596 425.707,-412.295 422.038,-408.899 422.038,-408.899 422.038,-408.899 425.707,-412.295 418.981,-412.201 429.377,-415.692 429.377,-415.692"/>
</g>
<!-- User&#45;&gt;Problem -->
<g id="edge12" class="edge"><title>User&#45;&gt;Problem</title>
<path fill="none" stroke="#8df7d2" d="M686.365,-482.645C685.243,-481.751 684.121,-480.869 683,-480 646.433,-451.654 628.281,-457.072 594,-426 587.875,-420.448 581.912,-414.334 576.198,-407.949"/>
<ellipse fill="none" stroke="#8df7d2" cx="689.688" cy="-485.356" rx="4.00002" ry="4.00002"/>
<polygon fill="#8df7d2" stroke="#8df7d2" points="576.159,-407.903 573.012,-397.399 572.885,-404.124 569.611,-400.345 569.611,-400.345 569.611,-400.345 572.885,-404.124 566.21,-403.292 576.159,-407.903 576.159,-407.903"/>
</g>
<!-- User&#45;&gt;Goal -->
<g id="edge13" class="edge"><title>User&#45;&gt;Goal</title>
<path fill="none" stroke="#4e8504" d="M736.198,-472.192C731.938,-460.028 727.534,-447.452 723.179,-435.017"/>
<ellipse fill="none" stroke="#4e8504" cx="737.648" cy="-476.334" rx="4.00001" ry="4.00001"/>
<polygon fill="#4e8504" stroke="#4e8504" points="723.167,-434.982 724.108,-424.056 721.514,-430.263 719.861,-425.544 719.861,-425.544 719.861,-425.544 721.514,-430.263 715.614,-427.031 723.167,-434.982 723.167,-434.982"/>
</g>
<!-- User&#45;&gt;Barrier -->
<g id="edge14" class="edge"><title>User&#45;&gt;Barrier</title>
<path fill="none" stroke="#86f739" d="M799.775,-472.268C807.955,-448.912 816.668,-424.032 824.545,-401.539"/>
<ellipse fill="none" stroke="#86f739" cx="798.352" cy="-476.334" rx="4.00001" ry="4.00001"/>
<polygon fill="#86f739" stroke="#86f739" points="824.561,-401.495 832.113,-393.544 826.213,-396.776 827.866,-392.057 827.866,-392.057 827.866,-392.057 826.213,-396.776 823.619,-390.57 824.561,-401.495 824.561,-401.495"/>
</g>
<!-- User&#45;&gt;Clipping -->
<g id="edge15" class="edge"><title>User&#45;&gt;Clipping</title>
<path fill="none" stroke="#828252" d="M849.761,-510.615C878.414,-488.06 907.924,-459.202 926,-426 947.076,-387.288 959.663,-278.202 966.43,-195.547"/>
<ellipse fill="none" stroke="#828252" cx="846.445" cy="-513.177" rx="4.00002" ry="4.00002"/>
<polygon fill="#828252" stroke="#828252" points="966.449,-195.317 971.732,-185.708 966.848,-190.333 967.247,-185.349 967.247,-185.349 967.247,-185.349 966.848,-190.333 962.761,-184.99 966.449,-195.317 966.449,-195.317"/>
</g>
<!-- User&#45;&gt;Folder -->
<g id="edge16" class="edge"><title>User&#45;&gt;Folder</title>
<path fill="none" stroke="#cc232f" d="M851.029,-531.476C887.439,-514.766 928.874,-491.521 960,-462 978.226,-444.714 993.763,-422.433 1006.21,-400.929"/>
<ellipse fill="none" stroke="#cc232f" cx="846.988" cy="-533.299" rx="4.00002" ry="4.00002"/>
<polygon fill="#cc232f" stroke="#cc232f" points="1006.27,-400.815 1015.1,-394.306 1008.72,-396.457 1011.17,-392.1 1011.17,-392.1 1011.17,-392.1 1008.72,-396.457 1007.25,-389.893 1006.27,-400.815 1006.27,-400.815"/>
</g>
<!-- User&#45;&gt;SharedFolder -->
<g id="edge17" class="edge"><title>User&#45;&gt;SharedFolder</title>
<path fill="none" stroke="#42b38a" d="M851.376,-549.485C963.106,-529.194 1150.72,-486.662 1179,-426 1213.94,-351.054 1216.05,-256.065 1211.12,-186.91"/>
<ellipse fill="none" stroke="#42b38a" cx="847.403" cy="-550.199" rx="4.00001" ry="4.00001"/>
<polygon fill="#42b38a" stroke="#42b38a" points="1211.12,-186.87 1214.84,-176.552 1210.74,-181.884 1210.35,-176.899 1210.35,-176.899 1210.35,-176.899 1210.74,-181.884 1205.86,-177.247 1211.12,-186.87 1211.12,-186.87"/>
</g>
<!-- User&#45;&gt;SharedFolder -->
<g id="edge18" class="edge"><title>User&#45;&gt;SharedFolder</title>
<path fill="none" stroke="#1b45d0" d="M851.356,-551.229C969.988,-532.334 1176.89,-490.661 1210,-426 1247.83,-352.12 1239.64,-256.377 1225.23,-186.704"/>
<ellipse fill="none" stroke="#1b45d0" cx="847.273" cy="-551.872" rx="4.00001" ry="4.00001"/>
<polygon fill="#1b45d0" stroke="#1b45d0" points="1225.16,-186.396 1227.46,-175.674 1224.11,-181.508 1223.06,-176.619 1223.06,-176.619 1223.06,-176.619 1224.11,-181.508 1218.66,-177.565 1225.16,-186.396 1225.16,-186.396"/>
<text text-anchor="middle" x="1297.26" y="-319.4" font-family="Times,serif" font-size="14.00">being_shared_folders</text>
</g>
<!-- User&#45;&gt;Folder -->
<g id="edge19" class="edge"><title>User&#45;&gt;Folder</title>
<path fill="none" stroke="#8fe8f5" d="M852.85,-538.555C895.773,-522.596 946.041,-497.927 981,-462 997.461,-445.083 1009.82,-422.894 1018.9,-401.359"/>
<polygon fill="#8fe8f5" stroke="#8fe8f5" points="852.651,-538.627 841.717,-537.796 847.949,-540.328 843.247,-542.028 843.247,-542.028 843.247,-542.028 847.949,-540.328 844.777,-546.26 852.651,-538.627 852.651,-538.627"/>
<polygon fill="#8fe8f5" stroke="#8fe8f5" points="1018.99,-401.139 1026.9,-393.541 1020.86,-396.5 1022.73,-391.861 1022.73,-391.861 1022.73,-391.861 1020.86,-396.5 1018.55,-390.182 1018.99,-401.139 1018.99,-401.139"/>
<text text-anchor="middle" x="1065.31" y="-447.4" font-family="Times,serif" font-size="14.00">shared_folders_by_others</text>
</g>
</g>
</svg>
