<?xml version="1.0" encoding="UTF-8" standalone="no"?>
<!DOCTYPE svg PUBLIC "-//W3C//DTD SVG 1.1//EN"
 "http://www.w3.org/Graphics/SVG/1.1/DTD/svg11.dtd">
<!-- Generated by graphviz version 2.29.20121115.0545 (20121115.0545)
 -->
<!-- Title: models_diagram Pages: 1 -->
<svg width="805pt" height="746pt"
 viewBox="0.00 0.00 804.52 746.00" xmlns="http://www.w3.org/2000/svg" xmlns:xlink="http://www.w3.org/1999/xlink">
<g id="graph0" class="graph" transform="scale(1 1) rotate(0) translate(4 742)">
<title>models_diagram</title>
<polygon fill="white" stroke="white" points="-4,5 -4,-742 801.518,-742 801.518,5 -4,5"/>
<!-- _diagram_info -->
<g id="node1" class="node"><title>_diagram_info</title>
<text text-anchor="start" x="7.31226" y="-705" font-family="Times,serif" font-size="13.00">Models diagram</text>
<text text-anchor="start" x="7.31226" y="-689.4" font-family="Times,serif" font-size="13.00">Date: Dec 18 2012 &#45; 00:53</text>
<text text-anchor="start" x="7.31226" y="-673.8" font-family="Times,serif" font-size="13.00">Migration version: 20121215055645</text>
<text text-anchor="start" x="7.31226" y="-658.2" font-family="Times,serif" font-size="13.00">Generated by RailRoady 1.1.0</text>
<text text-anchor="start" x="7.31226" y="-642.6" font-family="Times,serif" font-size="13.00">http://railroady.prestonlee.com</text>
</g>
<!-- Clipping -->
<g id="node2" class="node"><title>Clipping</title>
<path fill="none" stroke="black" d="M316.891,-1C316.891,-1 509.109,-1 509.109,-1 515.109,-1 521.109,-7 521.109,-13 521.109,-13 521.109,-173 521.109,-173 521.109,-179 515.109,-185 509.109,-185 509.109,-185 316.891,-185 316.891,-185 310.891,-185 304.891,-179 304.891,-173 304.891,-173 304.891,-13 304.891,-13 304.891,-7 310.891,-1 316.891,-1"/>
<text text-anchor="middle" x="413" y="-167" font-family="Times,serif" font-size="14.00">Clipping</text>
<polyline fill="none" stroke="black" points="304.891,-160.2 521.109,-160.2 "/>
<text text-anchor="start" x="312.891" y="-142.2" font-family="Times,serif" font-size="14.00">id :integer</text>
<text text-anchor="start" x="312.891" y="-125.4" font-family="Times,serif" font-size="14.00">user_id :integer</text>
<text text-anchor="start" x="312.891" y="-108.6" font-family="Times,serif" font-size="14.00">created_at :datetime</text>
<text text-anchor="start" x="312.891" y="-91.8" font-family="Times,serif" font-size="14.00">updated_at :datetime</text>
<text text-anchor="start" x="312.891" y="-75" font-family="Times,serif" font-size="14.00">uploaded_file_file_name :string</text>
<text text-anchor="start" x="312.891" y="-58.2" font-family="Times,serif" font-size="14.00">uploaded_file_content_type :string</text>
<text text-anchor="start" x="312.891" y="-41.4" font-family="Times,serif" font-size="14.00">uploaded_file_file_size :integer</text>
<text text-anchor="start" x="312.891" y="-24.6" font-family="Times,serif" font-size="14.00">uploaded_file_updated_at :datetime</text>
<text text-anchor="start" x="312.891" y="-7.8" font-family="Times,serif" font-size="14.00">folder_id :integer</text>
</g>
<!-- Folder -->
<g id="node3" class="node"><title>Folder</title>
<path fill="none" stroke="black" d="M426.495,-225.2C426.495,-225.2 535.505,-225.2 535.505,-225.2 541.505,-225.2 547.505,-231.2 547.505,-237.2 547.505,-237.2 547.505,-346.8 547.505,-346.8 547.505,-352.8 541.505,-358.8 535.505,-358.8 535.505,-358.8 426.495,-358.8 426.495,-358.8 420.495,-358.8 414.495,-352.8 414.495,-346.8 414.495,-346.8 414.495,-237.2 414.495,-237.2 414.495,-231.2 420.495,-225.2 426.495,-225.2"/>
<text text-anchor="middle" x="481" y="-340.8" font-family="Times,serif" font-size="14.00">Folder</text>
<polyline fill="none" stroke="black" points="414.495,-334 547.505,-334 "/>
<text text-anchor="start" x="422.495" y="-316" font-family="Times,serif" font-size="14.00">id :integer</text>
<text text-anchor="start" x="422.495" y="-299.2" font-family="Times,serif" font-size="14.00">name :string</text>
<text text-anchor="start" x="422.495" y="-282.4" font-family="Times,serif" font-size="14.00">parent_id :integer</text>
<text text-anchor="start" x="422.495" y="-265.6" font-family="Times,serif" font-size="14.00">user_id :integer</text>
<text text-anchor="start" x="422.495" y="-248.8" font-family="Times,serif" font-size="14.00">created_at :datetime</text>
<text text-anchor="start" x="422.495" y="-232" font-family="Times,serif" font-size="14.00">updated_at :datetime</text>
</g>
<!-- Folder&#45;&gt;Folder -->
<g id="edge1" class="edge"><title>Folder&#45;&gt;Folder</title>
<path fill="none" stroke="#ce3e4c" d="M555.434,-304.269C561.345,-301.583 565,-297.493 565,-292 565,-287.104 562.096,-283.323 557.28,-280.657"/>
<ellipse fill="none" stroke="#ce3e4c" cx="551.357" cy="-305.566" rx="4.00001" ry="4.00001"/>
<polygon fill="#ce3e4c" stroke="#ce3e4c" points="556.975,-280.549 549.042,-272.979 552.26,-278.886 547.545,-277.222 547.545,-277.222 547.545,-277.222 552.26,-278.886 546.048,-281.466 556.975,-280.549 556.975,-280.549"/>
<text text-anchor="middle" x="587.935" y="-286.4" font-family="Times,serif" font-size="14.00">children</text>
</g>
<!-- Folder&#45;&gt;Clipping -->
<g id="edge2" class="edge"><title>Folder&#45;&gt;Clipping</title>
<path fill="none" stroke="#5f8445" d="M455.63,-217.503C453.062,-210.062 450.423,-202.417 447.778,-194.754"/>
<ellipse fill="none" stroke="#5f8445" cx="456.957" cy="-221.347" rx="4.00001" ry="4.00001"/>
<polygon fill="#5f8445" stroke="#5f8445" points="447.692,-194.505 448.683,-183.584 446.061,-189.779 444.429,-185.052 444.429,-185.052 444.429,-185.052 446.061,-189.779 440.176,-186.521 447.692,-194.505 447.692,-194.505"/>
</g>
<!-- SharedFolder -->
<g id="node7" class="node"><title>SharedFolder</title>
<path fill="none" stroke="black" d="M577.495,-9.4C577.495,-9.4 700.505,-9.4 700.505,-9.4 706.505,-9.4 712.505,-15.4 712.505,-21.4 712.505,-21.4 712.505,-164.6 712.505,-164.6 712.505,-170.6 706.505,-176.6 700.505,-176.6 700.505,-176.6 577.495,-176.6 577.495,-176.6 571.495,-176.6 565.495,-170.6 565.495,-164.6 565.495,-164.6 565.495,-21.4 565.495,-21.4 565.495,-15.4 571.495,-9.4 577.495,-9.4"/>
<text text-anchor="middle" x="639" y="-158.6" font-family="Times,serif" font-size="14.00">SharedFolder</text>
<polyline fill="none" stroke="black" points="565.495,-151.8 712.505,-151.8 "/>
<text text-anchor="start" x="573.495" y="-133.8" font-family="Times,serif" font-size="14.00">id :integer</text>
<text text-anchor="start" x="573.495" y="-117" font-family="Times,serif" font-size="14.00">user_id :integer</text>
<text text-anchor="start" x="573.495" y="-100.2" font-family="Times,serif" font-size="14.00">shared_email :string</text>
<text text-anchor="start" x="573.495" y="-83.4" font-family="Times,serif" font-size="14.00">shared_user_id :integer</text>
<text text-anchor="start" x="573.495" y="-66.6" font-family="Times,serif" font-size="14.00">folder_id :integer</text>
<text text-anchor="start" x="573.495" y="-49.8" font-family="Times,serif" font-size="14.00">message :string</text>
<text text-anchor="start" x="573.495" y="-33" font-family="Times,serif" font-size="14.00">created_at :datetime</text>
<text text-anchor="start" x="573.495" y="-16.2" font-family="Times,serif" font-size="14.00">updated_at :datetime</text>
</g>
<!-- Folder&#45;&gt;SharedFolder -->
<g id="edge3" class="edge"><title>Folder&#45;&gt;SharedFolder</title>
<path fill="none" stroke="#6bf342" d="M538.848,-218.873C547.8,-207.712 557.143,-196.063 566.369,-184.559"/>
<ellipse fill="none" stroke="#6bf342" cx="536.334" cy="-222.008" rx="4.00002" ry="4.00002"/>
<polygon fill="#6bf342" stroke="#6bf342" points="566.474,-184.427 576.241,-179.442 569.603,-180.527 572.731,-176.627 572.731,-176.627 572.731,-176.627 569.603,-180.527 569.221,-173.811 566.474,-184.427 566.474,-184.427"/>
</g>
<!-- Membership -->
<g id="node4" class="node"><title>Membership</title>
<path fill="none" stroke="black" d="M190.495,-439.6C190.495,-439.6 299.505,-439.6 299.505,-439.6 305.505,-439.6 311.505,-445.6 311.505,-451.6 311.505,-451.6 311.505,-544.4 311.505,-544.4 311.505,-550.4 305.505,-556.4 299.505,-556.4 299.505,-556.4 190.495,-556.4 190.495,-556.4 184.495,-556.4 178.495,-550.4 178.495,-544.4 178.495,-544.4 178.495,-451.6 178.495,-451.6 178.495,-445.6 184.495,-439.6 190.495,-439.6"/>
<text text-anchor="middle" x="245" y="-538.4" font-family="Times,serif" font-size="14.00">Membership</text>
<polyline fill="none" stroke="black" points="178.495,-531.6 311.505,-531.6 "/>
<text text-anchor="start" x="186.495" y="-513.6" font-family="Times,serif" font-size="14.00">id :integer</text>
<text text-anchor="start" x="186.495" y="-496.8" font-family="Times,serif" font-size="14.00">user_id :integer</text>
<text text-anchor="start" x="186.495" y="-480" font-family="Times,serif" font-size="14.00">tribe_id :integer</text>
<text text-anchor="start" x="186.495" y="-463.2" font-family="Times,serif" font-size="14.00">created_at :datetime</text>
<text text-anchor="start" x="186.495" y="-446.4" font-family="Times,serif" font-size="14.00">updated_at :datetime</text>
</g>
<!-- Micropost -->
<g id="node5" class="node"><title>Micropost</title>
<path fill="none" stroke="black" d="M51.4946,-233.6C51.4946,-233.6 160.505,-233.6 160.505,-233.6 166.505,-233.6 172.505,-239.6 172.505,-245.6 172.505,-245.6 172.505,-338.4 172.505,-338.4 172.505,-344.4 166.505,-350.4 160.505,-350.4 160.505,-350.4 51.4946,-350.4 51.4946,-350.4 45.4946,-350.4 39.4946,-344.4 39.4946,-338.4 39.4946,-338.4 39.4946,-245.6 39.4946,-245.6 39.4946,-239.6 45.4946,-233.6 51.4946,-233.6"/>
<text text-anchor="middle" x="106" y="-332.4" font-family="Times,serif" font-size="14.00">Micropost</text>
<polyline fill="none" stroke="black" points="39.4946,-325.6 172.505,-325.6 "/>
<text text-anchor="start" x="47.4946" y="-307.6" font-family="Times,serif" font-size="14.00">id :integer</text>
<text text-anchor="start" x="47.4946" y="-290.8" font-family="Times,serif" font-size="14.00">content :text</text>
<text text-anchor="start" x="47.4946" y="-274" font-family="Times,serif" font-size="14.00">user_id :integer</text>
<text text-anchor="start" x="47.4946" y="-257.2" font-family="Times,serif" font-size="14.00">created_at :datetime</text>
<text text-anchor="start" x="47.4946" y="-240.4" font-family="Times,serif" font-size="14.00">updated_at :datetime</text>
</g>
<!-- Relationship -->
<g id="node6" class="node"><title>Relationship</title>
<path fill="none" stroke="black" d="M202.495,-233.6C202.495,-233.6 311.505,-233.6 311.505,-233.6 317.505,-233.6 323.505,-239.6 323.505,-245.6 323.505,-245.6 323.505,-338.4 323.505,-338.4 323.505,-344.4 317.505,-350.4 311.505,-350.4 311.505,-350.4 202.495,-350.4 202.495,-350.4 196.495,-350.4 190.495,-344.4 190.495,-338.4 190.495,-338.4 190.495,-245.6 190.495,-245.6 190.495,-239.6 196.495,-233.6 202.495,-233.6"/>
<text text-anchor="middle" x="257" y="-332.4" font-family="Times,serif" font-size="14.00">Relationship</text>
<polyline fill="none" stroke="black" points="190.495,-325.6 323.505,-325.6 "/>
<text text-anchor="start" x="198.495" y="-307.6" font-family="Times,serif" font-size="14.00">id :integer</text>
<text text-anchor="start" x="198.495" y="-290.8" font-family="Times,serif" font-size="14.00">follower_id :integer</text>
<text text-anchor="start" x="198.495" y="-274" font-family="Times,serif" font-size="14.00">followed_id :integer</text>
<text text-anchor="start" x="198.495" y="-257.2" font-family="Times,serif" font-size="14.00">created_at :datetime</text>
<text text-anchor="start" x="198.495" y="-240.4" font-family="Times,serif" font-size="14.00">updated_at :datetime</text>
</g>
<!-- Tribe -->
<g id="node8" class="node"><title>Tribe</title>
<path fill="none" stroke="black" d="M236.495,-620.6C236.495,-620.6 345.505,-620.6 345.505,-620.6 351.505,-620.6 357.505,-626.6 357.505,-632.6 357.505,-632.6 357.505,-725.4 357.505,-725.4 357.505,-731.4 351.505,-737.4 345.505,-737.4 345.505,-737.4 236.495,-737.4 236.495,-737.4 230.495,-737.4 224.495,-731.4 224.495,-725.4 224.495,-725.4 224.495,-632.6 224.495,-632.6 224.495,-626.6 230.495,-620.6 236.495,-620.6"/>
<text text-anchor="middle" x="291" y="-719.4" font-family="Times,serif" font-size="14.00">Tribe</text>
<polyline fill="none" stroke="black" points="224.495,-712.6 357.505,-712.6 "/>
<text text-anchor="start" x="232.495" y="-694.6" font-family="Times,serif" font-size="14.00">id :integer</text>
<text text-anchor="start" x="232.495" y="-677.8" font-family="Times,serif" font-size="14.00">name :string</text>
<text text-anchor="start" x="232.495" y="-661" font-family="Times,serif" font-size="14.00">created_at :datetime</text>
<text text-anchor="start" x="232.495" y="-644.2" font-family="Times,serif" font-size="14.00">updated_at :datetime</text>
<text text-anchor="start" x="232.495" y="-627.4" font-family="Times,serif" font-size="14.00">description :text</text>
</g>
<!-- Tribe&#45;&gt;Membership -->
<g id="edge4" class="edge"><title>Tribe&#45;&gt;Membership</title>
<path fill="none" stroke="#e83fdb" d="M274.194,-612.603C270.321,-597.531 266.194,-581.474 262.3,-566.321"/>
<ellipse fill="none" stroke="#e83fdb" cx="275.196" cy="-616.504" rx="4.00001" ry="4.00001"/>
<polygon fill="#e83fdb" stroke="#e83fdb" points="262.269,-566.199 264.139,-555.394 261.025,-561.357 259.78,-556.514 259.78,-556.514 259.78,-556.514 261.025,-561.357 255.422,-557.634 262.269,-566.199 262.269,-566.199"/>
</g>
<!-- User -->
<g id="node9" class="node"><title>User</title>
<path fill="none" stroke="black" d="M341.936,-414.4C341.936,-414.4 468.064,-414.4 468.064,-414.4 474.064,-414.4 480.064,-420.4 480.064,-426.4 480.064,-426.4 480.064,-569.6 480.064,-569.6 480.064,-575.6 474.064,-581.6 468.064,-581.6 468.064,-581.6 341.936,-581.6 341.936,-581.6 335.936,-581.6 329.936,-575.6 329.936,-569.6 329.936,-569.6 329.936,-426.4 329.936,-426.4 329.936,-420.4 335.936,-414.4 341.936,-414.4"/>
<text text-anchor="middle" x="405" y="-563.6" font-family="Times,serif" font-size="14.00">User</text>
<polyline fill="none" stroke="black" points="329.936,-556.8 480.064,-556.8 "/>
<text text-anchor="start" x="337.936" y="-538.8" font-family="Times,serif" font-size="14.00">id :integer</text>
<text text-anchor="start" x="337.936" y="-522" font-family="Times,serif" font-size="14.00">name :string</text>
<text text-anchor="start" x="337.936" y="-505.2" font-family="Times,serif" font-size="14.00">email :string</text>
<text text-anchor="start" x="337.936" y="-488.4" font-family="Times,serif" font-size="14.00">created_at :datetime</text>
<text text-anchor="start" x="337.936" y="-471.6" font-family="Times,serif" font-size="14.00">updated_at :datetime</text>
<text text-anchor="start" x="337.936" y="-454.8" font-family="Times,serif" font-size="14.00">admin :boolean</text>
<text text-anchor="start" x="337.936" y="-438" font-family="Times,serif" font-size="14.00">password_digest :string</text>
<text text-anchor="start" x="337.936" y="-421.2" font-family="Times,serif" font-size="14.00">remember_token :string</text>
</g>
<!-- Tribe&#45;&gt;User -->
<g id="edge5" class="edge"><title>Tribe&#45;&gt;User</title>
<path fill="none" stroke="#cc99d6" d="M333.134,-611.842C337.642,-604.764 342.282,-597.477 346.933,-590.176"/>
<polygon fill="#cc99d6" stroke="#cc99d6" points="333.07,-611.943 323.902,-617.961 330.384,-616.161 327.698,-620.378 327.698,-620.378 327.698,-620.378 330.384,-616.161 331.493,-622.795 333.07,-611.943 333.07,-611.943"/>
<polygon fill="#cc99d6" stroke="#cc99d6" points="347.017,-590.043 356.184,-584.026 349.703,-585.826 352.389,-581.609 352.389,-581.609 352.389,-581.609 349.703,-585.826 348.593,-579.191 347.017,-590.043 347.017,-590.043"/>
</g>
<!-- User&#45;&gt;Micropost -->
<g id="edge6" class="edge"><title>User&#45;&gt;Micropost</title>
<path fill="none" stroke="#c565a3" d="M322.768,-415.487C321.849,-414.978 320.926,-414.483 320,-414 281.89,-394.142 263.944,-414.168 225,-396 202.102,-385.318 200.204,-376.42 181,-360 179.992,-359.138 178.978,-358.269 177.96,-357.393"/>
<ellipse fill="none" stroke="#c565a3" cx="326.298" cy="-417.581" rx="4.00002" ry="4.00002"/>
<polygon fill="#c565a3" stroke="#c565a3" points="177.634,-357.111 173.017,-347.164 173.853,-353.839 170.072,-350.567 170.072,-350.567 170.072,-350.567 173.853,-353.839 167.127,-353.97 177.634,-357.111 177.634,-357.111"/>
</g>
<!-- User&#45;&gt;Relationship -->
<g id="edge7" class="edge"><title>User&#45;&gt;Relationship</title>
<path fill="none" stroke="#d7b151" d="M322.747,-415.525C321.835,-415.004 320.919,-414.496 320,-414 287.163,-396.282 261.385,-425.075 238,-396 229.862,-385.882 227.742,-373.394 228.917,-360.646"/>
<ellipse fill="none" stroke="#d7b151" cx="326.257" cy="-417.664" rx="4.00002" ry="4.00002"/>
<polygon fill="#d7b151" stroke="#d7b151" points="228.973,-360.287 234.959,-351.099 229.743,-355.347 230.513,-350.406 230.513,-350.406 230.513,-350.406 229.743,-355.347 226.067,-349.713 228.973,-360.287 228.973,-360.287"/>
</g>
<!-- User&#45;&gt;User -->
<g id="edge8" class="edge"><title>User&#45;&gt;User</title>
<path fill="none" stroke="#0f1f5e" d="M489.78,-511.256C494.916,-508.106 498,-503.687 498,-498 498,-492.313 494.916,-487.894 489.78,-484.744"/>
<polygon fill="#0f1f5e" stroke="#0f1f5e" points="489.432,-511.397 478.474,-510.994 484.8,-513.28 480.168,-515.163 480.168,-515.163 480.168,-515.163 484.8,-513.28 481.863,-519.332 489.432,-511.397 489.432,-511.397"/>
<polygon fill="#0f1f5e" stroke="#0f1f5e" points="489.432,-484.603 481.863,-476.668 484.8,-482.72 480.168,-480.837 480.168,-480.837 480.168,-480.837 484.8,-482.72 478.474,-485.006 489.432,-484.603 489.432,-484.603"/>
<text text-anchor="middle" x="540.769" y="-492.4" font-family="Times,serif" font-size="14.00">followed_users</text>
</g>
<!-- User&#45;&gt;Relationship -->
<g id="edge9" class="edge"><title>User&#45;&gt;Relationship</title>
<path fill="none" stroke="#42a0f4" d="M322.773,-415.659C321.851,-415.094 320.927,-414.541 320,-414 295.231,-399.55 275.374,-418.844 258.041,-396 250.365,-385.883 246.867,-373.453 245.821,-360.771"/>
<ellipse fill="none" stroke="#42a0f4" cx="326.422" cy="-418.026" rx="4.00002" ry="4.00002"/>
<polygon fill="#42a0f4" stroke="#42a0f4" points="245.814,-360.581 249.971,-350.433 245.644,-355.584 245.474,-350.587 245.474,-350.587 245.474,-350.587 245.644,-355.584 240.976,-350.74 245.814,-360.581 245.814,-360.581"/>
<text text-anchor="middle" x="317.479" y="-381.4" font-family="Times,serif" font-size="14.00">reverse_relationships</text>
</g>
<!-- User&#45;&gt;User -->
<g id="edge10" class="edge"><title>User&#45;&gt;User</title>
<path fill="none" stroke="#d2b92d" d="M489.78,-511.256C494.916,-508.106 498,-503.687 498,-498 498,-492.313 494.916,-487.894 489.78,-484.744"/>
<polygon fill="#d2b92d" stroke="#d2b92d" points="489.432,-511.397 478.474,-510.994 484.8,-513.28 480.168,-515.163 480.168,-515.163 480.168,-515.163 484.8,-513.28 481.863,-519.332 489.432,-511.397 489.432,-511.397"/>
<polygon fill="#d2b92d" stroke="#d2b92d" points="489.432,-484.603 481.863,-476.668 484.8,-482.72 480.168,-480.837 480.168,-480.837 480.168,-480.837 484.8,-482.72 478.474,-485.006 489.432,-484.603 489.432,-484.603"/>
<text text-anchor="middle" x="524.438" y="-492.4" font-family="Times,serif" font-size="14.00">followers</text>
</g>
<!-- User&#45;&gt;Clipping -->
<g id="edge11" class="edge"><title>User&#45;&gt;Clipping</title>
<path fill="none" stroke="#80caeb" d="M403.604,-406.19C403.136,-353.07 403.133,-284.719 405,-224 405.286,-214.69 405.687,-205.011 406.159,-195.321"/>
<ellipse fill="none" stroke="#80caeb" cx="403.642" cy="-410.248" rx="4" ry="4"/>
<polygon fill="#80caeb" stroke="#80caeb" points="406.164,-195.223 411.169,-185.465 406.419,-190.229 406.675,-185.236 406.675,-185.236 406.675,-185.236 406.419,-190.229 402.18,-185.006 406.164,-195.223 406.164,-195.223"/>
</g>
<!-- User&#45;&gt;Folder -->
<g id="edge12" class="edge"><title>User&#45;&gt;Folder</title>
<path fill="none" stroke="#63745a" d="M437.417,-406.588C440.957,-396.926 444.533,-387.252 448,-378 449.203,-374.79 450.439,-371.514 451.693,-368.208"/>
<ellipse fill="none" stroke="#63745a" cx="435.962" cy="-410.57" rx="4.00001" ry="4.00001"/>
<polygon fill="#63745a" stroke="#63745a" points="451.703,-368.18 459.469,-360.438 453.484,-363.508 455.264,-358.835 455.264,-358.835 455.264,-358.835 453.484,-363.508 451.059,-357.233 451.703,-368.18 451.703,-368.18"/>
</g>
<!-- User&#45;&gt;SharedFolder -->
<g id="edge13" class="edge"><title>User&#45;&gt;SharedFolder</title>
<path fill="none" stroke="#a8a377" d="M488.038,-468.067C526.088,-451.582 569.599,-427.785 601,-396 654.164,-342.185 659.753,-254.123 654.35,-186.943"/>
<ellipse fill="none" stroke="#a8a377" cx="484.187" cy="-469.703" rx="4.00002" ry="4.00002"/>
<polygon fill="#a8a377" stroke="#a8a377" points="654.331,-186.729 657.918,-176.367 653.883,-181.749 653.436,-176.769 653.436,-176.769 653.436,-176.769 653.883,-181.749 648.954,-177.172 654.331,-186.729 654.331,-186.729"/>
</g>
<!-- User&#45;&gt;SharedFolder -->
<g id="edge14" class="edge"><title>User&#45;&gt;SharedFolder</title>
<path fill="none" stroke="#f0065c" d="M488.107,-479.416C549.181,-461.309 626.458,-426.06 656,-360 684.403,-296.488 678.235,-272.958 669,-204 668.234,-198.281 667.254,-192.439 666.118,-186.575"/>
<ellipse fill="none" stroke="#f0065c" cx="484.208" cy="-480.539" rx="4.00001" ry="4.00001"/>
<polygon fill="#f0065c" stroke="#f0065c" points="666.101,-186.495 668.475,-175.789 665.085,-181.599 664.069,-176.704 664.069,-176.704 664.069,-176.704 665.085,-181.599 659.663,-177.618 666.101,-186.495 666.101,-186.495"/>
<text text-anchor="middle" x="736.259" y="-286.4" font-family="Times,serif" font-size="14.00">being_shared_folders</text>
</g>
<!-- User&#45;&gt;Folder -->
<g id="edge15" class="edge"><title>User&#45;&gt;Folder</title>
<path fill="none" stroke="#ab7bbd" d="M444.665,-404.793C445.807,-401.835 446.921,-398.898 448,-396 451.281,-387.184 454.542,-377.874 457.664,-368.6"/>
<polygon fill="#ab7bbd" stroke="#ab7bbd" points="444.589,-404.986 436.748,-412.652 442.763,-409.641 440.937,-414.296 440.937,-414.296 440.937,-414.296 442.763,-409.641 445.127,-415.939 444.589,-404.986 444.589,-404.986"/>
<polygon fill="#ab7bbd" stroke="#ab7bbd" points="457.71,-368.462 465.134,-360.391 459.287,-363.717 460.863,-358.972 460.863,-358.972 460.863,-358.972 459.287,-363.717 456.593,-357.553 457.71,-368.462 457.71,-368.462"/>
<text text-anchor="middle" x="525.314" y="-381.4" font-family="Times,serif" font-size="14.00">shared_folders_by_others</text>
</g>
</g>
</svg>
